M48
;Layer_Color=9474304
;FILE_FORMAT=4:3
METRIC,LZ
;TYPE=PLATED
T1F00S00C0.500
T2F00S00C0.508
T3F00S00C0.800
T4F00S00C2.700
;TYPE=NON_PLATED
T5F00S00C1.500
%
T01
X0056Y002155
Y00228
Y002405
Y00253
Y002655
Y00278
T02
X00074Y0003
X00115
Y00075
X00111Y00127
X00114Y00142
X00131
X00146
X00164
X00166Y00127
X0021Y00127
Y0008
X00255
X00305
X003Y00035
X00211Y0003
X00245Y0015
X0028Y00125
X0033
X00065Y00135
X00055Y00145
X00035Y00115
X00385Y001
X0039536Y001354
X00373Y00145
X0041822Y0014556
X0044Y00145
X00526Y00125
X00525Y0018
X0050758Y002939
X0049234
X0047709Y0029391
X00438Y00284
X0041106Y002685
Y0031422
X00438Y00329
X00423Y00344
X003755Y0033454
X0035772Y004082
X00505Y0041
X0056
Y0035
X005Y00355
Y0034
X0051Y0033
X0052Y0032
X00515Y00305
X00525Y0046
X00358Y00233
X00328Y00234
Y00284
X003501Y0027104
X0034248Y0031422
X00328Y00344
X0029013Y0034887
X0025866Y0033708
X00239Y00336
X00235Y00355
X0021294Y0035486
X0020024Y0035994
X0018754Y0036502
X00145Y00355
X00115
X0011Y00332
X0012455Y0032545
X00135Y00335
X00115Y00315
X00105Y00305
Y00285
X00095Y00294
X0009Y0027
X00085Y00255
X00075Y0024014
X00065Y0022
X0002Y0024
X0004Y0029
X00065Y00332
Y00425
X0012Y00415
X0013Y00405
X0014Y0038
X0013Y0037
X00195Y003
X0021
X00238Y00279
X002485Y0028882
X002612Y002939
X002739Y0029898
X0026628Y003193
X0029013Y0039387
X0030438Y0040312
Y0041836
X0034502Y0040312
X00233Y00238
X00225Y00225
X00235Y00205
X00251
X0023Y00155
X00215Y0016
X00195Y0025
X0017Y00255
X0014486Y0024014
X00045Y00155
T03
X003598Y000293
X003852
X004106
X00436
X004614
X004868
X004741Y000547
X004487
X004233
X003979
X003725
X004995
X00505Y0045
Y0047
X00485
Y0045
X00465
Y0047
X00445
Y0045
X00425
Y0047
X00405
X00405Y0045
X00385
Y0047
X00365
Y0045
X00345
Y0047
X00325Y0047
Y0045
X00275
Y0047
X00255
Y0045
X00235
Y0047
X00215
Y0045
X00195
Y0047
X00175
X00175Y0045
X00155
Y0047
X00135
Y0045
X00115
Y0047
X00095Y0047
Y0045
T04
X0003Y0003
X0057Y00031
Y0047
X0003
T05
X003418Y000695
X005175
M30
