%FSLAX43Y43*%
%MOMM*%
G71*
G01*
G75*
G04 Layer_Color=16711935*
%ADD10C,0.305*%
%ADD11C,1.000*%
%ADD12O,0.350X2.000*%
%ADD13R,0.700X0.900*%
%ADD14R,0.900X0.800*%
%ADD15R,0.800X0.900*%
%ADD16R,0.900X0.700*%
%ADD17O,1.800X0.300*%
%ADD18O,0.300X1.800*%
%ADD19O,0.450X2.200*%
%ADD20R,1.050X2.200*%
%ADD21R,1.000X1.050*%
%ADD22C,0.127*%
%ADD23C,4.500*%
%ADD24C,1.500*%
%ADD25C,1.300*%
%ADD26R,1.300X1.300*%
%ADD27C,0.889*%
%ADD28R,1.400X1.100*%
%ADD29R,1.400X1.200*%
%ADD30R,2.100X0.900*%
%ADD31R,2.100X3.200*%
%ADD32C,0.600*%
%ADD33C,0.250*%
%ADD34C,0.200*%
%ADD35C,0.100*%
%ADD36C,0.152*%
%ADD37C,0.152*%
%ADD38C,1.203*%
%ADD39C,2.000*%
%ADD40O,0.553X2.203*%
%ADD41R,0.903X1.103*%
%ADD42R,1.103X1.003*%
%ADD43R,1.003X1.103*%
%ADD44R,1.103X0.903*%
%ADD45O,2.003X0.503*%
%ADD46O,0.503X2.003*%
%ADD47O,0.653X2.403*%
%ADD48R,1.253X2.403*%
%ADD49R,1.203X1.253*%
%ADD50C,4.703*%
%ADD51C,1.703*%
%ADD52C,1.503*%
%ADD53R,1.503X1.503*%
%ADD54C,1.092*%
%ADD55R,1.603X1.303*%
%ADD56R,1.603X1.403*%
%ADD57R,2.303X1.103*%
%ADD58R,2.303X3.403*%
D38*
X4000Y27800D02*
D03*
Y26550D02*
D03*
Y25300D02*
D03*
Y24050D02*
D03*
Y22800D02*
D03*
Y21550D02*
D03*
D39*
X1500Y39000D02*
D03*
X58500Y42000D02*
D03*
X33000Y1500D02*
D03*
D42*
X17370Y30214D02*
D03*
Y31614D02*
D03*
Y25642D02*
D03*
Y27042D02*
D03*
X26006Y29836D02*
D03*
Y28436D02*
D03*
Y26026D02*
D03*
Y24626D02*
D03*
X50400Y14200D02*
D03*
Y12800D02*
D03*
X50400Y16000D02*
D03*
Y17400D02*
D03*
X46900Y16000D02*
D03*
Y17400D02*
D03*
X45400Y16000D02*
D03*
Y17400D02*
D03*
X41900Y16000D02*
D03*
Y17400D02*
D03*
D43*
X54800Y10100D02*
D03*
X53400D02*
D03*
X52100Y40000D02*
D03*
X53500D02*
D03*
X56500Y40000D02*
D03*
X55100D02*
D03*
X22766Y24564D02*
D03*
X24166D02*
D03*
X20356Y33200D02*
D03*
X18956D02*
D03*
X24544Y33200D02*
D03*
X25944D02*
D03*
X21496Y27104D02*
D03*
X22896D02*
D03*
X53400Y11500D02*
D03*
X54800D02*
D03*
D44*
X40400Y14150D02*
D03*
Y12650D02*
D03*
X41900Y12650D02*
D03*
Y14150D02*
D03*
D50*
X57000Y3000D02*
D03*
X3000Y3100D02*
D03*
X57000Y47000D02*
D03*
X3000D02*
D03*
D51*
X8250Y6950D02*
D03*
X25820D02*
D03*
D52*
X20210Y5470D02*
D03*
X22750D02*
D03*
X21480Y2930D02*
D03*
X18940D02*
D03*
X17670Y5470D02*
D03*
X16400Y2930D02*
D03*
X15130Y5470D02*
D03*
X13860Y2930D02*
D03*
X12590Y5470D02*
D03*
X11320Y2930D02*
D03*
X10050Y5470D02*
D03*
X32500Y47000D02*
D03*
Y45000D02*
D03*
X34500Y47000D02*
D03*
Y45000D02*
D03*
X36500Y47000D02*
D03*
Y45000D02*
D03*
X38500Y47000D02*
D03*
Y45000D02*
D03*
X40500Y47000D02*
D03*
Y45000D02*
D03*
X42500Y47000D02*
D03*
X42500Y45000D02*
D03*
X44500Y47000D02*
D03*
Y45000D02*
D03*
X46500Y47000D02*
D03*
Y45000D02*
D03*
X48500D02*
D03*
X50500Y47000D02*
D03*
X48500Y47000D02*
D03*
X9500D02*
D03*
Y45000D02*
D03*
X11500Y47000D02*
D03*
Y45000D02*
D03*
X13500Y47000D02*
D03*
Y45000D02*
D03*
X15500Y47000D02*
D03*
Y45000D02*
D03*
X17500Y47000D02*
D03*
Y45000D02*
D03*
X19500Y47000D02*
D03*
X19500Y45000D02*
D03*
X21500Y47000D02*
D03*
Y45000D02*
D03*
X23500Y47000D02*
D03*
Y45000D02*
D03*
X25500D02*
D03*
X27500Y47000D02*
D03*
X25500Y47000D02*
D03*
D53*
X24020Y2930D02*
D03*
X50500Y45000D02*
D03*
X27500D02*
D03*
D54*
X29500Y8000D02*
D03*
X45514Y24014D02*
D03*
X35500Y15000D02*
D03*
X51000Y27000D02*
D03*
X48500Y35500D02*
D03*
X50500Y29400D02*
D03*
X49500Y28500D02*
D03*
X43000Y25500D02*
D03*
X51500D02*
D03*
X49500Y30500D02*
D03*
X48500Y31500D02*
D03*
X47545Y32545D02*
D03*
X46500Y33500D02*
D03*
X48500Y7500D02*
D03*
X56500Y11500D02*
D03*
X53500Y22000D02*
D03*
X30987Y34887D02*
D03*
Y39387D02*
D03*
X45500Y35500D02*
D03*
X53500Y33200D02*
D03*
X49000D02*
D03*
X8500Y30500D02*
D03*
X10766Y29390D02*
D03*
X12291Y29391D02*
D03*
X8000Y32000D02*
D03*
X9242Y29390D02*
D03*
X18894Y26850D02*
D03*
X24990Y27104D02*
D03*
X29562Y40312D02*
D03*
Y41836D02*
D03*
X24228Y40820D02*
D03*
X25498Y40312D02*
D03*
X25752Y31422D02*
D03*
X22450Y33454D02*
D03*
X27200Y28400D02*
D03*
X16200Y32900D02*
D03*
Y28400D02*
D03*
X24200Y23300D02*
D03*
X27200Y23400D02*
D03*
X43600Y14200D02*
D03*
X48600D02*
D03*
X43400Y12700D02*
D03*
X39000Y12700D02*
D03*
X48900Y12700D02*
D03*
X46900Y14200D02*
D03*
X45400D02*
D03*
X27200Y34400D02*
D03*
X18894Y31422D02*
D03*
X17700Y34400D02*
D03*
X9000Y33000D02*
D03*
X10000Y34000D02*
D03*
Y35500D02*
D03*
X20464Y13540D02*
D03*
X18178Y14556D02*
D03*
X54500Y14500D02*
D03*
X55500Y15500D02*
D03*
X53500Y13500D02*
D03*
X38500Y16000D02*
D03*
X37000Y15500D02*
D03*
X36500Y20500D02*
D03*
X37500Y22500D02*
D03*
X40500Y25000D02*
D03*
Y30000D02*
D03*
X39000D02*
D03*
X41246Y36502D02*
D03*
X38706Y35486D02*
D03*
X39976Y35994D02*
D03*
X36100Y33600D02*
D03*
X33880Y29390D02*
D03*
X32610Y29898D02*
D03*
X35150Y28882D02*
D03*
X33372Y31930D02*
D03*
X34134Y33708D02*
D03*
X36700Y23800D02*
D03*
X16000Y14500D02*
D03*
X30000Y3500D02*
D03*
X52500Y24014D02*
D03*
X58000Y24000D02*
D03*
X34900Y20500D02*
D03*
X36200Y27900D02*
D03*
X36500Y35500D02*
D03*
X46000Y38000D02*
D03*
X48000Y41500D02*
D03*
X47000Y40500D02*
D03*
Y37000D02*
D03*
X22700Y14500D02*
D03*
X21500Y10000D02*
D03*
X56000Y29000D02*
D03*
X52600Y3000D02*
D03*
X48500D02*
D03*
X38900D02*
D03*
X27000Y12500D02*
D03*
X39000Y8000D02*
D03*
X34500D02*
D03*
X32000Y12500D02*
D03*
X7400D02*
D03*
X7500Y18000D02*
D03*
X4000Y35000D02*
D03*
Y41000D02*
D03*
X53500Y42500D02*
D03*
X9500Y41000D02*
D03*
X7500Y46000D02*
D03*
D55*
X43600Y15750D02*
D03*
Y17250D02*
D03*
X48600Y15750D02*
D03*
Y17250D02*
D03*
D56*
X21000Y30850D02*
D03*
X23400D02*
D03*
X21000Y28950D02*
D03*
X23400D02*
D03*
D57*
X56450Y33200D02*
D03*
Y35500D02*
D03*
Y37800D02*
D03*
D58*
X50750Y35500D02*
D03*
M02*
