%FSLAX43Y43*%
%MOMM*%
G71*
G01*
G75*
G04 Layer_Color=65535*
%ADD10C,0.305*%
%ADD11C,1.000*%
%ADD12O,0.350X2.000*%
%ADD13R,0.700X0.900*%
%ADD14R,0.900X0.800*%
%ADD15R,0.800X0.900*%
%ADD16R,0.900X0.700*%
%ADD17O,1.800X0.300*%
%ADD18O,0.300X1.800*%
%ADD19O,0.450X2.200*%
%ADD20R,1.050X2.200*%
%ADD21R,1.000X1.050*%
%ADD22C,0.127*%
%ADD23C,4.500*%
%ADD24C,1.500*%
%ADD25C,1.300*%
%ADD26R,1.300X1.300*%
%ADD27C,0.889*%
%ADD28R,1.400X1.100*%
%ADD29R,1.400X1.200*%
%ADD30R,2.100X0.900*%
%ADD31R,2.100X3.200*%
%ADD32C,0.600*%
%ADD33C,0.250*%
%ADD34C,0.200*%
%ADD35C,0.100*%
%ADD36C,0.152*%
%ADD37C,0.152*%
D32*
X14400Y14600D02*
G03*
X14400Y14600I300J0D01*
G01*
X42256Y30158D02*
G03*
X42256Y30158I300J0D01*
G01*
X16150Y34150D02*
G03*
X16150Y34150I300J0D01*
G01*
X42450Y15300D02*
G03*
X42450Y15300I300J0D01*
G01*
D33*
X13225Y17000D02*
G03*
X13225Y17000I125J0D01*
G01*
X43781Y27758D02*
G03*
X43781Y27758I125J0D01*
G01*
X14875Y36450D02*
G03*
X14875Y36450I125J0D01*
G01*
X41775Y17800D02*
G03*
X41775Y17800I125J0D01*
G01*
D34*
X20300Y12600D02*
Y15600D01*
X13700Y12600D02*
Y15600D01*
X20300Y12600D02*
X13700D01*
X20300Y15600D02*
X13700D01*
X32500Y15350D02*
X32100D01*
X32500Y14650D02*
X32100D01*
X32500Y16850D02*
X32100D01*
X32500Y16150D02*
X32100D01*
X32500Y18350D02*
X32100D01*
X32500Y17650D02*
X32100D01*
X22350Y12100D02*
Y12500D01*
X23050Y12100D02*
Y12500D01*
X4000Y29300D02*
X2375D01*
Y20050D02*
Y29300D01*
X5200Y20050D02*
X2375D01*
X5200D02*
Y29300D01*
X4000D01*
X36956Y29158D02*
Y32158D01*
X43556Y29158D02*
Y32158D01*
X36956D01*
X43556Y29158D02*
X36956D01*
X27950Y22650D02*
Y35150D01*
X15450Y22650D02*
Y35150D01*
X27950Y22650D02*
X15450D01*
X27950Y35150D02*
X15450D01*
X52050Y16300D02*
X41750D01*
X52050Y12100D02*
X41750D01*
Y16300D01*
X52050Y12100D02*
Y16300D01*
X44600Y2200D02*
X43400D01*
X44600D02*
Y2400D01*
X43400Y2200D02*
Y2400D01*
X45600D02*
Y2600D01*
Y2400D02*
X44600D01*
X42400D02*
Y2600D01*
X43400Y2400D02*
X42400D01*
X45600Y5400D02*
Y5600D01*
X44900D01*
X43100D02*
X42400D01*
Y5400D02*
Y5600D01*
D35*
X27100Y1366D02*
Y8310D01*
Y1366D02*
X7000D01*
X27100Y8310D02*
X7000D01*
Y1366D02*
Y8310D01*
X31200Y43706D02*
Y48300D01*
X51800D02*
X31200D01*
X51800Y43706D02*
X31200D01*
X51800D02*
Y48300D01*
X8200Y43706D02*
Y48300D01*
X28800D02*
X8200D01*
X28800Y43706D02*
X8200D01*
X28800D02*
Y48300D01*
D36*
X51899Y37317D02*
X51222D01*
X51560D01*
Y36301D01*
X50883D02*
Y37317D01*
X50375D01*
X50206Y37148D01*
Y36809D01*
X50375Y36640D01*
X50883D01*
X49190Y37317D02*
X49867D01*
Y36809D01*
X49529Y36978D01*
X49360D01*
X49190Y36809D01*
Y36470D01*
X49360Y36301D01*
X49698D01*
X49867Y36470D01*
X51900Y41516D02*
X51223D01*
X51561D01*
Y40500D01*
X50884D02*
Y41516D01*
X50376D01*
X50207Y41346D01*
Y41008D01*
X50376Y40839D01*
X50884D01*
X49361Y40500D02*
Y41516D01*
X49869Y41008D01*
X49192D01*
X55200Y37316D02*
X54523D01*
X54861D01*
Y36300D01*
X54184D02*
Y37316D01*
X53676D01*
X53507Y37146D01*
Y36808D01*
X53676Y36639D01*
X54184D01*
X52492Y37316D02*
X52830Y37146D01*
X53169Y36808D01*
Y36469D01*
X52999Y36300D01*
X52661D01*
X52492Y36469D01*
Y36639D01*
X52661Y36808D01*
X53169D01*
X40800Y18316D02*
X40123D01*
X40461D01*
Y17300D01*
X39784D02*
Y18316D01*
X39276D01*
X39107Y18146D01*
Y17808D01*
X39276Y17639D01*
X39784D01*
X38769Y17300D02*
X38430D01*
X38599D01*
Y18316D01*
X38769Y18146D01*
X41800Y21316D02*
X41123D01*
X41461D01*
Y20300D01*
X40784D02*
Y21316D01*
X40276D01*
X40107Y21146D01*
Y20808D01*
X40276Y20639D01*
X40784D01*
X39092Y20300D02*
X39769D01*
X39092Y20977D01*
Y21146D01*
X39261Y21316D01*
X39599D01*
X39769Y21146D01*
X43200Y24316D02*
X42523D01*
X42861D01*
Y23300D01*
X42184D02*
Y24316D01*
X41676D01*
X41507Y24146D01*
Y23808D01*
X41676Y23639D01*
X42184D01*
X41169Y24146D02*
X40999Y24316D01*
X40661D01*
X40492Y24146D01*
Y23977D01*
X40661Y23808D01*
X40830D01*
X40661D01*
X40492Y23639D01*
Y23469D01*
X40661Y23300D01*
X40999D01*
X41169Y23469D01*
D37*
X38654Y10823D02*
X38484Y10992D01*
Y11331D01*
X38654Y11500D01*
X39331D01*
X39500Y11331D01*
Y10992D01*
X39331Y10823D01*
X39500Y10484D02*
Y10146D01*
Y10315D01*
X38484D01*
X38654Y10484D01*
X44715Y19638D02*
X44546Y19468D01*
X44207D01*
X44038Y19638D01*
Y20315D01*
X44207Y20484D01*
X44546D01*
X44715Y20315D01*
X45054Y19638D02*
X45223Y19468D01*
X45561D01*
X45731Y19638D01*
Y19807D01*
X45561Y19976D01*
X45392D01*
X45561D01*
X45731Y20145D01*
Y20315D01*
X45561Y20484D01*
X45223D01*
X45054Y20315D01*
X55146Y10177D02*
X55316Y10008D01*
Y9669D01*
X55146Y9500D01*
X54469D01*
X54300Y9669D01*
Y10008D01*
X54469Y10177D01*
X54300Y10516D02*
Y10854D01*
Y10685D01*
X55316D01*
X55146Y10516D01*
X54300Y11362D02*
Y11701D01*
Y11531D01*
X55316D01*
X55146Y11362D01*
X10290Y14505D02*
X10120Y14674D01*
Y15013D01*
X10290Y15182D01*
X10967D01*
X11136Y15013D01*
Y14674D01*
X10967Y14505D01*
X11136Y13489D02*
Y14166D01*
X10459Y13489D01*
X10290D01*
X10120Y13658D01*
Y13997D01*
X10290Y14166D01*
Y13151D02*
X10120Y12981D01*
Y12643D01*
X10290Y12474D01*
X10967D01*
X11136Y12643D01*
Y12981D01*
X10967Y13151D01*
X10290D01*
X47172Y29813D02*
X47342Y29644D01*
Y29305D01*
X47172Y29136D01*
X46495D01*
X46326Y29305D01*
Y29644D01*
X46495Y29813D01*
X46326Y30829D02*
Y30152D01*
X47003Y30829D01*
X47172D01*
X47342Y30660D01*
Y30321D01*
X47172Y30152D01*
X46326Y31167D02*
Y31506D01*
Y31337D01*
X47342D01*
X47172Y31167D01*
X45279Y7666D02*
X45448Y7835D01*
X45787D01*
X45956Y7666D01*
Y6989D01*
X45787Y6819D01*
X45448D01*
X45279Y6989D01*
X44432Y7835D02*
X44771D01*
X44940Y7666D01*
Y6989D01*
X44771Y6819D01*
X44432D01*
X44263Y6989D01*
Y7666D01*
X44432Y7835D01*
X43924Y6819D02*
Y7835D01*
X43247Y6819D01*
Y7835D01*
X42909Y6819D02*
X42570D01*
X42739D01*
Y7835D01*
X42909Y7666D01*
X52495Y21135D02*
X52156D01*
X52326D01*
Y20120D01*
X52495D01*
X52156D01*
X50971Y20966D02*
X51141Y21135D01*
X51479D01*
X51649Y20966D01*
Y20289D01*
X51479Y20120D01*
X51141D01*
X50971Y20289D01*
X50633Y20120D02*
X50294D01*
X50464D01*
Y21135D01*
X50633Y20966D01*
X30300Y39516D02*
X29961D01*
X30131D01*
Y38500D01*
X30300D01*
X29961D01*
X28776Y39346D02*
X28946Y39516D01*
X29284D01*
X29454Y39346D01*
Y38669D01*
X29284Y38500D01*
X28946D01*
X28776Y38669D01*
X27761Y38500D02*
X28438D01*
X27761Y39177D01*
Y39346D01*
X27930Y39516D01*
X28269D01*
X28438Y39346D01*
X11584Y18500D02*
Y18161D01*
Y18331D01*
X12600D01*
Y18500D01*
Y18161D01*
X11754Y16976D02*
X11584Y17146D01*
Y17484D01*
X11754Y17654D01*
X12431D01*
X12600Y17484D01*
Y17146D01*
X12431Y16976D01*
X11754Y16638D02*
X11584Y16469D01*
Y16130D01*
X11754Y15961D01*
X11923D01*
X12092Y16130D01*
Y16299D01*
Y16130D01*
X12261Y15961D01*
X12431D01*
X12600Y16130D01*
Y16469D01*
X12431Y16638D01*
X44500Y36416D02*
X44161D01*
X44331D01*
Y35400D01*
X44500D01*
X44161D01*
X42976Y36246D02*
X43146Y36416D01*
X43484D01*
X43654Y36246D01*
Y35569D01*
X43484Y35400D01*
X43146D01*
X42976Y35569D01*
X42130Y35400D02*
Y36416D01*
X42638Y35908D01*
X41961D01*
X53222Y44423D02*
Y44085D01*
Y44254D01*
X52375D01*
X52206Y44085D01*
Y43915D01*
X52375Y43746D01*
X52206Y45439D02*
Y44762D01*
X52883Y45439D01*
X53052D01*
X53222Y45270D01*
Y44931D01*
X53052Y44762D01*
X30362Y44423D02*
Y44085D01*
Y44254D01*
X29515D01*
X29346Y44085D01*
Y43915D01*
X29515Y43746D01*
X30192Y44762D02*
X30362Y44931D01*
Y45270D01*
X30192Y45439D01*
X30023D01*
X29854Y45270D01*
Y45100D01*
Y45270D01*
X29685Y45439D01*
X29515D01*
X29346Y45270D01*
Y44931D01*
X29515Y44762D01*
X29020Y2215D02*
Y1877D01*
Y2046D01*
X28173D01*
X28004Y1877D01*
Y1707D01*
X28173Y1538D01*
X28004Y2554D02*
Y2892D01*
Y2723D01*
X29020D01*
X28850Y2554D01*
X1600Y29300D02*
X584D01*
Y28792D01*
X754Y28623D01*
X1092D01*
X1261Y28792D01*
Y29300D01*
X1600Y28284D02*
Y27946D01*
Y28115D01*
X584D01*
X754Y28284D01*
X30868Y17528D02*
Y18544D01*
X30360D01*
X30191Y18374D01*
Y18036D01*
X30360Y17867D01*
X30868D01*
X30529D02*
X30191Y17528D01*
X29852Y18374D02*
X29683Y18544D01*
X29344D01*
X29175Y18374D01*
Y18205D01*
X29344Y18036D01*
X29514D01*
X29344D01*
X29175Y17867D01*
Y17697D01*
X29344Y17528D01*
X29683D01*
X29852Y17697D01*
X30868Y16004D02*
Y17020D01*
X30360D01*
X30191Y16850D01*
Y16512D01*
X30360Y16343D01*
X30868D01*
X30529D02*
X30191Y16004D01*
X29344D02*
Y17020D01*
X29852Y16512D01*
X29175D01*
X30868Y14480D02*
Y15496D01*
X30360D01*
X30191Y15326D01*
Y14988D01*
X30360Y14819D01*
X30868D01*
X30529D02*
X30191Y14480D01*
X29175Y15496D02*
X29852D01*
Y14988D01*
X29514Y15157D01*
X29344D01*
X29175Y14988D01*
Y14649D01*
X29344Y14480D01*
X29683D01*
X29852Y14649D01*
X23716Y11538D02*
X24732D01*
Y12046D01*
X24562Y12215D01*
X24224D01*
X24055Y12046D01*
Y11538D01*
Y11877D02*
X23716Y12215D01*
X24732Y13231D02*
X24562Y12892D01*
X24224Y12554D01*
X23885D01*
X23716Y12723D01*
Y13062D01*
X23885Y13231D01*
X24055D01*
X24224Y13062D01*
Y12554D01*
X5122Y30498D02*
Y30159D01*
Y30329D01*
X4106D01*
X4276Y30498D01*
M02*
