%FSLAX43Y43*%
%MOMM*%
G71*
G01*
G75*
G04 Layer_Color=32768*
%ADD10C,0.305*%
%ADD11C,1.000*%
%ADD12O,0.350X2.000*%
%ADD13R,0.700X0.900*%
%ADD14R,0.900X0.800*%
%ADD15R,0.800X0.900*%
%ADD16R,0.900X0.700*%
%ADD17O,1.800X0.300*%
%ADD18O,0.300X1.800*%
%ADD19O,0.450X2.200*%
%ADD20R,1.050X2.200*%
%ADD21R,1.000X1.050*%
%ADD22C,0.127*%
%ADD23C,4.500*%
%ADD24C,1.500*%
%ADD25C,1.300*%
%ADD26R,1.300X1.300*%
%ADD27C,0.889*%
%ADD28R,1.400X1.100*%
%ADD29R,1.400X1.200*%
%ADD30R,2.100X0.900*%
%ADD31R,2.100X3.200*%
%ADD32C,0.600*%
%ADD33C,0.250*%
%ADD34C,0.200*%
%ADD35C,0.100*%
%ADD36C,0.152*%
%ADD37C,0.152*%
%ADD38C,1.203*%
%ADD39C,2.000*%
%ADD40O,0.553X2.203*%
%ADD41R,0.903X1.103*%
%ADD42R,1.103X1.003*%
%ADD43R,1.003X1.103*%
%ADD44R,1.103X0.903*%
%ADD45O,2.003X0.503*%
%ADD46O,0.503X2.003*%
%ADD47O,0.653X2.403*%
%ADD48R,1.253X2.403*%
%ADD49R,1.203X1.253*%
%ADD50C,4.703*%
%ADD51C,1.703*%
%ADD52C,1.503*%
%ADD53R,1.503X1.503*%
%ADD54C,1.092*%
%ADD55R,1.603X1.303*%
%ADD56R,1.603X1.403*%
%ADD57R,2.303X1.103*%
%ADD58R,2.303X3.403*%
%ADD59C,0.254*%
%ADD60C,0.050*%
D35*
X55300Y9550D02*
Y10650D01*
X52900Y9550D02*
Y10650D01*
X55300Y9550D02*
X52900D01*
X55300Y10650D02*
X52900D01*
X54575Y10100D02*
X53625D01*
X54100Y9625D02*
Y10575D01*
X17500Y14100D02*
X16500D01*
X17000Y13600D02*
Y14600D01*
X20800Y9700D02*
Y18500D01*
X13200Y9700D02*
Y18500D01*
X20800Y9700D02*
X13200D01*
X20800Y18500D02*
X13200D01*
X40875Y13400D02*
X39925D01*
X40400Y12925D02*
Y13875D01*
X40950Y12200D02*
Y14600D01*
X39850Y12200D02*
Y14600D01*
X40950D02*
X39850D01*
X40950Y12200D02*
X39850D01*
X44400Y15100D02*
X42800D01*
X44400Y17900D02*
X42800D01*
Y15100D02*
Y17900D01*
X44400Y15100D02*
Y17900D01*
X43600Y16000D02*
Y17000D01*
X44100Y16500D02*
X43100D01*
X52800Y39525D02*
Y40475D01*
X53275Y40000D02*
X52325D01*
X54000Y40550D02*
X51600D01*
X54000Y39450D02*
X51600D01*
Y40550D01*
X54000Y39450D02*
Y40550D01*
X32300Y14525D02*
Y15475D01*
X32775Y15000D02*
X31825D01*
X33500Y15550D02*
X31100D01*
X33500Y14450D02*
X31100D01*
X33500D02*
Y15550D01*
X31100Y14450D02*
Y15550D01*
X32300Y16025D02*
Y16975D01*
X32775Y16500D02*
X31825D01*
X33500Y17050D02*
X31100D01*
X33500Y15950D02*
X31100D01*
X33500D02*
Y17050D01*
X31100Y15950D02*
Y17050D01*
X32300Y17525D02*
Y18475D01*
X32775Y18000D02*
X31825D01*
X33500Y18550D02*
X31100D01*
X33500Y17450D02*
X31100D01*
X33500D02*
Y18550D01*
X31100Y17450D02*
Y18550D01*
X42375Y13400D02*
X41425D01*
X41900Y12925D02*
Y13875D01*
X41350Y12200D02*
Y14600D01*
X42450Y12200D02*
Y14600D01*
Y12200D02*
X41350D01*
X42450Y14600D02*
X41350D01*
X55800Y39525D02*
Y40475D01*
X56275Y40000D02*
X55325D01*
X57000Y39450D02*
X54600D01*
X57000Y40550D02*
X54600D01*
X57000Y39450D02*
Y40550D01*
X54600Y39450D02*
Y40550D01*
X12627Y13912D02*
X11677D01*
X12152Y13437D02*
Y14387D01*
X12702Y12712D02*
Y15112D01*
X11602Y12712D02*
Y15112D01*
X12702Y12712D02*
X11602D01*
X12702Y15112D02*
X11602D01*
X17845Y30914D02*
X16895D01*
X17370Y30439D02*
Y31389D01*
X16820Y29714D02*
Y32114D01*
X17920Y29714D02*
Y32114D01*
Y29714D02*
X16820D01*
X17920Y32114D02*
X16820D01*
X17845Y26342D02*
X16895D01*
X17370Y25867D02*
Y26817D01*
X16820Y25142D02*
Y27542D01*
X17920Y25142D02*
Y27542D01*
Y25142D02*
X16820D01*
X17920Y27542D02*
X16820D01*
X23466Y24089D02*
Y25039D01*
X23941Y24564D02*
X22991D01*
X24666Y25114D02*
X22266D01*
X24666Y24014D02*
X22266D01*
Y25114D01*
X24666Y24014D02*
Y25114D01*
X19656Y32725D02*
Y33675D01*
X20131Y33200D02*
X19181D01*
X20856Y32650D02*
X18456D01*
X20856Y33750D02*
X18456D01*
X20856Y32650D02*
Y33750D01*
X18456Y32650D02*
Y33750D01*
X26481Y29136D02*
X25531D01*
X26006Y28661D02*
Y29611D01*
X26556Y27936D02*
Y30336D01*
X25456Y27936D02*
Y30336D01*
X26556D02*
X25456D01*
X26556Y27936D02*
X25456D01*
X25244Y32725D02*
Y33675D01*
X25719Y33200D02*
X24769D01*
X26444Y33750D02*
X24044D01*
X26444Y32650D02*
X24044D01*
Y33750D01*
X26444Y32650D02*
Y33750D01*
X26481Y25326D02*
X25531D01*
X26006Y24851D02*
Y25801D01*
X26556Y24126D02*
Y26526D01*
X25456Y24126D02*
Y26526D01*
X26556D02*
X25456D01*
X26556Y24126D02*
X25456D01*
X22196Y26629D02*
Y27579D01*
X22671Y27104D02*
X21721D01*
X23396Y27654D02*
X20996D01*
X23396Y26554D02*
X20996D01*
Y27654D01*
X23396Y26554D02*
Y27654D01*
X53875Y10800D02*
X52925D01*
X53400Y10325D02*
Y11275D01*
X53950Y9600D02*
Y12000D01*
X52850Y9600D02*
Y12000D01*
X53950Y9600D02*
X52850D01*
X53950Y12000D02*
X52850D01*
X50875Y13500D02*
X49925D01*
X50400Y13025D02*
Y13975D01*
X50950Y12300D02*
Y14700D01*
X49850Y12300D02*
Y14700D01*
X50950D02*
X49850D01*
X50950Y12300D02*
X49850D01*
X50875Y16700D02*
X49925D01*
X50400Y16225D02*
Y17175D01*
X49850Y15500D02*
Y17900D01*
X50950Y15500D02*
Y17900D01*
Y15500D02*
X49850D01*
X50950Y17900D02*
X49850D01*
X47375Y16700D02*
X46425D01*
X46900Y16225D02*
Y17175D01*
X46350Y15500D02*
Y17900D01*
X47450Y15500D02*
Y17900D01*
Y15500D02*
X46350D01*
X47450Y17900D02*
X46350D01*
X45875Y16700D02*
X44925D01*
X45400Y16225D02*
Y17175D01*
X44850Y15500D02*
Y17900D01*
X45950Y15500D02*
Y17900D01*
Y15500D02*
X44850D01*
X45950Y17900D02*
X44850D01*
X42375Y16700D02*
X41425D01*
X41900Y16225D02*
Y17175D01*
X41350Y15500D02*
Y17900D01*
X42450Y15500D02*
Y17900D01*
Y15500D02*
X41350D01*
X42450Y17900D02*
X41350D01*
X44800Y21025D02*
Y21975D01*
X45275Y21500D02*
X44325D01*
X46000Y20950D02*
X43600D01*
X46000Y22050D02*
X43600D01*
Y20950D02*
Y22050D01*
X46000Y20950D02*
Y22050D01*
X40875Y10700D02*
X39925D01*
X40400Y10225D02*
Y11175D01*
X40950Y9500D02*
Y11900D01*
X39850Y9500D02*
Y11900D01*
X40950Y9500D02*
X39850D01*
X40950Y11900D02*
X39850D01*
X23175Y12300D02*
X22225D01*
X22700Y11825D02*
Y12775D01*
X22150Y11100D02*
Y13500D01*
X23250Y11100D02*
Y13500D01*
X22150D01*
X23250Y11100D02*
X22150D01*
X40756Y30658D02*
X39756D01*
X40256Y30158D02*
Y31158D01*
X36456Y26258D02*
Y35058D01*
X44056Y26258D02*
Y35058D01*
X36456D01*
X44056Y26258D02*
X36456D01*
X22200Y28900D02*
X21200D01*
X21700Y28400D02*
Y29400D01*
X30400Y20200D02*
Y37600D01*
X13000Y20200D02*
Y37600D01*
X30400Y20200D02*
X13000D01*
X30400Y37600D02*
X13000D01*
X52600Y19400D02*
X41200D01*
X52600Y9000D02*
X41200D01*
Y19400D01*
X52600Y9000D02*
Y19400D01*
X46900Y13700D02*
Y14700D01*
X47400Y14200D02*
X46400D01*
X45785Y30660D02*
X44835D01*
X45310Y30185D02*
Y31135D01*
X44760Y29460D02*
Y31860D01*
X45860Y29460D02*
Y31860D01*
X44760D01*
X45860Y29460D02*
X44760D01*
X57600Y32050D02*
Y38950D01*
X49600Y32050D02*
Y38950D01*
X57600Y32050D02*
X49600D01*
X57600Y38950D02*
X49600D01*
X54100Y35500D02*
X53100D01*
X53600Y35000D02*
Y36000D01*
X49400Y15100D02*
X47800D01*
X49400Y17900D02*
X47800D01*
Y15100D02*
Y17900D01*
X49400Y15100D02*
Y17900D01*
X48600Y16000D02*
Y17000D01*
X49100Y16500D02*
X48100D01*
X54100Y11025D02*
Y11975D01*
X54575Y11500D02*
X53625D01*
X55300Y12050D02*
X52900D01*
X55300Y10950D02*
X52900D01*
Y12050D01*
X55300Y10950D02*
Y12050D01*
D60*
X49800Y35500D02*
G03*
X49800Y35500I1000J0D01*
G01*
X49500Y42500D02*
G03*
X49500Y42500I1000J0D01*
G01*
X52500Y35500D02*
G03*
X52500Y35500I1000J0D01*
G01*
X38700Y19100D02*
G03*
X38700Y19100I1000J0D01*
G01*
X37100Y20700D02*
G03*
X37100Y20700I1000J0D01*
G01*
X40900Y22400D02*
G03*
X40900Y22400I1000J0D01*
G01*
X500Y39000D02*
G03*
X500Y39000I1000J0D01*
G01*
X57500Y42000D02*
G03*
X57500Y42000I1000J0D01*
G01*
X32000Y1500D02*
G03*
X32000Y1500I1000J0D01*
G01*
X31100D02*
G03*
X31100Y1500I1000J0D01*
G01*
X500Y40000D02*
G03*
X500Y40000I1000J0D01*
G01*
X57500Y43000D02*
G03*
X57500Y43000I1000J0D01*
G01*
X50800Y35000D02*
Y36000D01*
X51300Y35500D02*
X50300D01*
X50500Y42000D02*
Y43000D01*
X51000Y42500D02*
X50000D01*
X53500Y35000D02*
Y36000D01*
X54000Y35500D02*
X53000D01*
X39700Y18600D02*
Y19600D01*
X40200Y19100D02*
X39200D01*
X38100Y20200D02*
Y21200D01*
X38600Y20700D02*
X37600D01*
X41900Y21900D02*
Y22900D01*
X42400Y22400D02*
X41400D01*
X2000Y39000D02*
X1000D01*
X1500Y38500D02*
Y39500D01*
X59000Y42000D02*
X58000D01*
X58500Y41500D02*
Y42500D01*
X33500Y1500D02*
X32500D01*
X33000Y1000D02*
Y2000D01*
X32600Y1500D02*
X31600D01*
X32100Y1000D02*
Y2000D01*
X2000Y40000D02*
X1000D01*
X1500Y39500D02*
Y40500D01*
X59000Y43000D02*
X58000D01*
X58500Y42500D02*
Y43500D01*
M02*
