%FSLAX43Y43*%
%MOMM*%
G71*
G01*
G75*
%ADD10C,0.305*%
%ADD11C,1.000*%
%ADD12O,0.350X2.000*%
%ADD13R,0.700X0.900*%
%ADD14R,0.900X0.800*%
%ADD15R,0.800X0.900*%
%ADD16R,0.900X0.700*%
%ADD17O,1.800X0.300*%
%ADD18O,0.300X1.800*%
%ADD19O,0.450X2.200*%
%ADD20R,1.050X2.200*%
%ADD21R,1.000X1.050*%
%ADD22C,0.127*%
%ADD23C,4.500*%
%ADD24C,1.500*%
%ADD25C,1.300*%
%ADD26R,1.300X1.300*%
%ADD27C,0.889*%
%ADD28R,1.400X1.100*%
%ADD29R,1.400X1.200*%
%ADD30R,2.100X0.900*%
%ADD31R,2.100X3.200*%
%ADD32C,0.600*%
%ADD33C,0.250*%
%ADD34C,0.200*%
%ADD35C,0.100*%
%ADD36C,0.152*%
%ADD37C,0.152*%
%ADD38C,1.203*%
%ADD39C,2.000*%
%ADD40O,0.553X2.203*%
%ADD41R,0.903X1.103*%
%ADD42R,1.103X1.003*%
%ADD43R,1.003X1.103*%
%ADD44R,1.103X0.903*%
%ADD45O,2.003X0.503*%
%ADD46O,0.503X2.003*%
%ADD47O,0.653X2.403*%
%ADD48R,1.253X2.403*%
%ADD49R,1.203X1.253*%
%ADD50C,4.703*%
%ADD51C,1.703*%
%ADD52C,1.503*%
%ADD53R,1.503X1.503*%
%ADD54C,1.092*%
%ADD55R,1.603X1.303*%
%ADD56R,1.603X1.403*%
%ADD57R,2.303X1.103*%
%ADD58R,2.303X3.403*%
%ADD59C,0.254*%
%ADD60C,0.050*%
%ADD61C,0.169*%
D22*
X1650Y3000D02*
X4350D01*
X3000Y1650D02*
Y4350D01*
X55650Y3100D02*
X58350D01*
X57000Y1750D02*
Y4450D01*
X1650Y47000D02*
X4350D01*
X3000Y45650D02*
Y48350D01*
X55650Y47000D02*
X58350D01*
X57000Y45650D02*
Y48350D01*
X55750Y27800D02*
X56250D01*
X56000Y27550D02*
Y28050D01*
X55750Y26550D02*
X56250D01*
X56000Y26300D02*
Y26800D01*
X55750Y25300D02*
X56250D01*
X56000Y25050D02*
Y25550D01*
X55750Y24050D02*
X56250D01*
X56000Y23800D02*
Y24300D01*
X55750Y22800D02*
X56250D01*
X56000Y22550D02*
Y23050D01*
X55750Y21550D02*
X56250D01*
X56000Y21300D02*
Y21800D01*
X51000Y6950D02*
X52500D01*
X51750Y6200D02*
Y7700D01*
X33430Y6950D02*
X34930D01*
X34180Y6200D02*
Y7700D01*
X39390Y5470D02*
X40190D01*
X39790Y5070D02*
Y5870D01*
X35580Y2930D02*
X36380D01*
X35980Y2530D02*
Y3330D01*
X36850Y5470D02*
X37650D01*
X37250Y5070D02*
Y5870D01*
X38120Y2930D02*
X38920D01*
X38520Y2530D02*
Y3330D01*
X40660Y2930D02*
X41460D01*
X41060Y2530D02*
Y3330D01*
X41930Y5470D02*
X42730D01*
X42330Y5070D02*
Y5870D01*
X43200Y2930D02*
X44000D01*
X43600Y2530D02*
Y3330D01*
X44470Y5470D02*
X45270D01*
X44870Y5070D02*
Y5870D01*
X45740Y2930D02*
X46540D01*
X46140Y2530D02*
Y3330D01*
X47010Y5470D02*
X47810D01*
X47410Y5070D02*
Y5870D01*
X48280Y2930D02*
X49080D01*
X48680Y2530D02*
Y3330D01*
X49550Y5470D02*
X50350D01*
X49950Y5070D02*
Y5870D01*
X27100Y47000D02*
X27900D01*
X27500Y46600D02*
Y47400D01*
X27100Y45000D02*
X27900D01*
X27500Y44600D02*
Y45400D01*
X25100Y47000D02*
X25900D01*
X25500Y46600D02*
Y47400D01*
X25100Y45000D02*
X25900D01*
X25500Y44600D02*
Y45400D01*
X23100Y47000D02*
X23900D01*
X23500Y46600D02*
Y47400D01*
X23100Y45000D02*
X23900D01*
X23500Y44600D02*
Y45400D01*
X21100Y47000D02*
X21900D01*
X21500Y46600D02*
Y47400D01*
X21100Y45000D02*
X21900D01*
X21500Y44600D02*
Y45400D01*
X19100Y47000D02*
X19900D01*
X19500Y46600D02*
Y47400D01*
X19100Y45000D02*
X19900D01*
X19500Y44600D02*
Y45400D01*
X17100Y47000D02*
X17900D01*
X17500Y46600D02*
Y47400D01*
X17100Y45000D02*
X17900D01*
X17500Y44600D02*
Y45400D01*
X15100Y47000D02*
X15900D01*
X15500Y46600D02*
Y47400D01*
X15100Y45000D02*
X15900D01*
X15500Y44600D02*
Y45400D01*
X13100Y47000D02*
X13900D01*
X13500Y46600D02*
Y47400D01*
X13100Y45000D02*
X13900D01*
X13500Y44600D02*
Y45400D01*
X11100Y45000D02*
X11900D01*
X11500Y44600D02*
Y45400D01*
X9100Y47000D02*
X9900D01*
X9500Y46600D02*
Y47400D01*
X9100Y45000D02*
X9900D01*
X9500Y44600D02*
Y45400D01*
X11100Y47000D02*
X11900D01*
X11500Y46600D02*
Y47400D01*
X50100Y47000D02*
X50900D01*
X50500Y46600D02*
Y47400D01*
X50100Y45000D02*
X50900D01*
X50500Y44600D02*
Y45400D01*
X48100Y47000D02*
X48900D01*
X48500Y46600D02*
Y47400D01*
X48100Y45000D02*
X48900D01*
X48500Y44600D02*
Y45400D01*
X46100Y47000D02*
X46900D01*
X46500Y46600D02*
Y47400D01*
X46100Y45000D02*
X46900D01*
X46500Y44600D02*
Y45400D01*
X44100Y47000D02*
X44900D01*
X44500Y46600D02*
Y47400D01*
X44100Y45000D02*
X44900D01*
X44500Y44600D02*
Y45400D01*
X42100Y47000D02*
X42900D01*
X42500Y46600D02*
Y47400D01*
X42100Y45000D02*
X42900D01*
X42500Y44600D02*
Y45400D01*
X40100Y47000D02*
X40900D01*
X40500Y46600D02*
Y47400D01*
X40100Y45000D02*
X40900D01*
X40500Y44600D02*
Y45400D01*
X38100Y47000D02*
X38900D01*
X38500Y46600D02*
Y47400D01*
X38100Y45000D02*
X38900D01*
X38500Y44600D02*
Y45400D01*
X36100Y47000D02*
X36900D01*
X36500Y46600D02*
Y47400D01*
X36100Y45000D02*
X36900D01*
X36500Y44600D02*
Y45400D01*
X34100Y45000D02*
X34900D01*
X34500Y44600D02*
Y45400D01*
X32100Y47000D02*
X32900D01*
X32500Y46600D02*
Y47400D01*
X32100Y45000D02*
X32900D01*
X32500Y44600D02*
Y45400D01*
X34100Y47000D02*
X34900D01*
X34500Y46600D02*
Y47400D01*
X30246Y8000D02*
X30754D01*
X30500Y7746D02*
Y8254D01*
X14232Y24014D02*
X14740D01*
X14486Y23760D02*
Y24268D01*
X24246Y15000D02*
X24754D01*
X24500Y14746D02*
Y15254D01*
X8746Y27000D02*
X9254D01*
X9000Y26746D02*
Y27254D01*
X11246Y35500D02*
X11754D01*
X11500Y35246D02*
Y35754D01*
X9246Y29400D02*
X9754D01*
X9500Y29146D02*
Y29654D01*
X10246Y28500D02*
X10754D01*
X10500Y28246D02*
Y28754D01*
X16746Y25500D02*
X17254D01*
X17000Y25246D02*
Y25754D01*
X8246Y25500D02*
X8754D01*
X8500Y25246D02*
Y25754D01*
X10246Y30500D02*
X10754D01*
X10500Y30246D02*
Y30754D01*
X11246Y31500D02*
X11754D01*
X11500Y31246D02*
Y31754D01*
X12201Y32545D02*
X12709D01*
X12455Y32291D02*
Y32799D01*
X13246Y33500D02*
X13754D01*
X13500Y33246D02*
Y33754D01*
X11246Y7500D02*
X11754D01*
X11500Y7246D02*
Y7754D01*
X3246Y11500D02*
X3754D01*
X3500Y11246D02*
Y11754D01*
X6246Y22000D02*
X6754D01*
X6500Y21746D02*
Y22254D01*
X28759Y34887D02*
X29267D01*
X29013Y34633D02*
Y35141D01*
X28759Y39387D02*
X29267D01*
X29013Y39133D02*
Y39641D01*
X14246Y35500D02*
X14754D01*
X14500Y35246D02*
Y35754D01*
X6246Y33200D02*
X6754D01*
X6500Y32946D02*
Y33454D01*
X10746Y33200D02*
X11254D01*
X11000Y32946D02*
Y33454D01*
X51246Y30500D02*
X51754D01*
X51500Y30246D02*
Y30754D01*
X48980Y29390D02*
X49488D01*
X49234Y29136D02*
Y29644D01*
X47455Y29391D02*
X47963D01*
X47709Y29137D02*
Y29645D01*
X51746Y32000D02*
X52254D01*
X52000Y31746D02*
Y32254D01*
X50504Y29390D02*
X51012D01*
X50758Y29136D02*
Y29644D01*
X40852Y26850D02*
X41360D01*
X41106Y26596D02*
Y27104D01*
X34756D02*
X35264D01*
X35010Y26850D02*
Y27358D01*
X30184Y40312D02*
X30692D01*
X30438Y40058D02*
Y40566D01*
X30184Y41836D02*
X30692D01*
X30438Y41582D02*
Y42090D01*
X35518Y40820D02*
X36026D01*
X35772Y40566D02*
Y41074D01*
X34248Y40312D02*
X34756D01*
X34502Y40058D02*
Y40566D01*
X33994Y31422D02*
X34502D01*
X34248Y31168D02*
Y31676D01*
X37296Y33454D02*
X37804D01*
X37550Y33200D02*
Y33708D01*
X32546Y28400D02*
X33054D01*
X32800Y28146D02*
Y28654D01*
X43546Y32900D02*
X44054D01*
X43800Y32646D02*
Y33154D01*
X43546Y28400D02*
X44054D01*
X43800Y28146D02*
Y28654D01*
X35546Y23300D02*
X36054D01*
X35800Y23046D02*
Y23554D01*
X32546Y23400D02*
X33054D01*
X32800Y23146D02*
Y23654D01*
X16146Y14200D02*
X16654D01*
X16400Y13946D02*
Y14454D01*
X11146Y14200D02*
X11654D01*
X11400Y13946D02*
Y14454D01*
X16346Y12700D02*
X16854D01*
X16600Y12446D02*
Y12954D01*
X20746Y12700D02*
X21254D01*
X21000Y12446D02*
Y12954D01*
X10846Y12700D02*
X11354D01*
X11100Y12446D02*
Y12954D01*
X12846Y14200D02*
X13354D01*
X13100Y13946D02*
Y14454D01*
X14346Y14200D02*
X14854D01*
X14600Y13946D02*
Y14454D01*
X32546Y34400D02*
X33054D01*
X32800Y34146D02*
Y34654D01*
X40852Y31422D02*
X41360D01*
X41106Y31168D02*
Y31676D01*
X42046Y34400D02*
X42554D01*
X42300Y34146D02*
Y34654D01*
X50746Y33000D02*
X51254D01*
X51000Y32746D02*
Y33254D01*
X49746Y34000D02*
X50254D01*
X50000Y33746D02*
Y34254D01*
X49746Y35500D02*
X50254D01*
X50000Y35246D02*
Y35754D01*
X39282Y13540D02*
X39790D01*
X39536Y13286D02*
Y13794D01*
X41568Y14556D02*
X42076D01*
X41822Y14302D02*
Y14810D01*
X5246Y14500D02*
X5754D01*
X5500Y14246D02*
Y14754D01*
X4246Y15500D02*
X4754D01*
X4500Y15246D02*
Y15754D01*
X6246Y13500D02*
X6754D01*
X6500Y13246D02*
Y13754D01*
X21246Y16000D02*
X21754D01*
X21500Y15746D02*
Y16254D01*
X22746Y15500D02*
X23254D01*
X23000Y15246D02*
Y15754D01*
X23246Y20500D02*
X23754D01*
X23500Y20246D02*
Y20754D01*
X22246Y22500D02*
X22754D01*
X22500Y22246D02*
Y22754D01*
X19246Y25000D02*
X19754D01*
X19500Y24746D02*
Y25254D01*
X19246Y30000D02*
X19754D01*
X19500Y29746D02*
Y30254D01*
X20746Y30000D02*
X21254D01*
X21000Y29746D02*
Y30254D01*
X18500Y36502D02*
X19008D01*
X18754Y36248D02*
Y36756D01*
X21040Y35486D02*
X21548D01*
X21294Y35232D02*
Y35740D01*
X19770Y35994D02*
X20278D01*
X20024Y35740D02*
Y36248D01*
X23646Y33600D02*
X24154D01*
X23900Y33346D02*
Y33854D01*
X25866Y29390D02*
X26374D01*
X26120Y29136D02*
Y29644D01*
X27136Y29898D02*
X27644D01*
X27390Y29644D02*
Y30152D01*
X24596Y28882D02*
X25104D01*
X24850Y28628D02*
Y29136D01*
X26374Y31930D02*
X26882D01*
X26628Y31676D02*
Y32184D01*
X25612Y33708D02*
X26120D01*
X25866Y33454D02*
Y33962D01*
X23046Y23800D02*
X23554D01*
X23300Y23546D02*
Y24054D01*
X43746Y14500D02*
X44254D01*
X44000Y14246D02*
Y14754D01*
X29746Y3500D02*
X30254D01*
X30000Y3246D02*
Y3754D01*
X7246Y24014D02*
X7754D01*
X7500Y23760D02*
Y24268D01*
X1746Y24000D02*
X2254D01*
X2000Y23746D02*
Y24254D01*
X24846Y20500D02*
X25354D01*
X25100Y20246D02*
Y20754D01*
X23546Y27900D02*
X24054D01*
X23800Y27646D02*
Y28154D01*
X23246Y35500D02*
X23754D01*
X23500Y35246D02*
Y35754D01*
X13746Y38000D02*
X14254D01*
X14000Y37746D02*
Y38254D01*
X11746Y41500D02*
X12254D01*
X12000Y41246D02*
Y41754D01*
X12746Y40500D02*
X13254D01*
X13000Y40246D02*
Y40754D01*
X12746Y37000D02*
X13254D01*
X13000Y36746D02*
Y37254D01*
X37046Y14500D02*
X37554D01*
X37300Y14246D02*
Y14754D01*
X38246Y10000D02*
X38754D01*
X38500Y9746D02*
Y10254D01*
X3746Y29000D02*
X4254D01*
X4000Y28746D02*
Y29254D01*
X7146Y3000D02*
X7654D01*
X7400Y2746D02*
Y3254D01*
X11246Y3000D02*
X11754D01*
X11500Y2746D02*
Y3254D01*
X20846Y3000D02*
X21354D01*
X21100Y2746D02*
Y3254D01*
X32746Y12500D02*
X33254D01*
X33000Y12246D02*
Y12754D01*
X20746Y8000D02*
X21254D01*
X21000Y7746D02*
Y8254D01*
X25246Y8000D02*
X25754D01*
X25500Y7746D02*
Y8254D01*
X27746Y12500D02*
X28254D01*
X28000Y12246D02*
Y12754D01*
X52346Y12500D02*
X52854D01*
X52600Y12246D02*
Y12754D01*
X52246Y18000D02*
X52754D01*
X52500Y17746D02*
Y18254D01*
X55746Y35000D02*
X56254D01*
X56000Y34746D02*
Y35254D01*
X55746Y41000D02*
X56254D01*
X56000Y40746D02*
Y41254D01*
X6246Y42500D02*
X6754D01*
X6500Y42246D02*
Y42754D01*
X50246Y41000D02*
X50754D01*
X50500Y40746D02*
Y41254D01*
X52246Y46000D02*
X52754D01*
X52500Y45746D02*
Y46254D01*
M02*
