%FSLAX43Y43*%
%MOMM*%
G71*
G01*
G75*
G04 Layer_Color=16711935*
%ADD10C,0.305*%
%ADD11C,1.000*%
%ADD12O,0.350X2.000*%
%ADD13R,0.700X0.900*%
%ADD14R,0.900X0.800*%
%ADD15R,0.800X0.900*%
%ADD16R,0.900X0.700*%
%ADD17O,1.800X0.300*%
%ADD18O,0.300X1.800*%
%ADD19O,0.450X2.200*%
%ADD20R,1.050X2.200*%
%ADD21R,1.000X1.050*%
%ADD22C,0.127*%
%ADD23C,4.500*%
%ADD24C,1.500*%
%ADD25C,1.300*%
%ADD26R,1.300X1.300*%
%ADD27C,0.889*%
%ADD28R,1.400X1.100*%
%ADD29R,1.400X1.200*%
%ADD30R,2.100X0.900*%
%ADD31R,2.100X3.200*%
%ADD32C,0.600*%
%ADD33C,0.250*%
%ADD34C,0.200*%
%ADD35C,0.100*%
%ADD36C,0.152*%
%ADD37C,0.152*%
%ADD38C,1.203*%
%ADD39C,2.000*%
%ADD40O,0.553X2.203*%
%ADD41R,0.903X1.103*%
%ADD42R,1.103X1.003*%
%ADD43R,1.003X1.103*%
%ADD44R,1.103X0.903*%
%ADD45O,2.003X0.503*%
%ADD46O,0.503X2.003*%
%ADD47O,0.653X2.403*%
%ADD48R,1.253X2.403*%
%ADD49R,1.203X1.253*%
%ADD50C,4.703*%
%ADD51C,1.703*%
%ADD52C,1.503*%
%ADD53R,1.503X1.503*%
%ADD54C,1.092*%
%ADD55R,1.603X1.303*%
%ADD56R,1.603X1.403*%
%ADD57R,2.303X1.103*%
%ADD58R,2.303X3.403*%
%ADD59C,0.254*%
D35*
X14100Y15450D02*
G03*
X14100Y15450I500J0D01*
G01*
X42156Y29308D02*
G03*
X42156Y29308I500J0D01*
G01*
X15100Y35000D02*
G03*
X15100Y35000I500J0D01*
G01*
X42130Y15990D02*
G03*
X42130Y15990I500J0D01*
G01*
X54975Y9625D02*
Y10575D01*
X53225Y9625D02*
Y10575D01*
X54975Y9625D02*
X53225D01*
X54975Y10575D02*
X53225D01*
X20300Y11850D02*
Y16350D01*
X13700Y11850D02*
Y16350D01*
X20300Y11850D02*
X13700D01*
X20300Y16350D02*
X13700D01*
X40875Y12550D02*
Y14250D01*
X39925Y12550D02*
Y14250D01*
X40875D02*
X39925D01*
X40875Y12550D02*
X39925D01*
X44325Y15400D02*
X42875D01*
X44325Y17600D02*
X42875D01*
Y15400D02*
Y17600D01*
X44325Y15400D02*
Y17600D01*
X53675Y40475D02*
X51925D01*
X53675Y39525D02*
X51925D01*
Y40475D01*
X53675Y39525D02*
Y40475D01*
X33150Y15475D02*
X31450D01*
X33150Y14525D02*
X31450D01*
X33150D02*
Y15475D01*
X31450Y14525D02*
Y15475D01*
X33150Y16975D02*
X31450D01*
X33150Y16025D02*
X31450D01*
X33150D02*
Y16975D01*
X31450Y16025D02*
Y16975D01*
X33150Y18475D02*
X31450D01*
X33150Y17525D02*
X31450D01*
X33150D02*
Y18475D01*
X31450Y17525D02*
Y18475D01*
X41425Y12550D02*
Y14250D01*
X42375Y12550D02*
Y14250D01*
Y12550D02*
X41425D01*
X42375Y14250D02*
X41425D01*
X56675Y39525D02*
X54925D01*
X56675Y40475D02*
X54925D01*
X56675Y39525D02*
Y40475D01*
X54925Y39525D02*
Y40475D01*
X12627Y13037D02*
Y14787D01*
X11677Y13037D02*
Y14787D01*
X12627Y13037D02*
X11677D01*
X12627Y14787D02*
X11677D01*
X16895Y30039D02*
Y31789D01*
X17845Y30039D02*
Y31789D01*
Y30039D02*
X16895D01*
X17845Y31789D02*
X16895D01*
Y25467D02*
Y27217D01*
X17845Y25467D02*
Y27217D01*
Y25467D02*
X16895D01*
X17845Y27217D02*
X16895D01*
X24341Y25039D02*
X22591D01*
X24341Y24089D02*
X22591D01*
Y25039D01*
X24341Y24089D02*
Y25039D01*
X20531Y32725D02*
X18781D01*
X20531Y33675D02*
X18781D01*
X20531Y32725D02*
Y33675D01*
X18781Y32725D02*
Y33675D01*
X26481Y28261D02*
Y30011D01*
X25531Y28261D02*
Y30011D01*
X26481D02*
X25531D01*
X26481Y28261D02*
X25531D01*
X26119Y33675D02*
X24369D01*
X26119Y32725D02*
X24369D01*
Y33675D01*
X26119Y32725D02*
Y33675D01*
X26481Y24451D02*
Y26201D01*
X25531Y24451D02*
Y26201D01*
X26481D02*
X25531D01*
X26481Y24451D02*
X25531D01*
X23071Y27579D02*
X21321D01*
X23071Y26629D02*
X21321D01*
Y27579D01*
X23071Y26629D02*
Y27579D01*
X53875Y9925D02*
Y11675D01*
X52925Y9925D02*
Y11675D01*
X53875Y9925D02*
X52925D01*
X53875Y11675D02*
X52925D01*
X50875Y12625D02*
Y14375D01*
X49925Y12625D02*
Y14375D01*
X50875D02*
X49925D01*
X50875Y12625D02*
X49925D01*
X49925Y15825D02*
Y17575D01*
X50875Y15825D02*
Y17575D01*
Y15825D02*
X49925D01*
X50875Y17575D02*
X49925D01*
X46425Y15825D02*
Y17575D01*
X47375Y15825D02*
Y17575D01*
Y15825D02*
X46425D01*
X47375Y17575D02*
X46425D01*
X44925Y15825D02*
Y17575D01*
X45875Y15825D02*
Y17575D01*
Y15825D02*
X44925D01*
X45875Y17575D02*
X44925D01*
X41425Y15825D02*
Y17575D01*
X42375Y15825D02*
Y17575D01*
Y15825D02*
X41425D01*
X42375Y17575D02*
X41425D01*
X45675Y21025D02*
X43925D01*
X45675Y21975D02*
X43925D01*
Y21025D02*
Y21975D01*
X45675Y21025D02*
Y21975D01*
X40875Y9825D02*
Y11575D01*
X39925Y9825D02*
Y11575D01*
X40875Y9825D02*
X39925D01*
X40875Y11575D02*
X39925D01*
X22225Y11450D02*
Y13150D01*
X23175Y11450D02*
Y13150D01*
X22225D01*
X23175Y11450D02*
X22225D01*
X36956Y28408D02*
Y32908D01*
X43556Y28408D02*
Y32908D01*
X36956D01*
X43556Y28408D02*
X36956D01*
X28700Y21900D02*
Y35900D01*
X14700Y21900D02*
Y35900D01*
X28700Y21900D02*
X14700D01*
X28700Y35900D02*
X14700D01*
X52070Y16890D02*
X41730D01*
X52070Y11510D02*
X41730D01*
Y16890D01*
X52070Y11510D02*
Y16890D01*
X44835Y29785D02*
Y31535D01*
X45785Y29785D02*
Y31535D01*
X44835D01*
X45785Y29785D02*
X44835D01*
X55450Y32150D02*
Y38850D01*
X51750Y32150D02*
Y38850D01*
X55450Y32150D02*
X51750D01*
X55450Y38850D02*
X51750D01*
X49325Y15400D02*
X47875D01*
X49325Y17600D02*
X47875D01*
Y15400D02*
Y17600D01*
X49325Y15400D02*
Y17600D01*
X54975Y11975D02*
X53225D01*
X54975Y11025D02*
X53225D01*
Y11975D01*
X54975Y11025D02*
Y11975D01*
M02*
