%FSLAX43Y43*%
%MOMM*%
G71*
G01*
G75*
G04 Layer_Physical_Order=2*
G04 Layer_Color=16711680*
%ADD10C,0.305*%
%ADD11C,1.000*%
%ADD12O,0.350X2.000*%
%ADD13R,0.700X0.900*%
%ADD14R,0.900X0.800*%
%ADD15R,0.800X0.900*%
%ADD16R,0.900X0.700*%
%ADD17O,1.800X0.300*%
%ADD18O,0.300X1.800*%
%ADD19O,0.450X2.200*%
%ADD20R,1.050X2.200*%
%ADD21R,1.000X1.050*%
%ADD22C,0.127*%
%ADD23C,4.500*%
%ADD24C,1.500*%
%ADD25C,1.300*%
%ADD26R,1.300X1.300*%
%ADD27C,0.889*%
%ADD28R,1.400X1.100*%
%ADD29R,1.400X1.200*%
%ADD30R,2.100X0.900*%
%ADD31R,2.100X3.200*%
G36*
X3000Y50000D02*
X2540D01*
Y50000D01*
X2528Y50011D01*
X2042Y49963D01*
X1563Y49818D01*
X1122Y49582D01*
X735Y49265D01*
X418Y48878D01*
X182Y48437D01*
X37Y47958D01*
X-12Y47460D01*
X-0Y3500D01*
Y2540D01*
X-0D01*
X-11Y2528D01*
X37Y2042D01*
X182Y1563D01*
X418Y1122D01*
X735Y735D01*
X1122Y418D01*
X1563Y182D01*
X2042Y37D01*
X2540Y-12D01*
X57000Y0D01*
X57460D01*
Y0D01*
X57472Y-11D01*
X57958Y37D01*
X58437Y182D01*
X58878Y418D01*
X59265Y735D01*
X59582Y1122D01*
X59818Y1563D01*
X59963Y2042D01*
X60012Y2540D01*
X60000Y2770D01*
Y47000D01*
Y47460D01*
X60000D01*
X60011Y47472D01*
X59963Y47958D01*
X59818Y48437D01*
X59582Y48878D01*
X59265Y49265D01*
X58878Y49582D01*
X58437Y49818D01*
X57958Y49963D01*
X57460Y50012D01*
X3000Y50000D01*
D02*
G37*
%LPC*%
G36*
X40000Y18759D02*
X51500D01*
X51599Y18740D01*
X51633Y18717D01*
X51683Y18683D01*
X53683Y16683D01*
X53740Y16599D01*
X53759Y16500D01*
Y13984D01*
X53894Y13894D01*
X54015Y13713D01*
X54057Y13500D01*
X54015Y13287D01*
X53894Y13106D01*
X53713Y12985D01*
X53500Y12943D01*
X53287Y12985D01*
X53106Y13106D01*
X52985Y13287D01*
X52943Y13500D01*
X52985Y13713D01*
X53106Y13894D01*
X53241Y13984D01*
Y16393D01*
X51393Y18241D01*
X40107D01*
X38759Y16893D01*
Y16484D01*
X38894Y16394D01*
X39015Y16213D01*
X39057Y16000D01*
X39015Y15787D01*
X38894Y15606D01*
X38713Y15485D01*
X38500Y15443D01*
X38287Y15485D01*
X38106Y15606D01*
X37985Y15787D01*
X37943Y16000D01*
X37985Y16213D01*
X38106Y16394D01*
X38241Y16484D01*
Y17000D01*
X38260Y17099D01*
X38317Y17183D01*
X39817Y18683D01*
X39901Y18740D01*
X40000Y18759D01*
D02*
G37*
G36*
X39700Y19459D02*
X52000D01*
X52099Y19440D01*
X52183Y19383D01*
X54683Y16883D01*
X54740Y16799D01*
X54759Y16700D01*
Y14984D01*
X54894Y14894D01*
X55015Y14713D01*
X55057Y14500D01*
X55015Y14287D01*
X54894Y14106D01*
X54713Y13985D01*
X54500Y13943D01*
X54287Y13985D01*
X54106Y14106D01*
X53985Y14287D01*
X53943Y14500D01*
X53985Y14713D01*
X54106Y14894D01*
X54241Y14984D01*
Y16593D01*
X51893Y18941D01*
X39807D01*
X37259Y16393D01*
Y15984D01*
X37394Y15894D01*
X37515Y15713D01*
X37557Y15500D01*
X37515Y15287D01*
X37394Y15106D01*
X37213Y14985D01*
X37000Y14943D01*
X36787Y14985D01*
X36606Y15106D01*
X36485Y15287D01*
X36443Y15500D01*
X36485Y15713D01*
X36606Y15894D01*
X36741Y15984D01*
Y16500D01*
X36760Y16599D01*
X36783Y16633D01*
X36817Y16683D01*
X39516Y19383D01*
X39601Y19440D01*
X39700Y19459D01*
D02*
G37*
G36*
X46348Y16502D02*
X47452D01*
Y16259D01*
X47798D01*
Y16402D01*
X49402D01*
Y16259D01*
X49848D01*
Y16502D01*
X50952D01*
Y15498D01*
X49848D01*
Y15741D01*
X49402D01*
Y15098D01*
X47798D01*
Y15741D01*
X47452D01*
Y15498D01*
X47159D01*
Y14684D01*
X47294Y14594D01*
X47415Y14413D01*
X47457Y14200D01*
X47415Y13987D01*
X47294Y13806D01*
X47113Y13685D01*
X46900Y13643D01*
X46687Y13685D01*
X46506Y13806D01*
X46385Y13987D01*
X46343Y14200D01*
X46385Y14413D01*
X46506Y14594D01*
X46640Y14684D01*
Y15498D01*
X46348D01*
Y16502D01*
D02*
G37*
G36*
X42646Y18054D02*
X42731Y18054D01*
X43473D01*
Y17250D01*
X43600D01*
Y17123D01*
X44554D01*
Y16446D01*
X44511D01*
X44402Y16402D01*
X44402Y16319D01*
Y15098D01*
X43859D01*
Y14684D01*
X43994Y14594D01*
X44115Y14413D01*
X44157Y14200D01*
X44115Y13987D01*
X43994Y13806D01*
X43813Y13685D01*
X43600Y13643D01*
X43387Y13685D01*
X43206Y13806D01*
X43116Y13941D01*
X42452D01*
Y13698D01*
X41348D01*
Y13891D01*
X40952D01*
Y13698D01*
X39848D01*
Y14602D01*
X40952D01*
Y14409D01*
X41348D01*
Y14602D01*
X42452D01*
Y14459D01*
X43116D01*
X43206Y14594D01*
X43340Y14684D01*
Y15098D01*
X42798D01*
Y15741D01*
X42452D01*
Y15498D01*
X41348D01*
Y16502D01*
X42452D01*
Y16259D01*
X42696D01*
X42724Y16295D01*
X42691Y16437D01*
X42683Y16446D01*
X42646D01*
Y16636D01*
X42604Y16746D01*
X42519Y16746D01*
X42027D01*
Y17400D01*
Y18054D01*
X42519D01*
X42562Y18054D01*
X42646Y18054D01*
D02*
G37*
G36*
X39500Y20259D02*
X52500D01*
X52599Y20240D01*
X52683Y20183D01*
X55683Y17183D01*
X55740Y17099D01*
X55759Y17000D01*
Y15984D01*
X55894Y15894D01*
X56015Y15713D01*
X56057Y15500D01*
X56015Y15287D01*
X55894Y15106D01*
X55713Y14985D01*
X55500Y14943D01*
X55287Y14985D01*
X55106Y15106D01*
X54985Y15287D01*
X54943Y15500D01*
X54985Y15713D01*
X55106Y15894D01*
X55241Y15984D01*
Y16893D01*
X52393Y19741D01*
X39607D01*
X35759Y15893D01*
Y15484D01*
X35894Y15394D01*
X36015Y15213D01*
X36057Y15000D01*
X36015Y14787D01*
X35894Y14606D01*
X35713Y14485D01*
X35500Y14443D01*
X35287Y14485D01*
X35106Y14606D01*
X34985Y14787D01*
X34943Y15000D01*
X34985Y15213D01*
X35106Y15394D01*
X35241Y15484D01*
Y16000D01*
X35260Y16099D01*
X35317Y16183D01*
X39317Y20183D01*
X39401Y20240D01*
X39500Y20259D01*
D02*
G37*
G36*
X19122Y15759D02*
X23400D01*
X23499Y15740D01*
X23583Y15683D01*
X24183Y15083D01*
X24240Y14999D01*
X24259Y14900D01*
Y3682D01*
X24772D01*
Y2178D01*
X23268D01*
Y3682D01*
X23740D01*
Y14793D01*
X23293Y15241D01*
X19229D01*
X18704Y14715D01*
X18735Y14556D01*
X18693Y14343D01*
X18572Y14162D01*
X18391Y14041D01*
X18178Y13999D01*
X17965Y14041D01*
X17784Y14162D01*
X17663Y14343D01*
X17621Y14556D01*
X17663Y14769D01*
X17784Y14950D01*
X17965Y15071D01*
X18178Y15113D01*
X18337Y15082D01*
X18939Y15683D01*
X19023Y15740D01*
X19122Y15759D01*
D02*
G37*
G36*
X15873Y15188D02*
Y14627D01*
X15312D01*
X15319Y14682D01*
X15390Y14852D01*
X15502Y14998D01*
X15648Y15110D01*
X15818Y15181D01*
X15873Y15188D01*
D02*
G37*
G36*
X16127D02*
X16182Y15181D01*
X16352Y15110D01*
X16498Y14998D01*
X16610Y14852D01*
X16681Y14682D01*
X16688Y14627D01*
X16127D01*
Y15188D01*
D02*
G37*
G36*
X43727Y18054D02*
X44554D01*
Y17377D01*
X43727D01*
Y18054D01*
D02*
G37*
G36*
X6812Y17873D02*
X7373D01*
Y17312D01*
X7318Y17319D01*
X7148Y17390D01*
X7002Y17502D01*
X6890Y17648D01*
X6819Y17818D01*
X6812Y17873D01*
D02*
G37*
G36*
X45273Y18054D02*
Y17527D01*
X44696D01*
Y18054D01*
X45273D01*
D02*
G37*
G36*
X47027D02*
X47604D01*
Y17527D01*
X47027D01*
Y18054D01*
D02*
G37*
G36*
X44696Y17273D02*
X45273D01*
Y16746D01*
X44696D01*
Y17273D01*
D02*
G37*
G36*
X47027D02*
X47604D01*
Y16746D01*
X47027D01*
Y17273D01*
D02*
G37*
G36*
X7627Y17873D02*
X8188D01*
X8181Y17818D01*
X8110Y17648D01*
X7998Y17502D01*
X7852Y17390D01*
X7682Y17319D01*
X7627Y17312D01*
Y17873D01*
D02*
G37*
G36*
X41196Y17273D02*
X41773D01*
Y16746D01*
X41196D01*
Y17273D01*
D02*
G37*
G36*
X48773Y13388D02*
Y12827D01*
X48212D01*
X48219Y12882D01*
X48290Y13052D01*
X48402Y13198D01*
X48548Y13310D01*
X48718Y13381D01*
X48773Y13388D01*
D02*
G37*
G36*
X41196Y13254D02*
X41773D01*
Y12777D01*
X41196D01*
Y13254D01*
D02*
G37*
G36*
X20591Y13413D02*
X21152D01*
X21145Y13358D01*
X21074Y13188D01*
X20962Y13042D01*
X20816Y12930D01*
X20646Y12859D01*
X20591Y12852D01*
Y13413D01*
D02*
G37*
G36*
X43527Y13388D02*
X43582Y13381D01*
X43752Y13310D01*
X43898Y13198D01*
X44010Y13052D01*
X44081Y12882D01*
X44088Y12827D01*
X43527D01*
Y13388D01*
D02*
G37*
G36*
X26873Y13188D02*
Y12627D01*
X26312D01*
X26319Y12682D01*
X26390Y12852D01*
X26502Y12998D01*
X26648Y13110D01*
X26818Y13181D01*
X26873Y13188D01*
D02*
G37*
G36*
X27127D02*
X27182Y13181D01*
X27352Y13110D01*
X27498Y12998D01*
X27610Y12852D01*
X27681Y12682D01*
X27688Y12627D01*
X27127D01*
Y13188D01*
D02*
G37*
G36*
X7273D02*
Y12627D01*
X6712D01*
X6719Y12682D01*
X6790Y12852D01*
X6902Y12998D01*
X7048Y13110D01*
X7218Y13181D01*
X7273Y13188D01*
D02*
G37*
G36*
X7527D02*
X7582Y13181D01*
X7752Y13110D01*
X7898Y12998D01*
X8010Y12852D01*
X8081Y12682D01*
X8088Y12627D01*
X7527D01*
Y13188D01*
D02*
G37*
G36*
X20337Y14228D02*
Y13667D01*
X19776D01*
X19783Y13722D01*
X19854Y13892D01*
X19966Y14038D01*
X20112Y14150D01*
X20282Y14221D01*
X20337Y14228D01*
D02*
G37*
G36*
X20591D02*
X20646Y14221D01*
X20816Y14150D01*
X20962Y14038D01*
X21074Y13892D01*
X21145Y13722D01*
X21152Y13667D01*
X20591D01*
Y14228D01*
D02*
G37*
G36*
X15312Y14373D02*
X15873D01*
Y13812D01*
X15818Y13819D01*
X15648Y13890D01*
X15502Y14002D01*
X15390Y14148D01*
X15319Y14318D01*
X15312Y14373D01*
D02*
G37*
G36*
X16127D02*
X16688D01*
X16681Y14318D01*
X16610Y14148D01*
X16498Y14002D01*
X16352Y13890D01*
X16182Y13819D01*
X16127Y13812D01*
Y14373D01*
D02*
G37*
G36*
X39000Y13257D02*
X39213Y13215D01*
X39394Y13094D01*
X39515Y12913D01*
X39516Y12909D01*
X39848D01*
Y13102D01*
X40952D01*
Y12465D01*
X41079Y12338D01*
X41196Y12387D01*
Y12523D01*
X41773D01*
Y12046D01*
X41537D01*
X41488Y11929D01*
X41657Y11759D01*
X52898D01*
Y12052D01*
X53902D01*
Y10948D01*
X53659D01*
Y10652D01*
X53902D01*
Y9548D01*
X52898D01*
Y10652D01*
X53140D01*
Y10948D01*
X52898D01*
Y11241D01*
X41550D01*
X41451Y11260D01*
X41367Y11317D01*
X40485Y12198D01*
X39848D01*
Y12391D01*
X39450D01*
X39394Y12306D01*
X39213Y12185D01*
X39000Y12143D01*
X38787Y12185D01*
X38606Y12306D01*
X38485Y12487D01*
X38443Y12700D01*
X38485Y12913D01*
X38606Y13094D01*
X38787Y13215D01*
X39000Y13257D01*
D02*
G37*
G36*
X19776Y13413D02*
X20337D01*
Y12852D01*
X20282Y12859D01*
X20112Y12930D01*
X19966Y13042D01*
X19854Y13188D01*
X19783Y13358D01*
X19776Y13413D01*
D02*
G37*
G36*
X44848Y16502D02*
X45952D01*
Y15498D01*
X45659D01*
Y14684D01*
X45794Y14594D01*
X45915Y14413D01*
X45957Y14200D01*
X45915Y13987D01*
X45794Y13806D01*
X45613Y13685D01*
X45400Y13643D01*
X45187Y13685D01*
X45006Y13806D01*
X44885Y13987D01*
X44843Y14200D01*
X44885Y14413D01*
X45006Y14594D01*
X45140Y14684D01*
Y15498D01*
X44848D01*
Y16502D01*
D02*
G37*
G36*
X50527Y13454D02*
X51104D01*
Y12927D01*
X50527D01*
Y13454D01*
D02*
G37*
G36*
X41773Y18054D02*
Y17527D01*
X41196D01*
Y18054D01*
X41773D01*
D02*
G37*
G36*
X16666Y25515D02*
X17243D01*
Y24988D01*
X16666D01*
Y25515D01*
D02*
G37*
G36*
X17497D02*
X18074D01*
Y24988D01*
X17497D01*
Y25515D01*
D02*
G37*
G36*
X25302Y25899D02*
X25879D01*
Y25372D01*
X25302D01*
Y25899D01*
D02*
G37*
G36*
X26133D02*
X26710D01*
Y25372D01*
X26133D01*
Y25899D01*
D02*
G37*
G36*
X51000Y27557D02*
X51213Y27515D01*
X51394Y27394D01*
X51515Y27213D01*
X51557Y27000D01*
X51515Y26787D01*
X51394Y26606D01*
X51213Y26485D01*
X51000Y26443D01*
X50787Y26485D01*
X50606Y26606D01*
X50516Y26741D01*
X42607D01*
X41026Y25159D01*
X41057Y25000D01*
X41015Y24787D01*
X40894Y24606D01*
X40713Y24485D01*
X40500Y24443D01*
X40287Y24485D01*
X40106Y24606D01*
X39985Y24787D01*
X39943Y25000D01*
X39985Y25213D01*
X40106Y25394D01*
X40287Y25515D01*
X40500Y25557D01*
X40659Y25526D01*
X42317Y27183D01*
X42401Y27240D01*
X42500Y27259D01*
X50516D01*
X50606Y27394D01*
X50787Y27515D01*
X51000Y27557D01*
D02*
G37*
G36*
X36573Y24488D02*
Y23927D01*
X36012D01*
X36019Y23982D01*
X36090Y24152D01*
X36202Y24298D01*
X36348Y24410D01*
X36518Y24481D01*
X36573Y24488D01*
D02*
G37*
G36*
X22112Y25268D02*
X22639D01*
Y24691D01*
X22112D01*
Y25268D01*
D02*
G37*
G36*
X22893D02*
X23420D01*
Y24691D01*
X22893D01*
Y25268D01*
D02*
G37*
G36*
X18206Y26723D02*
X18767D01*
Y26162D01*
X18712Y26169D01*
X18542Y26240D01*
X18396Y26352D01*
X18284Y26498D01*
X18213Y26668D01*
X18206Y26723D01*
D02*
G37*
G36*
X19021D02*
X19582D01*
X19575Y26668D01*
X19504Y26498D01*
X19392Y26352D01*
X19246Y26240D01*
X19076Y26169D01*
X19021Y26162D01*
Y26723D01*
D02*
G37*
G36*
X22242Y26977D02*
X22769D01*
Y26400D01*
X22242D01*
Y26977D01*
D02*
G37*
G36*
X23023D02*
X23550D01*
Y26400D01*
X23023D01*
Y26977D01*
D02*
G37*
G36*
X17497Y26296D02*
X18074D01*
Y25769D01*
X17497D01*
Y26296D01*
D02*
G37*
G36*
X43000Y26057D02*
X43213Y26015D01*
X43394Y25894D01*
X43484Y25759D01*
X51016D01*
X51106Y25894D01*
X51287Y26015D01*
X51500Y26057D01*
X51713Y26015D01*
X51894Y25894D01*
X52015Y25713D01*
X52057Y25500D01*
X52015Y25287D01*
X51894Y25106D01*
X51713Y24985D01*
X51500Y24943D01*
X51287Y24985D01*
X51106Y25106D01*
X51016Y25241D01*
X43484D01*
X43394Y25106D01*
X43213Y24985D01*
X43000Y24943D01*
X42787Y24985D01*
X42606Y25106D01*
X42485Y25287D01*
X42443Y25500D01*
X42485Y25713D01*
X42606Y25894D01*
X42787Y26015D01*
X43000Y26057D01*
D02*
G37*
G36*
X26133Y26680D02*
X26710D01*
Y26153D01*
X26133D01*
Y26680D01*
D02*
G37*
G36*
X16666Y26296D02*
X17243D01*
Y25769D01*
X16666D01*
Y26296D01*
D02*
G37*
G36*
X3256Y21423D02*
X3873D01*
Y20806D01*
X3803Y20815D01*
X3620Y20891D01*
X3462Y21012D01*
X3341Y21170D01*
X3265Y21353D01*
X3256Y21423D01*
D02*
G37*
G36*
X4127D02*
X4744D01*
X4735Y21353D01*
X4659Y21170D01*
X4538Y21012D01*
X4380Y20891D01*
X4197Y20815D01*
X4127Y20806D01*
Y21423D01*
D02*
G37*
G36*
X52812Y21873D02*
X53373D01*
Y21312D01*
X53318Y21319D01*
X53148Y21390D01*
X53002Y21502D01*
X52890Y21648D01*
X52819Y21818D01*
X52812Y21873D01*
D02*
G37*
G36*
X53627D02*
X54188D01*
X54181Y21818D01*
X54110Y21648D01*
X53998Y21502D01*
X53852Y21390D01*
X53682Y21319D01*
X53627Y21312D01*
Y21873D01*
D02*
G37*
G36*
X46104Y18054D02*
X46150D01*
X46196D01*
X46231Y18054D01*
X46773D01*
Y17400D01*
Y16746D01*
X46231D01*
X46196Y16746D01*
X46150D01*
X46104D01*
X46069Y16746D01*
X45527D01*
Y17400D01*
Y18054D01*
X46069D01*
X46104Y18054D01*
D02*
G37*
G36*
X47798Y17902D02*
X49402D01*
Y17659D01*
X49848D01*
Y17902D01*
X50952D01*
Y17659D01*
X51100D01*
X51199Y17640D01*
X51283Y17583D01*
X51789Y17077D01*
X51846Y16993D01*
X51865Y16894D01*
Y14606D01*
X51846Y14507D01*
X51789Y14423D01*
X51383Y14017D01*
X51333Y13983D01*
X51299Y13960D01*
X51200Y13941D01*
X50952D01*
Y13698D01*
X49848D01*
Y13941D01*
X49084D01*
X48994Y13806D01*
X48813Y13685D01*
X48600Y13643D01*
X48387Y13685D01*
X48206Y13806D01*
X48085Y13987D01*
X48043Y14200D01*
X48085Y14413D01*
X48206Y14594D01*
X48387Y14715D01*
X48600Y14757D01*
X48813Y14715D01*
X48994Y14594D01*
X49084Y14459D01*
X49848D01*
Y14702D01*
X50952D01*
Y14459D01*
X51092D01*
X51347Y14713D01*
Y16787D01*
X51079Y17054D01*
X50952Y17001D01*
Y16898D01*
X49848D01*
Y17141D01*
X49402D01*
Y16598D01*
X47798D01*
Y17902D01*
D02*
G37*
G36*
X7373Y18688D02*
Y18127D01*
X6812D01*
X6819Y18182D01*
X6890Y18352D01*
X7002Y18498D01*
X7148Y18610D01*
X7318Y18681D01*
X7373Y18688D01*
D02*
G37*
G36*
X7627D02*
X7682Y18681D01*
X7852Y18610D01*
X7998Y18498D01*
X8110Y18352D01*
X8181Y18182D01*
X8188Y18127D01*
X7627D01*
Y18688D01*
D02*
G37*
G36*
X22893Y24437D02*
X23420D01*
Y23860D01*
X22893D01*
Y24437D01*
D02*
G37*
G36*
X36012Y23673D02*
X36573D01*
Y23112D01*
X36518Y23119D01*
X36348Y23190D01*
X36202Y23302D01*
X36090Y23448D01*
X36019Y23618D01*
X36012Y23673D01*
D02*
G37*
G36*
X36827Y24488D02*
X36882Y24481D01*
X37052Y24410D01*
X37198Y24298D01*
X37310Y24152D01*
X37381Y23982D01*
X37388Y23927D01*
X36827D01*
Y24488D01*
D02*
G37*
G36*
X22112Y24437D02*
X22639D01*
Y23860D01*
X22112D01*
Y24437D01*
D02*
G37*
G36*
X53627Y22688D02*
X53682Y22681D01*
X53852Y22610D01*
X53998Y22498D01*
X54110Y22352D01*
X54181Y22182D01*
X54188Y22127D01*
X53627D01*
Y22688D01*
D02*
G37*
G36*
X4000Y28414D02*
X4235Y28367D01*
X4434Y28234D01*
X4567Y28035D01*
X4614Y27800D01*
X4567Y27565D01*
X4434Y27366D01*
X4251Y27243D01*
X4242Y27175D01*
X4251Y27107D01*
X4434Y26984D01*
X4567Y26785D01*
X4572Y26759D01*
X6400D01*
X6499Y26740D01*
X6533Y26717D01*
X6583Y26683D01*
X11607Y21659D01*
X36300D01*
X36317Y21683D01*
X36974Y22341D01*
X36943Y22500D01*
X36985Y22713D01*
X37106Y22894D01*
X37287Y23015D01*
X37500Y23057D01*
X37713Y23015D01*
X37894Y22894D01*
X38015Y22713D01*
X38057Y22500D01*
X38015Y22287D01*
X37894Y22106D01*
X37713Y21985D01*
X37500Y21943D01*
X37341Y21974D01*
X36758Y21391D01*
X36740Y21301D01*
X36683Y21217D01*
X36607Y21165D01*
X36603Y21133D01*
X36616Y21034D01*
X36713Y21015D01*
X36894Y20894D01*
X37015Y20713D01*
X37057Y20500D01*
X37015Y20287D01*
X36894Y20106D01*
X36713Y19985D01*
X36500Y19943D01*
X36341Y19974D01*
X35683Y19317D01*
X35599Y19260D01*
X35500Y19241D01*
X10800D01*
X10701Y19260D01*
X10617Y19317D01*
X7392Y22541D01*
X4551D01*
X4434Y22366D01*
X4380Y22330D01*
X4402Y22192D01*
X4538Y22088D01*
X4659Y21930D01*
X4735Y21747D01*
X4744Y21677D01*
X3256D01*
X3265Y21747D01*
X3341Y21930D01*
X3462Y22088D01*
X3598Y22192D01*
X3620Y22330D01*
X3566Y22366D01*
X3433Y22565D01*
X3386Y22800D01*
X3433Y23035D01*
X3566Y23234D01*
X3749Y23357D01*
X3758Y23425D01*
X3749Y23493D01*
X3566Y23616D01*
X3433Y23815D01*
X3386Y24050D01*
X3433Y24285D01*
X3566Y24484D01*
X3749Y24607D01*
X3758Y24675D01*
X3749Y24743D01*
X3566Y24866D01*
X3433Y25065D01*
X3386Y25300D01*
X3433Y25535D01*
X3566Y25734D01*
X3749Y25857D01*
X3758Y25925D01*
X3749Y25993D01*
X3566Y26116D01*
X3433Y26315D01*
X3386Y26550D01*
X3433Y26785D01*
X3566Y26984D01*
X3749Y27107D01*
X3758Y27175D01*
X3749Y27243D01*
X3566Y27366D01*
X3433Y27565D01*
X3386Y27800D01*
X3433Y28035D01*
X3566Y28234D01*
X3765Y28367D01*
X4000Y28414D01*
D02*
G37*
G36*
X36827Y23673D02*
X37388D01*
X37381Y23618D01*
X37310Y23448D01*
X37198Y23302D01*
X37052Y23190D01*
X36882Y23119D01*
X36827Y23112D01*
Y23673D01*
D02*
G37*
G36*
X53373Y22688D02*
Y22127D01*
X52812D01*
X52819Y22182D01*
X52890Y22352D01*
X53002Y22498D01*
X53148Y22610D01*
X53318Y22681D01*
X53373Y22688D01*
D02*
G37*
G36*
X9155Y5343D02*
X9923D01*
Y4575D01*
X9814Y4589D01*
X9594Y4680D01*
X9405Y4825D01*
X9260Y5014D01*
X9169Y5234D01*
X9155Y5343D01*
D02*
G37*
G36*
X10177D02*
X10945D01*
X10931Y5234D01*
X10840Y5014D01*
X10695Y4825D01*
X10506Y4680D01*
X10286Y4589D01*
X10177Y4575D01*
Y5343D01*
D02*
G37*
G36*
X22700Y15057D02*
X22913Y15015D01*
X23094Y14894D01*
X23215Y14713D01*
X23257Y14500D01*
X23215Y14287D01*
X23094Y14106D01*
X22959Y14016D01*
Y7960D01*
X22940Y7861D01*
X22883Y7777D01*
X20893Y5786D01*
X20943Y5666D01*
X20968Y5470D01*
X20943Y5274D01*
X20867Y5091D01*
X20746Y4934D01*
X20589Y4813D01*
X20406Y4737D01*
X20210Y4712D01*
X20014Y4737D01*
X19831Y4813D01*
X19674Y4934D01*
X19553Y5091D01*
X19477Y5274D01*
X19451Y5470D01*
X19477Y5666D01*
X19553Y5849D01*
X19674Y6006D01*
X19831Y6127D01*
X20014Y6203D01*
X20210Y6228D01*
X20406Y6203D01*
X20526Y6153D01*
X22441Y8067D01*
Y14016D01*
X22306Y14106D01*
X22185Y14287D01*
X22143Y14500D01*
X22185Y14713D01*
X22306Y14894D01*
X22487Y15015D01*
X22700Y15057D01*
D02*
G37*
G36*
X22750Y6228D02*
X22946Y6203D01*
X23129Y6127D01*
X23286Y6006D01*
X23407Y5849D01*
X23483Y5666D01*
X23508Y5470D01*
X23483Y5274D01*
X23407Y5091D01*
X23286Y4934D01*
X23129Y4813D01*
X22946Y4737D01*
X22750Y4712D01*
X22554Y4737D01*
X22371Y4813D01*
X22214Y4934D01*
X22093Y5091D01*
X22017Y5274D01*
X21992Y5470D01*
X22017Y5666D01*
X22093Y5849D01*
X22214Y6006D01*
X22371Y6127D01*
X22554Y6203D01*
X22750Y6228D01*
D02*
G37*
G36*
X48373Y3688D02*
Y3127D01*
X47812D01*
X47819Y3182D01*
X47890Y3352D01*
X48002Y3498D01*
X48148Y3610D01*
X48318Y3681D01*
X48373Y3688D01*
D02*
G37*
G36*
X48627D02*
X48682Y3681D01*
X48852Y3610D01*
X48998Y3498D01*
X49110Y3352D01*
X49181Y3182D01*
X49188Y3127D01*
X48627D01*
Y3688D01*
D02*
G37*
G36*
X38773D02*
Y3127D01*
X38212D01*
X38219Y3182D01*
X38290Y3352D01*
X38402Y3498D01*
X38548Y3610D01*
X38718Y3681D01*
X38773Y3688D01*
D02*
G37*
G36*
X39027D02*
X39082Y3681D01*
X39252Y3610D01*
X39398Y3498D01*
X39510Y3352D01*
X39581Y3182D01*
X39588Y3127D01*
X39027D01*
Y3688D01*
D02*
G37*
G36*
X39127Y7873D02*
X39688D01*
X39681Y7818D01*
X39610Y7648D01*
X39498Y7502D01*
X39352Y7390D01*
X39182Y7319D01*
X39127Y7312D01*
Y7873D01*
D02*
G37*
G36*
X8250Y7809D02*
X8472Y7780D01*
X8680Y7694D01*
X8858Y7558D01*
X8994Y7380D01*
X9080Y7172D01*
X9109Y6950D01*
X9080Y6728D01*
X8994Y6520D01*
X8858Y6342D01*
X8680Y6206D01*
X8472Y6120D01*
X8250Y6091D01*
X8028Y6120D01*
X7820Y6206D01*
X7642Y6342D01*
X7506Y6520D01*
X7420Y6728D01*
X7391Y6950D01*
X7420Y7172D01*
X7506Y7380D01*
X7642Y7558D01*
X7820Y7694D01*
X8028Y7780D01*
X8250Y7809D01*
D02*
G37*
G36*
X34627Y7873D02*
X35188D01*
X35181Y7818D01*
X35110Y7648D01*
X34998Y7502D01*
X34852Y7390D01*
X34682Y7319D01*
X34627Y7312D01*
Y7873D01*
D02*
G37*
G36*
X38312D02*
X38873D01*
Y7312D01*
X38818Y7319D01*
X38648Y7390D01*
X38502Y7502D01*
X38390Y7648D01*
X38319Y7818D01*
X38312Y7873D01*
D02*
G37*
G36*
X10177Y6365D02*
X10286Y6351D01*
X10506Y6260D01*
X10695Y6115D01*
X10840Y5926D01*
X10931Y5706D01*
X10945Y5597D01*
X10177D01*
Y6365D01*
D02*
G37*
G36*
X17670Y6228D02*
X17866Y6203D01*
X18049Y6127D01*
X18206Y6006D01*
X18327Y5849D01*
X18403Y5666D01*
X18428Y5470D01*
X18403Y5274D01*
X18327Y5091D01*
X18206Y4934D01*
X18049Y4813D01*
X17866Y4737D01*
X17670Y4712D01*
X17474Y4737D01*
X17291Y4813D01*
X17134Y4934D01*
X17013Y5091D01*
X16937Y5274D01*
X16912Y5470D01*
X16937Y5666D01*
X17013Y5849D01*
X17134Y6006D01*
X17291Y6127D01*
X17474Y6203D01*
X17670Y6228D01*
D02*
G37*
G36*
X25820Y7809D02*
X26042Y7780D01*
X26250Y7694D01*
X26428Y7558D01*
X26564Y7380D01*
X26650Y7172D01*
X26679Y6950D01*
X26650Y6728D01*
X26564Y6520D01*
X26428Y6342D01*
X26250Y6206D01*
X26042Y6120D01*
X25820Y6091D01*
X25598Y6120D01*
X25390Y6206D01*
X25212Y6342D01*
X25076Y6520D01*
X24990Y6728D01*
X24961Y6950D01*
X24990Y7172D01*
X25076Y7380D01*
X25212Y7558D01*
X25390Y7694D01*
X25598Y7780D01*
X25820Y7809D01*
D02*
G37*
G36*
X9923Y6365D02*
Y5597D01*
X9155D01*
X9169Y5706D01*
X9260Y5926D01*
X9405Y6115D01*
X9594Y6260D01*
X9814Y6351D01*
X9923Y6365D01*
D02*
G37*
G36*
X58000Y24557D02*
X58213Y24515D01*
X58394Y24394D01*
X58515Y24213D01*
X58557Y24000D01*
X58515Y23787D01*
X58394Y23606D01*
X58259Y23516D01*
Y10000D01*
X58240Y9901D01*
X58183Y9817D01*
X53683Y5317D01*
X53599Y5260D01*
X53500Y5241D01*
X33607D01*
X29883Y1517D01*
X29833Y1483D01*
X29799Y1460D01*
X29700Y1441D01*
X15090D01*
X14991Y1460D01*
X14907Y1517D01*
X14176Y2247D01*
X14056Y2197D01*
X13860Y2172D01*
X13664Y2197D01*
X13481Y2273D01*
X13324Y2394D01*
X13203Y2551D01*
X13127Y2734D01*
X13101Y2930D01*
X13127Y3126D01*
X13203Y3309D01*
X13324Y3466D01*
X13481Y3587D01*
X13664Y3663D01*
X13860Y3688D01*
X14056Y3663D01*
X14239Y3587D01*
X14396Y3466D01*
X14517Y3309D01*
X14593Y3126D01*
X14618Y2930D01*
X14593Y2734D01*
X14543Y2614D01*
X15197Y1959D01*
X16049D01*
X16074Y2086D01*
X15944Y2140D01*
X15755Y2285D01*
X15610Y2474D01*
X15519Y2694D01*
X15505Y2803D01*
X17295D01*
X17281Y2694D01*
X17190Y2474D01*
X17045Y2285D01*
X16856Y2140D01*
X16726Y2086D01*
X16751Y1959D01*
X29593D01*
X33317Y5683D01*
X33401Y5740D01*
X33500Y5759D01*
X53393D01*
X57741Y10107D01*
Y23516D01*
X57606Y23606D01*
X57485Y23787D01*
X57443Y24000D01*
X57485Y24213D01*
X57606Y24394D01*
X57787Y24515D01*
X58000Y24557D01*
D02*
G37*
G36*
X18940Y3688D02*
X19136Y3663D01*
X19319Y3587D01*
X19476Y3466D01*
X19597Y3309D01*
X19673Y3126D01*
X19698Y2930D01*
X19673Y2734D01*
X19597Y2551D01*
X19476Y2394D01*
X19319Y2273D01*
X19136Y2197D01*
X18940Y2172D01*
X18744Y2197D01*
X18561Y2273D01*
X18404Y2394D01*
X18283Y2551D01*
X18207Y2734D01*
X18181Y2930D01*
X18207Y3126D01*
X18283Y3309D01*
X18404Y3466D01*
X18561Y3587D01*
X18744Y3663D01*
X18940Y3688D01*
D02*
G37*
G36*
X51912Y2873D02*
X52473D01*
Y2312D01*
X52418Y2319D01*
X52248Y2390D01*
X52102Y2502D01*
X51990Y2648D01*
X51919Y2818D01*
X51912Y2873D01*
D02*
G37*
G36*
X52727D02*
X53288D01*
X53281Y2818D01*
X53210Y2648D01*
X53098Y2502D01*
X52952Y2390D01*
X52782Y2319D01*
X52727Y2312D01*
Y2873D01*
D02*
G37*
G36*
X57000Y5363D02*
X57461Y5318D01*
X57904Y5183D01*
X58313Y4965D01*
X58671Y4671D01*
X58965Y4313D01*
X59183Y3904D01*
X59318Y3461D01*
X59363Y3000D01*
X59318Y2539D01*
X59183Y2096D01*
X58965Y1687D01*
X58671Y1329D01*
X58313Y1035D01*
X57904Y817D01*
X57461Y682D01*
X57000Y637D01*
X56539Y682D01*
X56096Y817D01*
X55687Y1035D01*
X55329Y1329D01*
X55035Y1687D01*
X54817Y2096D01*
X54682Y2539D01*
X54637Y3000D01*
X54682Y3461D01*
X54817Y3904D01*
X55035Y4313D01*
X55329Y4671D01*
X55687Y4965D01*
X56096Y5183D01*
X56539Y5318D01*
X57000Y5363D01*
D02*
G37*
G36*
X33000Y2624D02*
X33291Y2586D01*
X33562Y2474D01*
X33795Y2295D01*
X33973Y2062D01*
X34086Y1791D01*
X34124Y1500D01*
X34086Y1209D01*
X33973Y938D01*
X33795Y705D01*
X33562Y526D01*
X33291Y414D01*
X33000Y376D01*
X32709Y414D01*
X32438Y526D01*
X32205Y705D01*
X32026Y938D01*
X31914Y1209D01*
X31876Y1500D01*
X31914Y1791D01*
X32026Y2062D01*
X32205Y2295D01*
X32438Y2474D01*
X32709Y2586D01*
X33000Y2624D01*
D02*
G37*
G36*
X21480Y3688D02*
X21676Y3663D01*
X21859Y3587D01*
X22016Y3466D01*
X22137Y3309D01*
X22213Y3126D01*
X22238Y2930D01*
X22213Y2734D01*
X22137Y2551D01*
X22016Y2394D01*
X21859Y2273D01*
X21676Y2197D01*
X21480Y2172D01*
X21284Y2197D01*
X21101Y2273D01*
X20944Y2394D01*
X20823Y2551D01*
X20747Y2734D01*
X20722Y2930D01*
X20747Y3126D01*
X20823Y3309D01*
X20944Y3466D01*
X21101Y3587D01*
X21284Y3663D01*
X21480Y3688D01*
D02*
G37*
G36*
X3000Y5463D02*
X3461Y5418D01*
X3904Y5283D01*
X4313Y5065D01*
X4671Y4771D01*
X4965Y4413D01*
X5183Y4004D01*
X5318Y3561D01*
X5363Y3100D01*
X5318Y2639D01*
X5183Y2196D01*
X4965Y1787D01*
X4671Y1429D01*
X4313Y1135D01*
X3904Y917D01*
X3461Y782D01*
X3000Y737D01*
X2539Y782D01*
X2096Y917D01*
X1687Y1135D01*
X1329Y1429D01*
X1035Y1787D01*
X817Y2196D01*
X682Y2639D01*
X637Y3100D01*
X682Y3561D01*
X817Y4004D01*
X1035Y4413D01*
X1329Y4771D01*
X1687Y5065D01*
X2096Y5283D01*
X2539Y5418D01*
X3000Y5463D01*
D02*
G37*
G36*
X16273Y3825D02*
Y3057D01*
X15505D01*
X15519Y3166D01*
X15610Y3386D01*
X15755Y3575D01*
X15944Y3720D01*
X16164Y3811D01*
X16273Y3825D01*
D02*
G37*
G36*
X16527D02*
X16636Y3811D01*
X16856Y3720D01*
X17045Y3575D01*
X17190Y3386D01*
X17281Y3166D01*
X17295Y3057D01*
X16527D01*
Y3825D01*
D02*
G37*
G36*
X52473Y3688D02*
Y3127D01*
X51912D01*
X51919Y3182D01*
X51990Y3352D01*
X52102Y3498D01*
X52248Y3610D01*
X52418Y3681D01*
X52473Y3688D01*
D02*
G37*
G36*
X52727D02*
X52782Y3681D01*
X52952Y3610D01*
X53098Y3498D01*
X53210Y3352D01*
X53281Y3182D01*
X53288Y3127D01*
X52727D01*
Y3688D01*
D02*
G37*
G36*
X47812Y2873D02*
X48373D01*
Y2312D01*
X48318Y2319D01*
X48148Y2390D01*
X48002Y2502D01*
X47890Y2648D01*
X47819Y2818D01*
X47812Y2873D01*
D02*
G37*
G36*
X48627D02*
X49188D01*
X49181Y2818D01*
X49110Y2648D01*
X48998Y2502D01*
X48852Y2390D01*
X48682Y2319D01*
X48627Y2312D01*
Y2873D01*
D02*
G37*
G36*
X38212D02*
X38773D01*
Y2312D01*
X38718Y2319D01*
X38548Y2390D01*
X38402Y2502D01*
X38290Y2648D01*
X38219Y2818D01*
X38212Y2873D01*
D02*
G37*
G36*
X39027D02*
X39588D01*
X39581Y2818D01*
X39510Y2648D01*
X39398Y2502D01*
X39252Y2390D01*
X39082Y2319D01*
X39027Y2312D01*
Y2873D01*
D02*
G37*
G36*
X33812Y7873D02*
X34373D01*
Y7312D01*
X34318Y7319D01*
X34148Y7390D01*
X34002Y7502D01*
X33890Y7648D01*
X33819Y7818D01*
X33812Y7873D01*
D02*
G37*
G36*
X27127Y12373D02*
X27688D01*
X27681Y12318D01*
X27610Y12148D01*
X27498Y12002D01*
X27352Y11890D01*
X27182Y11819D01*
X27127Y11812D01*
Y12373D01*
D02*
G37*
G36*
X31312D02*
X31873D01*
Y11812D01*
X31818Y11819D01*
X31648Y11890D01*
X31502Y12002D01*
X31390Y12148D01*
X31319Y12318D01*
X31312Y12373D01*
D02*
G37*
G36*
X7527D02*
X8088D01*
X8081Y12318D01*
X8010Y12148D01*
X7898Y12002D01*
X7752Y11890D01*
X7582Y11819D01*
X7527Y11812D01*
Y12373D01*
D02*
G37*
G36*
X26312D02*
X26873D01*
Y11812D01*
X26818Y11819D01*
X26648Y11890D01*
X26502Y12002D01*
X26390Y12148D01*
X26319Y12318D01*
X26312Y12373D01*
D02*
G37*
G36*
X54927Y10804D02*
X55454D01*
Y10227D01*
X54927D01*
Y10804D01*
D02*
G37*
G36*
X21373Y10688D02*
Y10127D01*
X20812D01*
X20819Y10182D01*
X20890Y10352D01*
X21002Y10498D01*
X21148Y10610D01*
X21318Y10681D01*
X21373Y10688D01*
D02*
G37*
G36*
X32127Y12373D02*
X32688D01*
X32681Y12318D01*
X32610Y12148D01*
X32498Y12002D01*
X32352Y11890D01*
X32182Y11819D01*
X32127Y11812D01*
Y12373D01*
D02*
G37*
G36*
X54146Y10804D02*
X54673D01*
Y10227D01*
X54146D01*
Y10804D01*
D02*
G37*
G36*
X50527Y12673D02*
X51104D01*
Y12146D01*
X50527D01*
Y12673D01*
D02*
G37*
G36*
X43273Y13388D02*
Y12700D01*
Y12012D01*
X43218Y12019D01*
X43048Y12090D01*
X42902Y12202D01*
X42790Y12348D01*
X42731Y12490D01*
X42604Y12465D01*
Y12046D01*
X42027D01*
Y12650D01*
Y13254D01*
X42604D01*
Y12935D01*
X42731Y12910D01*
X42790Y13052D01*
X42902Y13198D01*
X43048Y13310D01*
X43218Y13381D01*
X43273Y13388D01*
D02*
G37*
G36*
X31873Y13188D02*
Y12627D01*
X31312D01*
X31319Y12682D01*
X31390Y12852D01*
X31502Y12998D01*
X31648Y13110D01*
X31818Y13181D01*
X31873Y13188D01*
D02*
G37*
G36*
X32127D02*
X32182Y13181D01*
X32352Y13110D01*
X32498Y12998D01*
X32610Y12852D01*
X32681Y12682D01*
X32688Y12627D01*
X32127D01*
Y13188D01*
D02*
G37*
G36*
X49696Y13454D02*
X50273D01*
Y12800D01*
Y12146D01*
X49696D01*
Y12465D01*
X49569Y12490D01*
X49510Y12348D01*
X49398Y12202D01*
X49252Y12090D01*
X49082Y12019D01*
X49027Y12012D01*
Y12700D01*
Y13388D01*
X49082Y13381D01*
X49252Y13310D01*
X49398Y13198D01*
X49510Y13052D01*
X49569Y12910D01*
X49696Y12935D01*
Y13454D01*
D02*
G37*
G36*
X6712Y12373D02*
X7273D01*
Y11812D01*
X7218Y11819D01*
X7048Y11890D01*
X6902Y12002D01*
X6790Y12148D01*
X6719Y12318D01*
X6712Y12373D01*
D02*
G37*
G36*
X43527Y12573D02*
X44088D01*
X44081Y12518D01*
X44010Y12348D01*
X43898Y12202D01*
X43752Y12090D01*
X43582Y12019D01*
X43527Y12012D01*
Y12573D01*
D02*
G37*
G36*
X48212D02*
X48773D01*
Y12012D01*
X48718Y12019D01*
X48548Y12090D01*
X48402Y12202D01*
X48290Y12348D01*
X48219Y12518D01*
X48212Y12573D01*
D02*
G37*
G36*
X38873Y8688D02*
Y8127D01*
X38312D01*
X38319Y8182D01*
X38390Y8352D01*
X38502Y8498D01*
X38648Y8610D01*
X38818Y8681D01*
X38873Y8688D01*
D02*
G37*
G36*
X39127D02*
X39182Y8681D01*
X39352Y8610D01*
X39498Y8498D01*
X39610Y8352D01*
X39681Y8182D01*
X39688Y8127D01*
X39127D01*
Y8688D01*
D02*
G37*
G36*
X34373D02*
Y8127D01*
X33812D01*
X33819Y8182D01*
X33890Y8352D01*
X34002Y8498D01*
X34148Y8610D01*
X34318Y8681D01*
X34373Y8688D01*
D02*
G37*
G36*
X34627D02*
X34682Y8681D01*
X34852Y8610D01*
X34998Y8498D01*
X35110Y8352D01*
X35181Y8182D01*
X35188Y8127D01*
X34627D01*
Y8688D01*
D02*
G37*
G36*
X28812Y7873D02*
X29373D01*
Y7312D01*
X29318Y7319D01*
X29148Y7390D01*
X29002Y7502D01*
X28890Y7648D01*
X28819Y7818D01*
X28812Y7873D01*
D02*
G37*
G36*
X29627D02*
X30188D01*
X30181Y7818D01*
X30110Y7648D01*
X29998Y7502D01*
X29852Y7390D01*
X29682Y7319D01*
X29627Y7312D01*
Y7873D01*
D02*
G37*
G36*
X48373Y8188D02*
Y7627D01*
X47812D01*
X47819Y7682D01*
X47890Y7852D01*
X48002Y7998D01*
X48148Y8110D01*
X48318Y8181D01*
X48373Y8188D01*
D02*
G37*
G36*
X48627D02*
X48682Y8181D01*
X48852Y8110D01*
X48998Y7998D01*
X49110Y7852D01*
X49181Y7682D01*
X49188Y7627D01*
X48627D01*
Y8188D01*
D02*
G37*
G36*
X54927Y9973D02*
X55454D01*
Y9396D01*
X54927D01*
Y9973D01*
D02*
G37*
G36*
X20812Y9873D02*
X21373D01*
Y9312D01*
X21318Y9319D01*
X21148Y9390D01*
X21002Y9502D01*
X20890Y9648D01*
X20819Y9818D01*
X20812Y9873D01*
D02*
G37*
G36*
X21627Y10688D02*
X21682Y10681D01*
X21852Y10610D01*
X21998Y10498D01*
X22110Y10352D01*
X22181Y10182D01*
X22188Y10127D01*
X21627D01*
Y10688D01*
D02*
G37*
G36*
X54146Y9973D02*
X54673D01*
Y9396D01*
X54146D01*
Y9973D01*
D02*
G37*
G36*
X29373Y8688D02*
Y8127D01*
X28812D01*
X28819Y8182D01*
X28890Y8352D01*
X29002Y8498D01*
X29148Y8610D01*
X29318Y8681D01*
X29373Y8688D01*
D02*
G37*
G36*
X29627D02*
X29682Y8681D01*
X29852Y8610D01*
X29998Y8498D01*
X30110Y8352D01*
X30181Y8182D01*
X30188Y8127D01*
X29627D01*
Y8688D01*
D02*
G37*
G36*
X21627Y9873D02*
X22188D01*
X22181Y9818D01*
X22110Y9648D01*
X21998Y9502D01*
X21852Y9390D01*
X21682Y9319D01*
X21627Y9312D01*
Y9873D01*
D02*
G37*
G36*
X2154Y16150D02*
X3323D01*
Y15045D01*
X3373Y14939D01*
X3450Y14939D01*
X4542D01*
Y13425D01*
X5769D01*
Y8346D01*
X3450D01*
X3373Y8346D01*
X3293Y8346D01*
X3246Y8346D01*
X2154D01*
Y16150D01*
D02*
G37*
G36*
X34500Y45758D02*
X34696Y45733D01*
X34879Y45657D01*
X35036Y45536D01*
X35157Y45379D01*
X35233Y45196D01*
X35258Y45000D01*
X35233Y44804D01*
X35157Y44621D01*
X35036Y44464D01*
X34879Y44343D01*
X34696Y44267D01*
X34500Y44242D01*
X34304Y44267D01*
X34184Y44317D01*
X33383Y43517D01*
X33299Y43460D01*
X33200Y43441D01*
X29107D01*
X26811Y41145D01*
X26727Y41088D01*
X26628Y41069D01*
X24843D01*
X24754Y40979D01*
X24785Y40820D01*
X24743Y40607D01*
X24622Y40426D01*
X24441Y40305D01*
X24228Y40263D01*
X24015Y40305D01*
X23834Y40426D01*
X23713Y40607D01*
X23671Y40820D01*
X23713Y41033D01*
X23834Y41214D01*
X24015Y41335D01*
X24228Y41377D01*
X24387Y41346D01*
X24552Y41511D01*
X24637Y41568D01*
X24736Y41587D01*
X26521D01*
X28816Y43883D01*
X28901Y43940D01*
X29000Y43959D01*
X33092D01*
X33817Y44684D01*
X33767Y44804D01*
X33742Y45000D01*
X33767Y45196D01*
X33843Y45379D01*
X33964Y45536D01*
X34121Y45657D01*
X34304Y45733D01*
X34500Y45758D01*
D02*
G37*
G36*
X54446Y40704D02*
X54973D01*
Y40127D01*
X54446D01*
Y40704D01*
D02*
G37*
G36*
X4127Y40873D02*
X4688D01*
X4681Y40818D01*
X4610Y40648D01*
X4498Y40502D01*
X4352Y40390D01*
X4182Y40319D01*
X4127Y40312D01*
Y40873D01*
D02*
G37*
G36*
X8812D02*
X9373D01*
Y40312D01*
X9318Y40319D01*
X9148Y40390D01*
X9002Y40502D01*
X8890Y40648D01*
X8819Y40818D01*
X8812Y40873D01*
D02*
G37*
G36*
X53627Y40704D02*
X54154D01*
Y40127D01*
X53627D01*
Y40704D01*
D02*
G37*
G36*
X54446Y39873D02*
X54973D01*
Y39296D01*
X54446D01*
Y39873D01*
D02*
G37*
G36*
X55227Y40704D02*
X55754D01*
Y40127D01*
X55227D01*
Y40704D01*
D02*
G37*
G36*
X52846Y40704D02*
X53373D01*
Y40127D01*
X52846D01*
Y40704D01*
D02*
G37*
G36*
X53627Y42373D02*
X54188D01*
X54181Y42318D01*
X54110Y42148D01*
X53998Y42002D01*
X53852Y41890D01*
X53682Y41819D01*
X53627Y41812D01*
Y42373D01*
D02*
G37*
G36*
X3873Y41688D02*
Y41127D01*
X3312D01*
X3319Y41182D01*
X3390Y41352D01*
X3502Y41498D01*
X3648Y41610D01*
X3818Y41681D01*
X3873Y41688D01*
D02*
G37*
G36*
X36500Y45758D02*
X36696Y45733D01*
X36879Y45657D01*
X37036Y45536D01*
X37157Y45379D01*
X37233Y45196D01*
X37258Y45000D01*
X37233Y44804D01*
X37157Y44621D01*
X37036Y44464D01*
X36879Y44343D01*
X36696Y44267D01*
X36500Y44242D01*
X36304Y44267D01*
X36184Y44317D01*
X34535Y42669D01*
X34451Y42612D01*
X34352Y42593D01*
X29415D01*
X29285Y42462D01*
X29346Y42357D01*
X29354Y42352D01*
X29562Y42393D01*
X29775Y42351D01*
X29956Y42230D01*
X30046Y42095D01*
X35229D01*
X37817Y44684D01*
X37767Y44804D01*
X37742Y45000D01*
X37767Y45196D01*
X37843Y45379D01*
X37964Y45536D01*
X38121Y45657D01*
X38304Y45733D01*
X38500Y45758D01*
X38696Y45733D01*
X38879Y45657D01*
X39036Y45536D01*
X39157Y45379D01*
X39233Y45196D01*
X39258Y45000D01*
X39233Y44804D01*
X39157Y44621D01*
X39036Y44464D01*
X38879Y44343D01*
X38696Y44267D01*
X38500Y44242D01*
X38304Y44267D01*
X38184Y44317D01*
X35519Y41653D01*
X35435Y41596D01*
X35336Y41577D01*
X30046D01*
X29956Y41442D01*
X29775Y41321D01*
X29562Y41279D01*
X29349Y41321D01*
X29168Y41442D01*
X29047Y41623D01*
X29005Y41836D01*
X29046Y42043D01*
X29041Y42052D01*
X28936Y42113D01*
X26951Y40129D01*
X26867Y40072D01*
X26768Y40053D01*
X25982D01*
X25892Y39918D01*
X25711Y39797D01*
X25498Y39755D01*
X25285Y39797D01*
X25104Y39918D01*
X24983Y40099D01*
X24941Y40312D01*
X24983Y40525D01*
X25104Y40706D01*
X25285Y40827D01*
X25498Y40869D01*
X25711Y40827D01*
X25892Y40706D01*
X25982Y40571D01*
X26660D01*
X29125Y43035D01*
X29209Y43092D01*
X29308Y43111D01*
X34244D01*
X35817Y44684D01*
X35767Y44804D01*
X35742Y45000D01*
X35767Y45196D01*
X35843Y45379D01*
X35964Y45536D01*
X36121Y45657D01*
X36304Y45733D01*
X36500Y45758D01*
D02*
G37*
G36*
X52812Y42373D02*
X53373D01*
Y41812D01*
X53318Y41819D01*
X53148Y41890D01*
X53002Y42002D01*
X52890Y42148D01*
X52819Y42318D01*
X52812Y42373D01*
D02*
G37*
G36*
X58500Y43124D02*
X58791Y43086D01*
X59062Y42974D01*
X59295Y42795D01*
X59473Y42562D01*
X59586Y42291D01*
X59624Y42000D01*
X59586Y41709D01*
X59473Y41438D01*
X59295Y41205D01*
X59062Y41026D01*
X58791Y40914D01*
X58500Y40876D01*
X58209Y40914D01*
X57938Y41026D01*
X57705Y41205D01*
X57526Y41438D01*
X57414Y41709D01*
X57376Y42000D01*
X57414Y42291D01*
X57526Y42562D01*
X57705Y42795D01*
X57938Y42974D01*
X58209Y43086D01*
X58500Y43124D01*
D02*
G37*
G36*
X3312Y40873D02*
X3873D01*
Y40312D01*
X3818Y40319D01*
X3648Y40390D01*
X3502Y40502D01*
X3390Y40648D01*
X3319Y40818D01*
X3312Y40873D01*
D02*
G37*
G36*
X4127Y41688D02*
X4182Y41681D01*
X4352Y41610D01*
X4498Y41498D01*
X4610Y41352D01*
X4681Y41182D01*
X4688Y41127D01*
X4127D01*
Y41688D01*
D02*
G37*
G36*
X9373D02*
Y41127D01*
X8812D01*
X8819Y41182D01*
X8890Y41352D01*
X9002Y41498D01*
X9148Y41610D01*
X9318Y41681D01*
X9373Y41688D01*
D02*
G37*
G36*
X38706Y36043D02*
X38919Y36001D01*
X39100Y35880D01*
X39221Y35699D01*
X39263Y35486D01*
X39232Y35327D01*
X42799Y31759D01*
X48016D01*
X48106Y31894D01*
X48287Y32015D01*
X48500Y32057D01*
X48713Y32015D01*
X48894Y31894D01*
X49015Y31713D01*
X49057Y31500D01*
X49015Y31287D01*
X48894Y31106D01*
X48713Y30985D01*
X48705Y30983D01*
X48717Y30856D01*
X49081D01*
X49106Y30894D01*
X49287Y31015D01*
X49500Y31057D01*
X49713Y31015D01*
X49894Y30894D01*
X50015Y30713D01*
X50057Y30500D01*
X50015Y30287D01*
X49894Y30106D01*
X49713Y29985D01*
X49500Y29943D01*
X49287Y29985D01*
X49106Y30106D01*
X48985Y30287D01*
X48975Y30338D01*
X41903D01*
X41804Y30357D01*
X41720Y30414D01*
X38793Y33341D01*
X36584D01*
X36494Y33206D01*
X36313Y33085D01*
X36100Y33043D01*
X35887Y33085D01*
X35706Y33206D01*
X35585Y33387D01*
X35543Y33600D01*
X35585Y33813D01*
X35706Y33994D01*
X35887Y34115D01*
X36100Y34157D01*
X36313Y34115D01*
X36494Y33994D01*
X36584Y33859D01*
X38900D01*
X38999Y33840D01*
X39083Y33783D01*
X42010Y30856D01*
X48283D01*
X48295Y30983D01*
X48287Y30985D01*
X48106Y31106D01*
X48016Y31241D01*
X42692D01*
X42593Y31260D01*
X42508Y31317D01*
X38865Y34960D01*
X38706Y34929D01*
X38493Y34971D01*
X38312Y35092D01*
X38191Y35273D01*
X38149Y35486D01*
X38191Y35699D01*
X38312Y35880D01*
X38493Y36001D01*
X38706Y36043D01*
D02*
G37*
G36*
X44812Y35373D02*
X45373D01*
Y34812D01*
X45318Y34819D01*
X45148Y34890D01*
X45002Y35002D01*
X44890Y35148D01*
X44819Y35318D01*
X44812Y35373D01*
D02*
G37*
G36*
X3873Y35688D02*
Y35127D01*
X3312D01*
X3319Y35182D01*
X3390Y35352D01*
X3502Y35498D01*
X3648Y35610D01*
X3818Y35681D01*
X3873Y35688D01*
D02*
G37*
G36*
X4127D02*
X4182Y35681D01*
X4352Y35610D01*
X4498Y35498D01*
X4610Y35352D01*
X4681Y35182D01*
X4688Y35127D01*
X4127D01*
Y35688D01*
D02*
G37*
G36*
X50627Y47895D02*
X50736Y47881D01*
X50956Y47790D01*
X51145Y47645D01*
X51290Y47456D01*
X51381Y47236D01*
X51395Y47127D01*
X50627D01*
Y47895D01*
D02*
G37*
G36*
X3312Y34873D02*
X3873D01*
Y34312D01*
X3818Y34319D01*
X3648Y34390D01*
X3502Y34502D01*
X3390Y34648D01*
X3319Y34818D01*
X3312Y34873D01*
D02*
G37*
G36*
X45627Y35373D02*
X46188D01*
X46181Y35318D01*
X46110Y35148D01*
X45998Y35002D01*
X45852Y34890D01*
X45682Y34819D01*
X45627Y34812D01*
Y35373D01*
D02*
G37*
G36*
X9373Y47895D02*
Y47127D01*
X8605D01*
X8619Y47236D01*
X8710Y47456D01*
X8855Y47645D01*
X9044Y47790D01*
X9264Y47881D01*
X9373Y47895D01*
D02*
G37*
G36*
X53627Y39873D02*
X54154D01*
Y39296D01*
X53627D01*
Y39873D01*
D02*
G37*
G36*
X1500Y40124D02*
X1791Y40086D01*
X2062Y39974D01*
X2295Y39795D01*
X2474Y39562D01*
X2586Y39291D01*
X2624Y39000D01*
X2586Y38709D01*
X2474Y38438D01*
X2295Y38205D01*
X2062Y38026D01*
X1791Y37914D01*
X1500Y37876D01*
X1209Y37914D01*
X938Y38026D01*
X705Y38205D01*
X526Y38438D01*
X414Y38709D01*
X376Y39000D01*
X414Y39291D01*
X526Y39562D01*
X705Y39795D01*
X938Y39974D01*
X1209Y40086D01*
X1500Y40124D01*
D02*
G37*
G36*
X55227Y39873D02*
X55754D01*
Y39296D01*
X55227D01*
Y39873D01*
D02*
G37*
G36*
X52846Y39873D02*
X53373D01*
Y39296D01*
X52846D01*
Y39873D01*
D02*
G37*
G36*
X45627Y36188D02*
X45682Y36181D01*
X45852Y36110D01*
X45998Y35998D01*
X46110Y35852D01*
X46181Y35682D01*
X46188Y35627D01*
X45627D01*
Y36188D01*
D02*
G37*
G36*
X39976Y36551D02*
X40189Y36509D01*
X40370Y36388D01*
X40491Y36207D01*
X40533Y35994D01*
X40502Y35835D01*
X43532Y32804D01*
X47061D01*
X47151Y32939D01*
X47332Y33060D01*
X47545Y33102D01*
X47758Y33060D01*
X47939Y32939D01*
X48060Y32758D01*
X48102Y32545D01*
X48060Y32332D01*
X47939Y32151D01*
X47758Y32030D01*
X47545Y31988D01*
X47332Y32030D01*
X47151Y32151D01*
X47061Y32286D01*
X43425D01*
X43326Y32305D01*
X43242Y32362D01*
X40135Y35468D01*
X39976Y35437D01*
X39763Y35479D01*
X39582Y35600D01*
X39461Y35781D01*
X39419Y35994D01*
X39461Y36207D01*
X39582Y36388D01*
X39763Y36509D01*
X39976Y36551D01*
D02*
G37*
G36*
X41246Y37059D02*
X41459Y37017D01*
X41640Y36896D01*
X41761Y36715D01*
X41803Y36502D01*
X41772Y36343D01*
X44355Y33759D01*
X46016D01*
X46106Y33894D01*
X46287Y34015D01*
X46500Y34057D01*
X46713Y34015D01*
X46894Y33894D01*
X47015Y33713D01*
X47057Y33500D01*
X47015Y33287D01*
X46894Y33106D01*
X46713Y32985D01*
X46500Y32943D01*
X46287Y32985D01*
X46106Y33106D01*
X46016Y33241D01*
X44248D01*
X44149Y33260D01*
X44064Y33317D01*
X41405Y35976D01*
X41246Y35945D01*
X41033Y35987D01*
X40852Y36108D01*
X40731Y36289D01*
X40689Y36502D01*
X40731Y36715D01*
X40852Y36896D01*
X41033Y37017D01*
X41246Y37059D01*
D02*
G37*
G36*
X45373Y36188D02*
Y35627D01*
X44812D01*
X44819Y35682D01*
X44890Y35852D01*
X45002Y35998D01*
X45148Y36110D01*
X45318Y36181D01*
X45373Y36188D01*
D02*
G37*
G36*
X49605Y46873D02*
X50373D01*
Y46105D01*
X50264Y46119D01*
X50044Y46210D01*
X49855Y46355D01*
X49710Y46544D01*
X49619Y46764D01*
X49605Y46873D01*
D02*
G37*
G36*
X50627D02*
X51395D01*
X51381Y46764D01*
X51290Y46544D01*
X51145Y46355D01*
X50956Y46210D01*
X50736Y46119D01*
X50627Y46105D01*
Y46873D01*
D02*
G37*
G36*
X46500Y47758D02*
X46696Y47733D01*
X46879Y47657D01*
X47036Y47536D01*
X47157Y47379D01*
X47233Y47196D01*
X47258Y47000D01*
X47233Y46804D01*
X47157Y46621D01*
X47036Y46464D01*
X46879Y46343D01*
X46696Y46267D01*
X46500Y46242D01*
X46304Y46267D01*
X46121Y46343D01*
X45964Y46464D01*
X45843Y46621D01*
X45767Y46804D01*
X45742Y47000D01*
X45767Y47196D01*
X45843Y47379D01*
X45964Y47536D01*
X46121Y47657D01*
X46304Y47733D01*
X46500Y47758D01*
D02*
G37*
G36*
X48500D02*
X48696Y47733D01*
X48879Y47657D01*
X49036Y47536D01*
X49157Y47379D01*
X49233Y47196D01*
X49258Y47000D01*
X49233Y46804D01*
X49157Y46621D01*
X49036Y46464D01*
X48879Y46343D01*
X48696Y46267D01*
X48500Y46242D01*
X48304Y46267D01*
X48121Y46343D01*
X47964Y46464D01*
X47843Y46621D01*
X47767Y46804D01*
X47742Y47000D01*
X47767Y47196D01*
X47843Y47379D01*
X47964Y47536D01*
X48121Y47657D01*
X48304Y47733D01*
X48500Y47758D01*
D02*
G37*
G36*
X48373Y45895D02*
Y45127D01*
X47605D01*
X47619Y45236D01*
X47710Y45456D01*
X47855Y45645D01*
X48044Y45790D01*
X48264Y45881D01*
X48373Y45895D01*
D02*
G37*
G36*
X48627D02*
X48736Y45881D01*
X48956Y45790D01*
X49145Y45645D01*
X49290Y45456D01*
X49381Y45236D01*
X49395Y45127D01*
X48627D01*
Y45895D01*
D02*
G37*
G36*
X32373D02*
Y45127D01*
X31605D01*
X31619Y45236D01*
X31710Y45456D01*
X31855Y45645D01*
X32044Y45790D01*
X32264Y45881D01*
X32373Y45895D01*
D02*
G37*
G36*
X32627D02*
X32736Y45881D01*
X32956Y45790D01*
X33145Y45645D01*
X33290Y45456D01*
X33381Y45236D01*
X33395Y45127D01*
X32627D01*
Y45895D01*
D02*
G37*
G36*
X34500Y47758D02*
X34696Y47733D01*
X34879Y47657D01*
X35036Y47536D01*
X35157Y47379D01*
X35233Y47196D01*
X35258Y47000D01*
X35233Y46804D01*
X35157Y46621D01*
X35036Y46464D01*
X34879Y46343D01*
X34696Y46267D01*
X34500Y46242D01*
X34304Y46267D01*
X34121Y46343D01*
X33964Y46464D01*
X33843Y46621D01*
X33767Y46804D01*
X33742Y47000D01*
X33767Y47196D01*
X33843Y47379D01*
X33964Y47536D01*
X34121Y47657D01*
X34304Y47733D01*
X34500Y47758D01*
D02*
G37*
G36*
X36500D02*
X36696Y47733D01*
X36879Y47657D01*
X37036Y47536D01*
X37157Y47379D01*
X37233Y47196D01*
X37258Y47000D01*
X37233Y46804D01*
X37157Y46621D01*
X37036Y46464D01*
X36879Y46343D01*
X36696Y46267D01*
X36500Y46242D01*
X36304Y46267D01*
X36121Y46343D01*
X35964Y46464D01*
X35843Y46621D01*
X35767Y46804D01*
X35742Y47000D01*
X35767Y47196D01*
X35843Y47379D01*
X35964Y47536D01*
X36121Y47657D01*
X36304Y47733D01*
X36500Y47758D01*
D02*
G37*
G36*
X9627Y47895D02*
X9736Y47881D01*
X9956Y47790D01*
X10145Y47645D01*
X10290Y47456D01*
X10381Y47236D01*
X10395Y47127D01*
X9627D01*
Y47895D01*
D02*
G37*
G36*
X11500Y47758D02*
X11696Y47733D01*
X11879Y47657D01*
X12036Y47536D01*
X12157Y47379D01*
X12233Y47196D01*
X12258Y47000D01*
X12233Y46804D01*
X12157Y46621D01*
X12036Y46464D01*
X11936Y46386D01*
X11979Y46259D01*
X13021D01*
X13064Y46386D01*
X12964Y46464D01*
X12843Y46621D01*
X12767Y46804D01*
X12741Y47000D01*
X12767Y47196D01*
X12843Y47379D01*
X12964Y47536D01*
X13121Y47657D01*
X13304Y47733D01*
X13500Y47758D01*
X13696Y47733D01*
X13879Y47657D01*
X14036Y47536D01*
X14157Y47379D01*
X14233Y47196D01*
X14258Y47000D01*
X14233Y46804D01*
X14157Y46621D01*
X14036Y46464D01*
X13936Y46386D01*
X13979Y46259D01*
X15021D01*
X15064Y46386D01*
X14964Y46464D01*
X14843Y46621D01*
X14767Y46804D01*
X14741Y47000D01*
X14767Y47196D01*
X14843Y47379D01*
X14964Y47536D01*
X15121Y47657D01*
X15304Y47733D01*
X15500Y47758D01*
X15696Y47733D01*
X15879Y47657D01*
X16036Y47536D01*
X16157Y47379D01*
X16233Y47196D01*
X16258Y47000D01*
X16233Y46804D01*
X16157Y46621D01*
X16036Y46464D01*
X15936Y46386D01*
X15979Y46259D01*
X17021D01*
X17064Y46386D01*
X16964Y46464D01*
X16843Y46621D01*
X16767Y46804D01*
X16742Y47000D01*
X16767Y47196D01*
X16843Y47379D01*
X16964Y47536D01*
X17121Y47657D01*
X17304Y47733D01*
X17500Y47758D01*
X17696Y47733D01*
X17879Y47657D01*
X18036Y47536D01*
X18157Y47379D01*
X18233Y47196D01*
X18258Y47000D01*
X18233Y46804D01*
X18157Y46621D01*
X18036Y46464D01*
X17936Y46386D01*
X17979Y46259D01*
X19021D01*
X19064Y46386D01*
X18964Y46464D01*
X18843Y46621D01*
X18767Y46804D01*
X18742Y47000D01*
X18767Y47196D01*
X18843Y47379D01*
X18964Y47536D01*
X19121Y47657D01*
X19304Y47733D01*
X19500Y47758D01*
X19696Y47733D01*
X19879Y47657D01*
X20036Y47536D01*
X20157Y47379D01*
X20233Y47196D01*
X20258Y47000D01*
X20233Y46804D01*
X20157Y46621D01*
X20036Y46464D01*
X19936Y46386D01*
X19979Y46259D01*
X21021D01*
X21064Y46386D01*
X20964Y46464D01*
X20843Y46621D01*
X20767Y46804D01*
X20742Y47000D01*
X20767Y47196D01*
X20843Y47379D01*
X20964Y47536D01*
X21121Y47657D01*
X21304Y47733D01*
X21500Y47758D01*
X21696Y47733D01*
X21879Y47657D01*
X22036Y47536D01*
X22157Y47379D01*
X22233Y47196D01*
X22258Y47000D01*
X22233Y46804D01*
X22157Y46621D01*
X22036Y46464D01*
X21936Y46386D01*
X21979Y46259D01*
X23021D01*
X23064Y46386D01*
X22964Y46464D01*
X22843Y46621D01*
X22767Y46804D01*
X22742Y47000D01*
X22767Y47196D01*
X22843Y47379D01*
X22964Y47536D01*
X23121Y47657D01*
X23304Y47733D01*
X23500Y47758D01*
X23696Y47733D01*
X23879Y47657D01*
X24036Y47536D01*
X24157Y47379D01*
X24233Y47196D01*
X24258Y47000D01*
X24233Y46804D01*
X24157Y46621D01*
X24036Y46464D01*
X23936Y46386D01*
X23979Y46259D01*
X25021D01*
X25064Y46386D01*
X24964Y46464D01*
X24843Y46621D01*
X24767Y46804D01*
X24742Y47000D01*
X24767Y47196D01*
X24843Y47379D01*
X24964Y47536D01*
X25121Y47657D01*
X25304Y47733D01*
X25500Y47758D01*
X25696Y47733D01*
X25879Y47657D01*
X26036Y47536D01*
X26157Y47379D01*
X26233Y47196D01*
X26258Y47000D01*
X26233Y46804D01*
X26157Y46621D01*
X26036Y46464D01*
X25936Y46386D01*
X25979Y46259D01*
X26786D01*
X26831Y46386D01*
X26710Y46544D01*
X26619Y46764D01*
X26605Y46873D01*
X28395D01*
X28381Y46764D01*
X28290Y46544D01*
X28169Y46386D01*
X28213Y46259D01*
X31392D01*
X31817Y46684D01*
X31767Y46804D01*
X31742Y47000D01*
X31767Y47196D01*
X31843Y47379D01*
X31964Y47536D01*
X32121Y47657D01*
X32304Y47733D01*
X32500Y47758D01*
X32696Y47733D01*
X32879Y47657D01*
X33036Y47536D01*
X33157Y47379D01*
X33233Y47196D01*
X33258Y47000D01*
X33233Y46804D01*
X33157Y46621D01*
X33036Y46464D01*
X32879Y46343D01*
X32696Y46267D01*
X32500Y46242D01*
X32304Y46267D01*
X32184Y46317D01*
X31683Y45817D01*
X31599Y45760D01*
X31500Y45741D01*
X28404D01*
Y45127D01*
X26596D01*
Y45741D01*
X25979D01*
X25936Y45614D01*
X26036Y45536D01*
X26157Y45379D01*
X26233Y45196D01*
X26258Y45000D01*
X26233Y44804D01*
X26157Y44621D01*
X26036Y44464D01*
X25879Y44343D01*
X25696Y44267D01*
X25500Y44242D01*
X25304Y44267D01*
X25184Y44317D01*
X15759Y34893D01*
Y33500D01*
X15740Y33403D01*
X15745Y33396D01*
X15833Y33312D01*
X15987Y33415D01*
X16200Y33457D01*
X16359Y33426D01*
X17174Y34241D01*
X17143Y34400D01*
X17185Y34613D01*
X17306Y34794D01*
X17487Y34915D01*
X17700Y34957D01*
X17913Y34915D01*
X18094Y34794D01*
X18184Y34659D01*
X26716D01*
X26806Y34794D01*
X26987Y34915D01*
X27200Y34957D01*
X27413Y34915D01*
X27594Y34794D01*
X27684Y34659D01*
X28200D01*
X28299Y34640D01*
X28383Y34583D01*
X28807Y34159D01*
X31079D01*
X31135Y34231D01*
X31073Y34347D01*
X30987Y34330D01*
X30774Y34372D01*
X30593Y34493D01*
X30472Y34674D01*
X30430Y34887D01*
X30472Y35100D01*
X30593Y35281D01*
X30728Y35371D01*
Y38903D01*
X30593Y38993D01*
X30472Y39174D01*
X30430Y39387D01*
X30472Y39600D01*
X30593Y39781D01*
X30774Y39902D01*
X30893Y39926D01*
X30881Y40053D01*
X30046D01*
X29956Y39918D01*
X29775Y39797D01*
X29562Y39755D01*
X29349Y39797D01*
X29168Y39918D01*
X29047Y40099D01*
X29005Y40312D01*
X29047Y40525D01*
X29168Y40706D01*
X29349Y40827D01*
X29562Y40869D01*
X29775Y40827D01*
X29956Y40706D01*
X30046Y40571D01*
X35704D01*
X39817Y44684D01*
X39767Y44804D01*
X39742Y45000D01*
X39767Y45196D01*
X39843Y45379D01*
X39964Y45536D01*
X40121Y45657D01*
X40304Y45733D01*
X40500Y45758D01*
X40696Y45733D01*
X40879Y45657D01*
X41036Y45536D01*
X41157Y45379D01*
X41233Y45196D01*
X41258Y45000D01*
X41233Y44804D01*
X41157Y44621D01*
X41036Y44464D01*
X40879Y44343D01*
X40696Y44267D01*
X40500Y44242D01*
X40304Y44267D01*
X40184Y44317D01*
X35995Y40129D01*
X35911Y40072D01*
X35812Y40053D01*
X31093D01*
X31081Y39926D01*
X31200Y39902D01*
X31381Y39781D01*
X31502Y39600D01*
X31544Y39387D01*
X31502Y39174D01*
X31381Y38993D01*
X31246Y38903D01*
Y35371D01*
X31381Y35281D01*
X31502Y35100D01*
X31544Y34887D01*
X31520Y34767D01*
X31637Y34704D01*
X36317Y39383D01*
X36401Y39440D01*
X36500Y39459D01*
X46400D01*
X46499Y39440D01*
X46583Y39383D01*
X48683Y37283D01*
X48740Y37199D01*
X48759Y37100D01*
Y35984D01*
X48894Y35894D01*
X48984Y35759D01*
X49598D01*
Y37202D01*
X50491D01*
Y39250D01*
X50510Y39349D01*
X50567Y39433D01*
X51317Y40183D01*
X51401Y40240D01*
X51500Y40259D01*
X51598D01*
Y40552D01*
X52602D01*
Y39448D01*
X51598D01*
Y39565D01*
X51481Y39614D01*
X51009Y39143D01*
Y37202D01*
X51902D01*
Y35759D01*
X55298D01*
Y36052D01*
X57602D01*
Y34948D01*
X55298D01*
Y35241D01*
X51902D01*
Y33798D01*
X50959D01*
Y33107D01*
X52683Y31383D01*
X52740Y31299D01*
X52759Y31200D01*
Y24498D01*
X52894Y24408D01*
X53015Y24227D01*
X53057Y24014D01*
X53015Y23801D01*
X52894Y23620D01*
X52713Y23499D01*
X52500Y23457D01*
X52287Y23499D01*
X52106Y23620D01*
X52016Y23755D01*
X45998D01*
X45908Y23620D01*
X45727Y23499D01*
X45514Y23457D01*
X45301Y23499D01*
X45120Y23620D01*
X44999Y23801D01*
X44957Y24014D01*
X44999Y24227D01*
X45120Y24408D01*
X45301Y24529D01*
X45514Y24571D01*
X45727Y24529D01*
X45908Y24408D01*
X45998Y24273D01*
X52016D01*
X52106Y24408D01*
X52241Y24498D01*
Y31093D01*
X50517Y32817D01*
X50460Y32901D01*
X50440Y33000D01*
Y33798D01*
X49598D01*
Y35241D01*
X48984D01*
X48894Y35106D01*
X48713Y34985D01*
X48500Y34943D01*
X48287Y34985D01*
X48106Y35106D01*
X47985Y35287D01*
X47943Y35500D01*
X47985Y35713D01*
X48106Y35894D01*
X48241Y35984D01*
Y36993D01*
X46293Y38941D01*
X36607D01*
X35976Y38309D01*
X36057Y38211D01*
X36101Y38240D01*
X36200Y38259D01*
X45516D01*
X45606Y38394D01*
X45787Y38515D01*
X46000Y38557D01*
X46213Y38515D01*
X46394Y38394D01*
X46515Y38213D01*
X46557Y38000D01*
X46515Y37787D01*
X46394Y37606D01*
X46213Y37485D01*
X46000Y37443D01*
X45787Y37485D01*
X45606Y37606D01*
X45516Y37741D01*
X45306D01*
X45253Y37614D01*
X45607Y37259D01*
X46516D01*
X46606Y37394D01*
X46787Y37515D01*
X47000Y37557D01*
X47213Y37515D01*
X47394Y37394D01*
X47515Y37213D01*
X47557Y37000D01*
X47515Y36787D01*
X47394Y36606D01*
X47213Y36485D01*
X47000Y36443D01*
X46787Y36485D01*
X46606Y36606D01*
X46516Y36741D01*
X45500D01*
X45401Y36760D01*
X45317Y36817D01*
X44893Y37241D01*
X36807D01*
X33919Y34352D01*
X33981Y34235D01*
X34134Y34265D01*
X34347Y34223D01*
X34528Y34102D01*
X34649Y33921D01*
X34691Y33708D01*
X34649Y33495D01*
X34573Y33381D01*
X34628Y33299D01*
X34647Y33200D01*
Y29898D01*
X34628Y29799D01*
X34571Y29715D01*
X34406Y29549D01*
X34437Y29390D01*
X34395Y29177D01*
X34274Y28996D01*
X34093Y28875D01*
X33880Y28833D01*
X33667Y28875D01*
X33486Y28996D01*
X33365Y29177D01*
X33323Y29390D01*
X33365Y29603D01*
X33486Y29784D01*
X33667Y29905D01*
X33880Y29947D01*
X34039Y29916D01*
X34129Y30005D01*
Y33093D01*
X34054Y33167D01*
X33921Y33193D01*
X33740Y33314D01*
X33619Y33495D01*
X33577Y33708D01*
X33607Y33861D01*
X33490Y33923D01*
X31759Y32193D01*
Y29107D01*
X34207Y26659D01*
X37200D01*
X37299Y26640D01*
X37383Y26583D01*
X39683Y24283D01*
X39740Y24199D01*
X39759Y24100D01*
Y21000D01*
X39740Y20901D01*
X39683Y20817D01*
X36183Y17317D01*
X36099Y17260D01*
X36000Y17241D01*
X15607D01*
X14259Y15893D01*
Y5592D01*
X14386Y5584D01*
X14397Y5666D01*
X14473Y5849D01*
X14594Y6006D01*
X14751Y6127D01*
X14934Y6203D01*
X15130Y6228D01*
X15326Y6203D01*
X15509Y6127D01*
X15666Y6006D01*
X15787Y5849D01*
X15863Y5666D01*
X15888Y5470D01*
X15863Y5274D01*
X15787Y5091D01*
X15666Y4934D01*
X15509Y4813D01*
X15326Y4737D01*
X15130Y4712D01*
X14934Y4737D01*
X14751Y4813D01*
X14594Y4934D01*
X14473Y5091D01*
X14397Y5274D01*
X14386Y5356D01*
X14259Y5348D01*
Y5000D01*
X14240Y4901D01*
X14183Y4817D01*
X12113Y2747D01*
X12037Y2695D01*
X11977Y2551D01*
X11856Y2394D01*
X11699Y2273D01*
X11516Y2197D01*
X11320Y2172D01*
X11124Y2197D01*
X10941Y2273D01*
X10784Y2394D01*
X10663Y2551D01*
X10587Y2734D01*
X10561Y2930D01*
X10587Y3126D01*
X10663Y3309D01*
X10784Y3466D01*
X10941Y3587D01*
X11124Y3663D01*
X11320Y3688D01*
X11516Y3663D01*
X11699Y3587D01*
X11856Y3466D01*
X11903Y3405D01*
X12030Y3397D01*
X13741Y5107D01*
Y16000D01*
X13760Y16099D01*
X13817Y16183D01*
X15316Y17683D01*
X15401Y17740D01*
X15500Y17759D01*
X35893D01*
X39241Y21107D01*
Y23993D01*
X37092Y26141D01*
X34100D01*
X34001Y26160D01*
X33917Y26217D01*
X31317Y28817D01*
X31260Y28901D01*
X31240Y29000D01*
Y32300D01*
X31260Y32399D01*
X31317Y32483D01*
X36399Y37566D01*
X36353Y37700D01*
X36277Y37710D01*
X31059Y32493D01*
Y28807D01*
X33907Y25959D01*
X36800D01*
X36899Y25940D01*
X36983Y25883D01*
X38983Y23883D01*
X39040Y23799D01*
X39059Y23700D01*
Y21300D01*
X39040Y21201D01*
X38983Y21117D01*
X36183Y18317D01*
X36099Y18260D01*
X36000Y18241D01*
X15107D01*
X12849Y15983D01*
Y6176D01*
X12969Y6127D01*
X13126Y6006D01*
X13247Y5849D01*
X13323Y5666D01*
X13348Y5470D01*
X13323Y5274D01*
X13247Y5091D01*
X13126Y4934D01*
X12969Y4813D01*
X12786Y4737D01*
X12590Y4712D01*
X12394Y4737D01*
X12211Y4813D01*
X12054Y4934D01*
X11933Y5091D01*
X11857Y5274D01*
X11832Y5470D01*
X11857Y5666D01*
X11933Y5849D01*
X12054Y6006D01*
X12211Y6127D01*
X12330Y6176D01*
Y16090D01*
X12350Y16189D01*
X12373Y16223D01*
X12406Y16273D01*
X14817Y18683D01*
X14901Y18740D01*
X15000Y18759D01*
X35893D01*
X38541Y21407D01*
Y23593D01*
X36693Y25441D01*
X33800D01*
X33701Y25460D01*
X33617Y25517D01*
X30617Y28517D01*
X30560Y28601D01*
X30541Y28700D01*
Y32600D01*
X30560Y32699D01*
X30617Y32783D01*
X31424Y33591D01*
X31343Y33689D01*
X31299Y33660D01*
X31200Y33641D01*
X28700D01*
X28601Y33660D01*
X28517Y33717D01*
X28093Y34141D01*
X27684D01*
X27594Y34006D01*
X27459Y33916D01*
Y28884D01*
X27594Y28794D01*
X27715Y28613D01*
X27757Y28400D01*
X27715Y28187D01*
X27594Y28006D01*
X27459Y27916D01*
Y23884D01*
X27594Y23794D01*
X27715Y23613D01*
X27757Y23400D01*
X27715Y23187D01*
X27594Y23006D01*
X27413Y22885D01*
X27200Y22843D01*
X26987Y22885D01*
X26806Y23006D01*
X26716Y23141D01*
X24725D01*
X24715Y23087D01*
X24594Y22906D01*
X24413Y22785D01*
X24200Y22743D01*
X23987Y22785D01*
X23806Y22906D01*
X23716Y23041D01*
X17364D01*
X17265Y23060D01*
X17181Y23117D01*
X16017Y24281D01*
X15960Y24365D01*
X15941Y24464D01*
Y27916D01*
X15806Y28006D01*
X15685Y28187D01*
X15643Y28400D01*
X15685Y28613D01*
X15806Y28794D01*
X15987Y28915D01*
X16200Y28957D01*
X16413Y28915D01*
X16594Y28794D01*
X16715Y28613D01*
X16757Y28400D01*
X16726Y28241D01*
X17423Y27544D01*
X17922D01*
Y26540D01*
X16818D01*
Y27415D01*
X16577Y27656D01*
X16459Y27608D01*
Y24571D01*
X17471Y23559D01*
X21174D01*
Y26552D01*
X20994D01*
Y27656D01*
X21097D01*
X21150Y27783D01*
X20816Y28117D01*
X20760Y28201D01*
X20751Y28248D01*
X20198D01*
Y29652D01*
X20740D01*
Y30148D01*
X20198D01*
Y31552D01*
X21802D01*
Y30148D01*
X21259D01*
Y29652D01*
X21802D01*
Y28248D01*
X21585D01*
X21536Y28131D01*
X21683Y27983D01*
X21740Y27899D01*
X21759Y27800D01*
Y27656D01*
X21998D01*
Y26552D01*
X21693D01*
Y23559D01*
X23716D01*
X23806Y23694D01*
X23941Y23784D01*
Y24012D01*
X23664D01*
Y25116D01*
X24668D01*
Y24012D01*
X24459D01*
Y23784D01*
X24594Y23694D01*
X24617Y23659D01*
X26440D01*
X26488Y23777D01*
X26141Y24124D01*
X25454D01*
Y25128D01*
X26558D01*
Y24441D01*
X26823Y24176D01*
X26941Y24224D01*
Y27916D01*
X26806Y28006D01*
X26692Y28177D01*
X26558D01*
Y27934D01*
X25454D01*
Y28938D01*
X26558D01*
Y28695D01*
X26740D01*
X26806Y28794D01*
X26941Y28884D01*
Y33664D01*
X26823Y33712D01*
X26446Y33335D01*
Y32648D01*
X25442D01*
Y33752D01*
X26129D01*
X26400Y34023D01*
X26352Y34141D01*
X18492D01*
X18444Y34023D01*
X18715Y33752D01*
X19458D01*
Y32648D01*
X18454D01*
Y33279D01*
X17859Y33874D01*
X17700Y33843D01*
X17541Y33874D01*
X16726Y33059D01*
X16757Y32900D01*
X16726Y32741D01*
X17351Y32116D01*
X17922D01*
Y31112D01*
X16818D01*
Y31915D01*
X16359Y32374D01*
X16200Y32343D01*
X15987Y32385D01*
X15806Y32506D01*
X15685Y32687D01*
X15643Y32900D01*
X15685Y33113D01*
X15736Y33190D01*
X15638Y33271D01*
X12550Y30184D01*
Y29875D01*
X12685Y29785D01*
X12806Y29604D01*
X12848Y29391D01*
X12806Y29178D01*
X12685Y28997D01*
X12504Y28876D01*
X12291Y28834D01*
X12078Y28876D01*
X11897Y28997D01*
X11776Y29178D01*
X11734Y29391D01*
X11776Y29604D01*
X11897Y29785D01*
X12031Y29875D01*
Y30291D01*
X12051Y30390D01*
X12074Y30424D01*
X12108Y30474D01*
X15241Y33607D01*
Y35000D01*
X15260Y35099D01*
X15283Y35133D01*
X15316Y35183D01*
X24817Y44684D01*
X24767Y44804D01*
X24742Y45000D01*
X24767Y45196D01*
X24843Y45379D01*
X24964Y45536D01*
X25064Y45614D01*
X25021Y45741D01*
X23979D01*
X23936Y45614D01*
X24036Y45536D01*
X24157Y45379D01*
X24233Y45196D01*
X24258Y45000D01*
X24233Y44804D01*
X24157Y44621D01*
X24036Y44464D01*
X23879Y44343D01*
X23696Y44267D01*
X23500Y44242D01*
X23304Y44267D01*
X23184Y44317D01*
X15059Y36193D01*
Y34186D01*
X15040Y34087D01*
X14983Y34003D01*
X11025Y30045D01*
Y29874D01*
X11160Y29784D01*
X11281Y29603D01*
X11323Y29390D01*
X11281Y29177D01*
X11160Y28996D01*
X10979Y28875D01*
X10766Y28833D01*
X10553Y28875D01*
X10372Y28996D01*
X10251Y29177D01*
X10209Y29390D01*
X10251Y29603D01*
X10372Y29784D01*
X10507Y29874D01*
Y30108D01*
X10389Y30165D01*
X10384Y30165D01*
X9768Y29549D01*
X9799Y29390D01*
X9757Y29177D01*
X9636Y28996D01*
X9455Y28875D01*
X9242Y28833D01*
X9029Y28875D01*
X8848Y28996D01*
X8727Y29177D01*
X8685Y29390D01*
X8727Y29603D01*
X8848Y29784D01*
X9029Y29905D01*
X9242Y29947D01*
X9401Y29916D01*
X9599Y30114D01*
X9546Y30241D01*
X8984D01*
X8894Y30106D01*
X8713Y29985D01*
X8500Y29943D01*
X8287Y29985D01*
X8106Y30106D01*
X7985Y30287D01*
X7943Y30500D01*
X7985Y30713D01*
X8106Y30894D01*
X8287Y31015D01*
X8500Y31057D01*
X8713Y31015D01*
X8894Y30894D01*
X8984Y30759D01*
X9541D01*
X10395Y31614D01*
X10342Y31741D01*
X8484D01*
X8394Y31606D01*
X8213Y31485D01*
X8000Y31443D01*
X7787Y31485D01*
X7606Y31606D01*
X7485Y31787D01*
X7443Y32000D01*
X7485Y32213D01*
X7606Y32394D01*
X7787Y32515D01*
X8000Y32557D01*
X8213Y32515D01*
X8394Y32394D01*
X8484Y32259D01*
X10337D01*
X10691Y32614D01*
X10638Y32741D01*
X9484D01*
X9394Y32606D01*
X9213Y32485D01*
X9000Y32443D01*
X8787Y32485D01*
X8606Y32606D01*
X8485Y32787D01*
X8443Y33000D01*
X8485Y33213D01*
X8606Y33394D01*
X8787Y33515D01*
X9000Y33557D01*
X9213Y33515D01*
X9394Y33394D01*
X9484Y33259D01*
X10633D01*
X11741Y34367D01*
Y41500D01*
X11760Y41599D01*
X11816Y41683D01*
X14817Y44684D01*
X14767Y44804D01*
X14741Y45000D01*
X14767Y45196D01*
X14843Y45379D01*
X14964Y45536D01*
X15064Y45614D01*
X15021Y45741D01*
X13979D01*
X13936Y45614D01*
X14036Y45536D01*
X14157Y45379D01*
X14233Y45196D01*
X14258Y45000D01*
X14233Y44804D01*
X14157Y44621D01*
X14036Y44464D01*
X13879Y44343D01*
X13696Y44267D01*
X13500Y44242D01*
X13304Y44267D01*
X13184Y44317D01*
X11559Y42693D01*
Y35300D01*
X11540Y35201D01*
X11483Y35117D01*
X10526Y34159D01*
X10557Y34000D01*
X10515Y33787D01*
X10394Y33606D01*
X10213Y33485D01*
X10000Y33443D01*
X9787Y33485D01*
X9606Y33606D01*
X9485Y33787D01*
X9443Y34000D01*
X9485Y34213D01*
X9606Y34394D01*
X9787Y34515D01*
X10000Y34557D01*
X10159Y34526D01*
X11040Y35407D01*
Y42800D01*
X11060Y42899D01*
X11117Y42983D01*
X12817Y44684D01*
X12767Y44804D01*
X12741Y45000D01*
X12767Y45196D01*
X12843Y45379D01*
X12964Y45536D01*
X13064Y45614D01*
X13021Y45741D01*
X11979D01*
X11936Y45614D01*
X12036Y45536D01*
X12157Y45379D01*
X12233Y45196D01*
X12258Y45000D01*
X12233Y44804D01*
X12157Y44621D01*
X12036Y44464D01*
X11879Y44343D01*
X11696Y44267D01*
X11500Y44242D01*
X11304Y44267D01*
X11184Y44317D01*
X10759Y43893D01*
Y36000D01*
X10740Y35901D01*
X10683Y35817D01*
X10526Y35659D01*
X10557Y35500D01*
X10515Y35287D01*
X10394Y35106D01*
X10213Y34985D01*
X10000Y34943D01*
X9787Y34985D01*
X9606Y35106D01*
X9485Y35287D01*
X9443Y35500D01*
X9485Y35713D01*
X9606Y35894D01*
X9787Y36015D01*
X10000Y36057D01*
X10146Y36028D01*
X10241Y36112D01*
Y40631D01*
X10113Y40656D01*
X10110Y40648D01*
X9998Y40502D01*
X9852Y40390D01*
X9682Y40319D01*
X9627Y40312D01*
Y41000D01*
Y41688D01*
X9682Y41681D01*
X9852Y41610D01*
X9998Y41498D01*
X10110Y41352D01*
X10113Y41344D01*
X10241Y41369D01*
Y44000D01*
X10260Y44099D01*
X10316Y44183D01*
X10817Y44684D01*
X10767Y44804D01*
X10741Y45000D01*
X10767Y45196D01*
X10843Y45379D01*
X10964Y45536D01*
X11064Y45614D01*
X11021Y45741D01*
X10214D01*
X10169Y45614D01*
X10290Y45456D01*
X10381Y45236D01*
X10395Y45127D01*
X8605D01*
X8619Y45236D01*
X8710Y45456D01*
X8831Y45614D01*
X8786Y45741D01*
X7984D01*
X7894Y45606D01*
X7713Y45485D01*
X7500Y45443D01*
X7287Y45485D01*
X7106Y45606D01*
X6985Y45787D01*
X6943Y46000D01*
X6985Y46213D01*
X7106Y46394D01*
X7287Y46515D01*
X7500Y46557D01*
X7713Y46515D01*
X7894Y46394D01*
X7984Y46259D01*
X8786D01*
X8831Y46386D01*
X8710Y46544D01*
X8619Y46764D01*
X8605Y46873D01*
X10395D01*
X10381Y46764D01*
X10290Y46544D01*
X10169Y46386D01*
X10214Y46259D01*
X11021D01*
X11064Y46386D01*
X10964Y46464D01*
X10843Y46621D01*
X10767Y46804D01*
X10741Y47000D01*
X10767Y47196D01*
X10843Y47379D01*
X10964Y47536D01*
X11121Y47657D01*
X11304Y47733D01*
X11500Y47758D01*
D02*
G37*
G36*
X42500D02*
X42696Y47733D01*
X42879Y47657D01*
X43036Y47536D01*
X43157Y47379D01*
X43233Y47196D01*
X43258Y47000D01*
X43233Y46804D01*
X43157Y46621D01*
X43036Y46464D01*
X42879Y46343D01*
X42696Y46267D01*
X42500Y46242D01*
X42304Y46267D01*
X42121Y46343D01*
X41964Y46464D01*
X41843Y46621D01*
X41767Y46804D01*
X41742Y47000D01*
X41767Y47196D01*
X41843Y47379D01*
X41964Y47536D01*
X42121Y47657D01*
X42304Y47733D01*
X42500Y47758D01*
D02*
G37*
G36*
X44500D02*
X44696Y47733D01*
X44879Y47657D01*
X45036Y47536D01*
X45157Y47379D01*
X45233Y47196D01*
X45258Y47000D01*
X45233Y46804D01*
X45157Y46621D01*
X45036Y46464D01*
X44879Y46343D01*
X44696Y46267D01*
X44500Y46242D01*
X44304Y46267D01*
X44121Y46343D01*
X43964Y46464D01*
X43843Y46621D01*
X43767Y46804D01*
X43742Y47000D01*
X43767Y47196D01*
X43843Y47379D01*
X43964Y47536D01*
X44121Y47657D01*
X44304Y47733D01*
X44500Y47758D01*
D02*
G37*
G36*
X38500D02*
X38696Y47733D01*
X38879Y47657D01*
X39036Y47536D01*
X39157Y47379D01*
X39233Y47196D01*
X39258Y47000D01*
X39233Y46804D01*
X39157Y46621D01*
X39036Y46464D01*
X38879Y46343D01*
X38696Y46267D01*
X38500Y46242D01*
X38304Y46267D01*
X38121Y46343D01*
X37964Y46464D01*
X37843Y46621D01*
X37767Y46804D01*
X37742Y47000D01*
X37767Y47196D01*
X37843Y47379D01*
X37964Y47536D01*
X38121Y47657D01*
X38304Y47733D01*
X38500Y47758D01*
D02*
G37*
G36*
X40500D02*
X40696Y47733D01*
X40879Y47657D01*
X41036Y47536D01*
X41157Y47379D01*
X41233Y47196D01*
X41258Y47000D01*
X41233Y46804D01*
X41157Y46621D01*
X41036Y46464D01*
X40879Y46343D01*
X40696Y46267D01*
X40500Y46242D01*
X40304Y46267D01*
X40121Y46343D01*
X39964Y46464D01*
X39843Y46621D01*
X39767Y46804D01*
X39742Y47000D01*
X39767Y47196D01*
X39843Y47379D01*
X39964Y47536D01*
X40121Y47657D01*
X40304Y47733D01*
X40500Y47758D01*
D02*
G37*
G36*
X47605Y44873D02*
X48373D01*
Y44105D01*
X48264Y44119D01*
X48044Y44210D01*
X47855Y44355D01*
X47710Y44544D01*
X47619Y44764D01*
X47605Y44873D01*
D02*
G37*
G36*
X48627D02*
X49395D01*
X49381Y44764D01*
X49290Y44544D01*
X49145Y44355D01*
X48956Y44210D01*
X48736Y44119D01*
X48627Y44105D01*
Y44873D01*
D02*
G37*
G36*
X31605D02*
X32373D01*
Y44105D01*
X32264Y44119D01*
X32044Y44210D01*
X31855Y44355D01*
X31710Y44544D01*
X31619Y44764D01*
X31605Y44873D01*
D02*
G37*
G36*
X32627D02*
X33395D01*
X33381Y44764D01*
X33290Y44544D01*
X33145Y44355D01*
X32956Y44210D01*
X32736Y44119D01*
X32627Y44105D01*
Y44873D01*
D02*
G37*
G36*
X53373Y43188D02*
Y42627D01*
X52812D01*
X52819Y42682D01*
X52890Y42852D01*
X53002Y42998D01*
X53148Y43110D01*
X53318Y43181D01*
X53373Y43188D01*
D02*
G37*
G36*
X53627D02*
X53682Y43181D01*
X53852Y43110D01*
X53998Y42998D01*
X54110Y42852D01*
X54181Y42682D01*
X54188Y42627D01*
X53627D01*
Y43188D01*
D02*
G37*
G36*
X26596Y44873D02*
X27373D01*
Y44096D01*
X26596D01*
Y44873D01*
D02*
G37*
G36*
X27627D02*
X28404D01*
Y44096D01*
X27627D01*
Y44873D01*
D02*
G37*
G36*
X49748Y45752D02*
X51252D01*
Y45259D01*
X53000D01*
X53099Y45240D01*
X53183Y45183D01*
X56683Y41683D01*
X56740Y41599D01*
X56759Y41500D01*
Y40552D01*
X57002D01*
Y39448D01*
X56759D01*
Y38352D01*
X57602D01*
Y38059D01*
X58200D01*
X58299Y38040D01*
X58383Y37983D01*
X58683Y37683D01*
X58740Y37599D01*
X58759Y37500D01*
Y26000D01*
X58740Y25901D01*
X58683Y25817D01*
X56759Y23893D01*
Y11984D01*
X56894Y11894D01*
X57015Y11713D01*
X57057Y11500D01*
X57015Y11287D01*
X56894Y11106D01*
X56759Y11016D01*
Y9500D01*
X56740Y9401D01*
X56683Y9317D01*
X53683Y6317D01*
X53599Y6260D01*
X53500Y6241D01*
X33107D01*
X30526Y3659D01*
X30557Y3500D01*
X30515Y3287D01*
X30394Y3106D01*
X30213Y2985D01*
X30000Y2943D01*
X29787Y2985D01*
X29606Y3106D01*
X29485Y3287D01*
X29443Y3500D01*
X29485Y3713D01*
X29606Y3894D01*
X29787Y4015D01*
X30000Y4057D01*
X30159Y4026D01*
X32817Y6683D01*
X32901Y6740D01*
X33000Y6759D01*
X48131D01*
X48156Y6886D01*
X48148Y6890D01*
X48002Y7002D01*
X47890Y7148D01*
X47819Y7318D01*
X47812Y7373D01*
X49188D01*
X49181Y7318D01*
X49110Y7148D01*
X48998Y7002D01*
X48852Y6890D01*
X48844Y6886D01*
X48869Y6759D01*
X53393D01*
X56241Y9607D01*
Y11016D01*
X56106Y11106D01*
X56016Y11241D01*
X55302D01*
Y10948D01*
X54298D01*
Y12052D01*
X55302D01*
Y11759D01*
X56016D01*
X56106Y11894D01*
X56241Y11984D01*
Y24000D01*
X56260Y24099D01*
X56283Y24133D01*
X56317Y24183D01*
X58241Y26107D01*
Y37393D01*
X58093Y37541D01*
X57602D01*
Y37248D01*
X55298D01*
Y38352D01*
X56241D01*
Y39448D01*
X55998D01*
Y40552D01*
X56241D01*
Y41393D01*
X52893Y44741D01*
X51252D01*
Y44248D01*
X49748D01*
Y45752D01*
D02*
G37*
G36*
X42500Y45758D02*
X42696Y45733D01*
X42879Y45657D01*
X43036Y45536D01*
X43157Y45379D01*
X43233Y45196D01*
X43258Y45000D01*
X43233Y44804D01*
X43183Y44684D01*
X46841Y41026D01*
X47000Y41057D01*
X47213Y41015D01*
X47394Y40894D01*
X47515Y40713D01*
X47557Y40500D01*
X47515Y40287D01*
X47394Y40106D01*
X47213Y39985D01*
X47000Y39943D01*
X46787Y39985D01*
X46606Y40106D01*
X46485Y40287D01*
X46443Y40500D01*
X46474Y40659D01*
X42816Y44317D01*
X42696Y44267D01*
X42500Y44242D01*
X42304Y44267D01*
X42121Y44343D01*
X41964Y44464D01*
X41843Y44621D01*
X41767Y44804D01*
X41742Y45000D01*
X41767Y45196D01*
X41843Y45379D01*
X41964Y45536D01*
X42121Y45657D01*
X42304Y45733D01*
X42500Y45758D01*
D02*
G37*
G36*
X3000Y49363D02*
X3461Y49318D01*
X3904Y49183D01*
X4313Y48965D01*
X4671Y48671D01*
X4965Y48313D01*
X5183Y47904D01*
X5318Y47461D01*
X5363Y47000D01*
X5318Y46539D01*
X5183Y46096D01*
X4965Y45687D01*
X4671Y45329D01*
X4313Y45035D01*
X3904Y44817D01*
X3461Y44682D01*
X3000Y44637D01*
X2539Y44682D01*
X2096Y44817D01*
X1687Y45035D01*
X1329Y45329D01*
X1035Y45687D01*
X817Y46096D01*
X682Y46539D01*
X637Y47000D01*
X682Y47461D01*
X817Y47904D01*
X1035Y48313D01*
X1329Y48671D01*
X1687Y48965D01*
X2096Y49183D01*
X2539Y49318D01*
X3000Y49363D01*
D02*
G37*
G36*
X57000D02*
X57461Y49318D01*
X57904Y49183D01*
X58313Y48965D01*
X58671Y48671D01*
X58965Y48313D01*
X59183Y47904D01*
X59318Y47461D01*
X59363Y47000D01*
X59318Y46539D01*
X59183Y46096D01*
X58965Y45687D01*
X58671Y45329D01*
X58313Y45035D01*
X57904Y44817D01*
X57461Y44682D01*
X57000Y44637D01*
X56539Y44682D01*
X56096Y44817D01*
X55687Y45035D01*
X55329Y45329D01*
X55035Y45687D01*
X54817Y46096D01*
X54682Y46539D01*
X54637Y47000D01*
X54682Y47461D01*
X54817Y47904D01*
X55035Y48313D01*
X55329Y48671D01*
X55687Y48965D01*
X56096Y49183D01*
X56539Y49318D01*
X57000Y49363D01*
D02*
G37*
G36*
X8605Y44873D02*
X9373D01*
Y44105D01*
X9264Y44119D01*
X9044Y44210D01*
X8855Y44355D01*
X8710Y44544D01*
X8619Y44764D01*
X8605Y44873D01*
D02*
G37*
G36*
X9627D02*
X10395D01*
X10381Y44764D01*
X10290Y44544D01*
X10145Y44355D01*
X9956Y44210D01*
X9736Y44119D01*
X9627Y44105D01*
Y44873D01*
D02*
G37*
G36*
X44500Y45758D02*
X44696Y45733D01*
X44879Y45657D01*
X45036Y45536D01*
X45157Y45379D01*
X45233Y45196D01*
X45258Y45000D01*
X45233Y44804D01*
X45183Y44684D01*
X47841Y42026D01*
X48000Y42057D01*
X48213Y42015D01*
X48394Y41894D01*
X48515Y41713D01*
X48557Y41500D01*
X48515Y41287D01*
X48394Y41106D01*
X48213Y40985D01*
X48000Y40943D01*
X47787Y40985D01*
X47606Y41106D01*
X47485Y41287D01*
X47443Y41500D01*
X47474Y41659D01*
X44816Y44317D01*
X44696Y44267D01*
X44500Y44242D01*
X44304Y44267D01*
X44121Y44343D01*
X43964Y44464D01*
X43843Y44621D01*
X43767Y44804D01*
X43742Y45000D01*
X43767Y45196D01*
X43843Y45379D01*
X43964Y45536D01*
X44121Y45657D01*
X44304Y45733D01*
X44500Y45758D01*
D02*
G37*
G36*
X46500D02*
X46696Y45733D01*
X46879Y45657D01*
X47036Y45536D01*
X47157Y45379D01*
X47233Y45196D01*
X47258Y45000D01*
X47233Y44804D01*
X47157Y44621D01*
X47036Y44464D01*
X46879Y44343D01*
X46696Y44267D01*
X46500Y44242D01*
X46304Y44267D01*
X46121Y44343D01*
X45964Y44464D01*
X45843Y44621D01*
X45767Y44804D01*
X45742Y45000D01*
X45767Y45196D01*
X45843Y45379D01*
X45964Y45536D01*
X46121Y45657D01*
X46304Y45733D01*
X46500Y45758D01*
D02*
G37*
G36*
X26133Y29709D02*
X26710D01*
Y29182D01*
X26133D01*
Y29709D01*
D02*
G37*
G36*
X55873Y29688D02*
Y29127D01*
X55312D01*
X55319Y29182D01*
X55390Y29352D01*
X55502Y29498D01*
X55648Y29610D01*
X55818Y29681D01*
X55873Y29688D01*
D02*
G37*
G36*
X33372Y32487D02*
X33585Y32445D01*
X33766Y32324D01*
X33887Y32143D01*
X33929Y31930D01*
X33887Y31717D01*
X33766Y31536D01*
X33585Y31415D01*
X33372Y31373D01*
X33213Y31404D01*
X32869Y31061D01*
Y30382D01*
X33004Y30292D01*
X33125Y30111D01*
X33167Y29898D01*
X33125Y29685D01*
X33004Y29504D01*
X32823Y29383D01*
X32610Y29341D01*
X32397Y29383D01*
X32216Y29504D01*
X32095Y29685D01*
X32053Y29898D01*
X32095Y30111D01*
X32216Y30292D01*
X32350Y30382D01*
Y31168D01*
X32370Y31267D01*
X32426Y31351D01*
X32846Y31771D01*
X32815Y31930D01*
X32857Y32143D01*
X32978Y32324D01*
X33159Y32445D01*
X33372Y32487D01*
D02*
G37*
G36*
X25302Y29709D02*
X25879D01*
Y29182D01*
X25302D01*
Y29709D01*
D02*
G37*
G36*
X23527Y29804D02*
X24354D01*
Y29077D01*
X23527D01*
Y29804D01*
D02*
G37*
G36*
X36500Y36057D02*
X36713Y36015D01*
X36894Y35894D01*
X37015Y35713D01*
X37057Y35500D01*
X37015Y35287D01*
X36894Y35106D01*
X36713Y34985D01*
X36500Y34943D01*
X36341Y34974D01*
X35409Y34043D01*
Y29366D01*
X35544Y29276D01*
X35665Y29095D01*
X35707Y28882D01*
X35665Y28669D01*
X35544Y28488D01*
X35363Y28367D01*
X35150Y28325D01*
X34937Y28367D01*
X34756Y28488D01*
X34635Y28669D01*
X34593Y28882D01*
X34635Y29095D01*
X34756Y29276D01*
X34890Y29366D01*
Y34150D01*
X34910Y34249D01*
X34966Y34333D01*
X35974Y35341D01*
X35943Y35500D01*
X35985Y35713D01*
X36106Y35894D01*
X36287Y36015D01*
X36500Y36057D01*
D02*
G37*
G36*
X56127Y29688D02*
X56182Y29681D01*
X56352Y29610D01*
X56498Y29498D01*
X56610Y29352D01*
X56681Y29182D01*
X56688Y29127D01*
X56127D01*
Y29688D01*
D02*
G37*
G36*
X22446Y29804D02*
X23273D01*
Y29077D01*
X22446D01*
Y29804D01*
D02*
G37*
G36*
X27627Y47895D02*
X27736Y47881D01*
X27956Y47790D01*
X28145Y47645D01*
X28290Y47456D01*
X28381Y47236D01*
X28395Y47127D01*
X27627D01*
Y47895D01*
D02*
G37*
G36*
X27373D02*
Y47127D01*
X26605D01*
X26619Y47236D01*
X26710Y47456D01*
X26855Y47645D01*
X27044Y47790D01*
X27264Y47881D01*
X27373Y47895D01*
D02*
G37*
G36*
X17497Y30868D02*
X18074D01*
Y30341D01*
X17497D01*
Y30868D01*
D02*
G37*
G36*
X25302Y30490D02*
X25879D01*
Y29963D01*
X25302D01*
Y30490D01*
D02*
G37*
G36*
X17497Y30087D02*
X18074D01*
Y29560D01*
X17497D01*
Y30087D01*
D02*
G37*
G36*
X39000Y30557D02*
X39213Y30515D01*
X39394Y30394D01*
X39515Y30213D01*
X39557Y30000D01*
X39526Y29841D01*
X40607Y28759D01*
X49016D01*
X49106Y28894D01*
X49287Y29015D01*
X49268Y29141D01*
X41100D01*
X41001Y29160D01*
X40917Y29217D01*
X40659Y29474D01*
X40500Y29443D01*
X40287Y29485D01*
X40106Y29606D01*
X39985Y29787D01*
X39943Y30000D01*
X39985Y30213D01*
X40106Y30394D01*
X40287Y30515D01*
X40500Y30557D01*
X40713Y30515D01*
X40894Y30394D01*
X41015Y30213D01*
X41057Y30000D01*
X41026Y29841D01*
X41207Y29659D01*
X50016D01*
X50106Y29794D01*
X50287Y29915D01*
X50500Y29957D01*
X50713Y29915D01*
X50894Y29794D01*
X51015Y29613D01*
X51057Y29400D01*
X51015Y29187D01*
X50894Y29006D01*
X50713Y28885D01*
X50500Y28843D01*
X50287Y28885D01*
X50106Y29006D01*
X50016Y29141D01*
X49732D01*
X49713Y29015D01*
X49894Y28894D01*
X50015Y28713D01*
X50057Y28500D01*
X50015Y28287D01*
X49894Y28106D01*
X49713Y27985D01*
X49500Y27943D01*
X49287Y27985D01*
X49106Y28106D01*
X49016Y28241D01*
X40500D01*
X40401Y28260D01*
X40317Y28317D01*
X39159Y29474D01*
X39000Y29443D01*
X38787Y29485D01*
X38606Y29606D01*
X38485Y29787D01*
X38443Y30000D01*
X38485Y30213D01*
X38606Y30394D01*
X38787Y30515D01*
X39000Y30557D01*
D02*
G37*
G36*
X26133Y30490D02*
X26710D01*
Y29963D01*
X26133D01*
Y30490D01*
D02*
G37*
G36*
X16666Y30087D02*
X17243D01*
Y29560D01*
X16666D01*
Y30087D01*
D02*
G37*
G36*
X35512Y27773D02*
X36073D01*
Y27212D01*
X36018Y27219D01*
X35848Y27290D01*
X35702Y27402D01*
X35590Y27548D01*
X35519Y27718D01*
X35512Y27773D01*
D02*
G37*
G36*
X36327D02*
X36888D01*
X36881Y27718D01*
X36810Y27548D01*
X36698Y27402D01*
X36552Y27290D01*
X36382Y27219D01*
X36327Y27212D01*
Y27773D01*
D02*
G37*
G36*
X22242Y27808D02*
X22769D01*
Y27231D01*
X22242D01*
Y27808D01*
D02*
G37*
G36*
X23023D02*
X23550D01*
Y27231D01*
X23023D01*
Y27808D01*
D02*
G37*
G36*
X24302Y26977D02*
X24863D01*
Y26416D01*
X24808Y26423D01*
X24638Y26494D01*
X24492Y26606D01*
X24380Y26752D01*
X24309Y26922D01*
X24302Y26977D01*
D02*
G37*
G36*
X25117D02*
X25678D01*
X25671Y26922D01*
X25623Y26807D01*
X25694Y26680D01*
X25879D01*
Y26153D01*
X25302D01*
Y26363D01*
X25196Y26433D01*
X25172Y26423D01*
X25117Y26416D01*
Y26977D01*
D02*
G37*
G36*
X18767Y27538D02*
Y26977D01*
X18206D01*
X18213Y27032D01*
X18284Y27202D01*
X18396Y27348D01*
X18542Y27460D01*
X18712Y27531D01*
X18767Y27538D01*
D02*
G37*
G36*
X19021D02*
X19076Y27531D01*
X19246Y27460D01*
X19392Y27348D01*
X19504Y27202D01*
X19575Y27032D01*
X19582Y26977D01*
X19021D01*
Y27538D01*
D02*
G37*
G36*
X22446Y28823D02*
X23273D01*
Y28096D01*
X22446D01*
Y28823D01*
D02*
G37*
G36*
X23527D02*
X24354D01*
Y28096D01*
X23527D01*
Y28823D01*
D02*
G37*
G36*
X55312Y28873D02*
X55873D01*
Y28312D01*
X55818Y28319D01*
X55648Y28390D01*
X55502Y28502D01*
X55390Y28648D01*
X55319Y28818D01*
X55312Y28873D01*
D02*
G37*
G36*
X56127D02*
X56688D01*
X56681Y28818D01*
X56610Y28648D01*
X56498Y28502D01*
X56352Y28390D01*
X56182Y28319D01*
X56127Y28312D01*
Y28873D01*
D02*
G37*
G36*
X24863Y27792D02*
Y27231D01*
X24302D01*
X24309Y27286D01*
X24380Y27456D01*
X24492Y27602D01*
X24638Y27714D01*
X24808Y27785D01*
X24863Y27792D01*
D02*
G37*
G36*
X25117D02*
X25172Y27785D01*
X25342Y27714D01*
X25488Y27602D01*
X25600Y27456D01*
X25671Y27286D01*
X25678Y27231D01*
X25117D01*
Y27792D01*
D02*
G37*
G36*
X36073Y28588D02*
Y28027D01*
X35512D01*
X35519Y28082D01*
X35590Y28252D01*
X35702Y28398D01*
X35848Y28510D01*
X36018Y28581D01*
X36073Y28588D01*
D02*
G37*
G36*
X36327D02*
X36382Y28581D01*
X36552Y28510D01*
X36698Y28398D01*
X36810Y28252D01*
X36881Y28082D01*
X36888Y28027D01*
X36327D01*
Y28588D01*
D02*
G37*
G36*
X23890Y33904D02*
X24417D01*
Y33327D01*
X23890D01*
Y33904D01*
D02*
G37*
G36*
X24671D02*
X25198D01*
Y33327D01*
X24671D01*
Y33904D01*
D02*
G37*
G36*
X55146Y33904D02*
X56323D01*
Y33327D01*
X55146D01*
Y33904D01*
D02*
G37*
G36*
X56577D02*
X57754D01*
Y33327D01*
X56577D01*
Y33904D01*
D02*
G37*
G36*
X49127Y33073D02*
X49688D01*
X49681Y33018D01*
X49610Y32848D01*
X49498Y32702D01*
X49352Y32590D01*
X49182Y32519D01*
X49127Y32512D01*
Y33073D01*
D02*
G37*
G36*
X52812D02*
X53373D01*
Y32512D01*
X53318Y32519D01*
X53148Y32590D01*
X53002Y32702D01*
X52890Y32848D01*
X52819Y33018D01*
X52812Y33073D01*
D02*
G37*
G36*
X22450Y34011D02*
X22663Y33969D01*
X22844Y33848D01*
X22965Y33667D01*
X23007Y33454D01*
X22976Y33295D01*
X23583Y32687D01*
X23640Y32603D01*
X23659Y32504D01*
Y31552D01*
X24202D01*
Y30148D01*
X22598D01*
Y31552D01*
X23140D01*
Y32397D01*
X22609Y32928D01*
X22450Y32897D01*
X22237Y32939D01*
X22056Y33060D01*
X21935Y33241D01*
X21893Y33454D01*
X21935Y33667D01*
X22056Y33848D01*
X22237Y33969D01*
X22450Y34011D01*
D02*
G37*
G36*
X48312Y33073D02*
X48873D01*
Y32512D01*
X48818Y32519D01*
X48648Y32590D01*
X48502Y32702D01*
X48390Y32848D01*
X48319Y33018D01*
X48312Y33073D01*
D02*
G37*
G36*
X19702Y33904D02*
X20229D01*
Y33327D01*
X19702D01*
Y33904D01*
D02*
G37*
G36*
X20483D02*
X21010D01*
Y33327D01*
X20483D01*
Y33904D01*
D02*
G37*
G36*
X4127Y34873D02*
X4688D01*
X4681Y34818D01*
X4610Y34648D01*
X4498Y34502D01*
X4352Y34390D01*
X4182Y34319D01*
X4127Y34312D01*
Y34873D01*
D02*
G37*
G36*
X50373Y47895D02*
Y47127D01*
X49605D01*
X49619Y47236D01*
X49710Y47456D01*
X49855Y47645D01*
X50044Y47790D01*
X50264Y47881D01*
X50373Y47895D01*
D02*
G37*
G36*
X53373Y33888D02*
Y33327D01*
X52812D01*
X52819Y33382D01*
X52890Y33552D01*
X53002Y33698D01*
X53148Y33810D01*
X53318Y33881D01*
X53373Y33888D01*
D02*
G37*
G36*
X53627D02*
X53682Y33881D01*
X53852Y33810D01*
X53998Y33698D01*
X54110Y33552D01*
X54181Y33382D01*
X54188Y33327D01*
X53627D01*
Y33888D01*
D02*
G37*
G36*
X48873D02*
Y33327D01*
X48312D01*
X48319Y33382D01*
X48390Y33552D01*
X48502Y33698D01*
X48648Y33810D01*
X48818Y33881D01*
X48873Y33888D01*
D02*
G37*
G36*
X49127D02*
X49182Y33881D01*
X49352Y33810D01*
X49498Y33698D01*
X49610Y33552D01*
X49681Y33382D01*
X49688Y33327D01*
X49127D01*
Y33888D01*
D02*
G37*
G36*
X25879Y32110D02*
X25934Y32103D01*
X26104Y32032D01*
X26250Y31920D01*
X26362Y31774D01*
X26433Y31604D01*
X26440Y31549D01*
X25879D01*
Y32110D01*
D02*
G37*
G36*
X18206Y31295D02*
X18767D01*
Y30734D01*
X18712Y30741D01*
X18542Y30812D01*
X18396Y30924D01*
X18284Y31070D01*
X18213Y31240D01*
X18206Y31295D01*
D02*
G37*
G36*
X19021Y32110D02*
X19076Y32103D01*
X19246Y32032D01*
X19392Y31920D01*
X19504Y31774D01*
X19575Y31604D01*
X19582Y31549D01*
X19021D01*
Y32110D01*
D02*
G37*
G36*
X25625D02*
Y31549D01*
X25064D01*
X25071Y31604D01*
X25142Y31774D01*
X25254Y31920D01*
X25400Y32032D01*
X25570Y32103D01*
X25625Y32110D01*
D02*
G37*
G36*
X25879Y31295D02*
X26440D01*
X26433Y31240D01*
X26362Y31070D01*
X26250Y30924D01*
X26104Y30812D01*
X25934Y30741D01*
X25879Y30734D01*
Y31295D01*
D02*
G37*
G36*
X16666Y30868D02*
X17243D01*
Y30341D01*
X16666D01*
Y30868D01*
D02*
G37*
G36*
X19021Y31295D02*
X19582D01*
X19575Y31240D01*
X19504Y31070D01*
X19392Y30924D01*
X19246Y30812D01*
X19076Y30741D01*
X19021Y30734D01*
Y31295D01*
D02*
G37*
G36*
X25064D02*
X25625D01*
Y30734D01*
X25570Y30741D01*
X25400Y30812D01*
X25254Y30924D01*
X25142Y31070D01*
X25071Y31240D01*
X25064Y31295D01*
D02*
G37*
G36*
X20483Y33073D02*
X21010D01*
Y32496D01*
X20483D01*
Y33073D01*
D02*
G37*
G36*
X55146D02*
X56323D01*
Y32496D01*
X55146D01*
Y33073D01*
D02*
G37*
G36*
X53627D02*
X54188D01*
X54181Y33018D01*
X54110Y32848D01*
X53998Y32702D01*
X53852Y32590D01*
X53682Y32519D01*
X53627Y32512D01*
Y33073D01*
D02*
G37*
G36*
X19702D02*
X20229D01*
Y32496D01*
X19702D01*
Y33073D01*
D02*
G37*
G36*
X24671Y33073D02*
X25198D01*
Y32496D01*
X24671D01*
Y33073D01*
D02*
G37*
G36*
X18767Y32110D02*
Y31549D01*
X18206D01*
X18213Y31604D01*
X18284Y31774D01*
X18396Y31920D01*
X18542Y32032D01*
X18712Y32103D01*
X18767Y32110D01*
D02*
G37*
G36*
X56577Y33073D02*
X57754D01*
Y32496D01*
X56577D01*
Y33073D01*
D02*
G37*
G36*
X23890Y33073D02*
X24417D01*
Y32496D01*
X23890D01*
Y33073D01*
D02*
G37*
%LPD*%
G36*
X4434Y23616D02*
X4251Y23493D01*
X4242Y23425D01*
X4251Y23357D01*
X4434Y23234D01*
X4551Y23059D01*
X7500D01*
X7599Y23040D01*
X7633Y23017D01*
X7683Y22983D01*
X10907Y19759D01*
X35393D01*
X35974Y20341D01*
X35943Y20500D01*
X35985Y20713D01*
X36106Y20894D01*
X36287Y21015D01*
X36268Y21141D01*
X35132D01*
X35113Y21015D01*
X35294Y20894D01*
X35415Y20713D01*
X35457Y20500D01*
X35415Y20287D01*
X35294Y20106D01*
X35113Y19985D01*
X34900Y19943D01*
X34687Y19985D01*
X34506Y20106D01*
X34416Y20241D01*
X11000D01*
X10901Y20260D01*
X10817Y20317D01*
X7343Y23791D01*
X4551D01*
X4434Y23616D01*
D02*
G37*
G36*
Y26116D02*
X4251Y25993D01*
X4242Y25925D01*
X4251Y25857D01*
X4434Y25734D01*
X4567Y25535D01*
X4614Y25300D01*
X4567Y25065D01*
X4434Y24866D01*
X4251Y24743D01*
X4242Y24675D01*
X4251Y24607D01*
X4434Y24484D01*
X4551Y24309D01*
X7450D01*
X7549Y24290D01*
X7583Y24267D01*
X7633Y24233D01*
X11107Y20759D01*
X34416D01*
X34506Y20894D01*
X34687Y21015D01*
X34668Y21141D01*
X11500D01*
X11401Y21160D01*
X11317Y21217D01*
X6293Y26241D01*
X4517D01*
X4434Y26116D01*
D02*
G37*
G36*
X21936Y45614D02*
X22036Y45536D01*
X22157Y45379D01*
X22233Y45196D01*
X22258Y45000D01*
X22233Y44804D01*
X22157Y44621D01*
X22036Y44464D01*
X21879Y44343D01*
X21696Y44267D01*
X21500Y44242D01*
X21304Y44267D01*
X21184Y44317D01*
X14359Y37493D01*
Y34366D01*
X14486Y34301D01*
X14540Y34340D01*
Y36300D01*
X14560Y36399D01*
X14616Y36483D01*
X22817Y44684D01*
X22767Y44804D01*
X22742Y45000D01*
X22767Y45196D01*
X22843Y45379D01*
X22964Y45536D01*
X23064Y45614D01*
X23021Y45741D01*
X21979D01*
X21936Y45614D01*
D02*
G37*
G36*
X17936D02*
X18036Y45536D01*
X18157Y45379D01*
X18233Y45196D01*
X18258Y45000D01*
X18233Y44804D01*
X18157Y44621D01*
X18036Y44464D01*
X17879Y44343D01*
X17696Y44267D01*
X17500Y44242D01*
X17304Y44267D01*
X17184Y44317D01*
X12959Y40093D01*
Y34440D01*
X13086Y34377D01*
X13141Y34417D01*
Y38900D01*
X13160Y38999D01*
X13217Y39083D01*
X18817Y44684D01*
X18767Y44804D01*
X18742Y45000D01*
X18767Y45196D01*
X18843Y45379D01*
X18964Y45536D01*
X19064Y45614D01*
X19021Y45741D01*
X17979D01*
X17936Y45614D01*
D02*
G37*
G36*
X19936D02*
X20036Y45536D01*
X20157Y45379D01*
X20233Y45196D01*
X20258Y45000D01*
X20233Y44804D01*
X20157Y44621D01*
X20036Y44464D01*
X19879Y44343D01*
X19696Y44267D01*
X19500Y44242D01*
X19304Y44267D01*
X19184Y44317D01*
X13659Y38793D01*
Y34436D01*
X13786Y34373D01*
X13840Y34413D01*
Y37600D01*
X13860Y37699D01*
X13883Y37733D01*
X13917Y37783D01*
X20817Y44684D01*
X20767Y44804D01*
X20742Y45000D01*
X20767Y45196D01*
X20843Y45379D01*
X20964Y45536D01*
X21064Y45614D01*
X21021Y45741D01*
X19979D01*
X19936Y45614D01*
D02*
G37*
D10*
X40500Y45000D02*
X35812Y40312D01*
X38500Y45000D02*
X35336Y41836D01*
X36500Y45000D02*
X34352Y42852D01*
X34500Y45000D02*
X33200Y43700D01*
X11500Y21400D02*
X6400Y26500D01*
X36500Y21400D02*
X11500D01*
X11000Y20500D02*
X7450Y24050D01*
X10800Y19500D02*
X7500Y22800D01*
X35500Y19500D02*
X10800D01*
X6400Y26500D02*
X4050D01*
X7500Y22800D02*
X4000D01*
X7450Y24050D02*
X4000D01*
X4050Y26500D02*
X4000Y26550D01*
X20500Y13504D02*
X20464Y13540D01*
X50750Y35500D02*
X50700Y35450D01*
Y33000D02*
Y35450D01*
X52500Y31200D02*
X50700Y33000D01*
X52500Y24014D02*
Y31200D01*
X39050Y12650D02*
X39000Y12700D01*
X40400Y12650D02*
X39050D01*
X41550Y11500D02*
X40400Y12650D01*
X53400Y11500D02*
X41550D01*
X56500Y11500D02*
X56500Y11500D01*
X54800D01*
X53400Y10100D02*
Y11500D01*
X54800Y10100D02*
X54800Y10100D01*
X54800Y8900D02*
Y10100D01*
Y8900D02*
X53400Y7500D01*
X48500D01*
X53500Y22000D02*
Y33200D01*
X58500Y37500D02*
X58200Y37800D01*
X56450D01*
X35500Y15000D02*
Y16000D01*
X39500Y20000D02*
X35500Y16000D01*
X52500Y20000D02*
X39500D01*
X38500Y16000D02*
Y17000D01*
X40000Y18500D02*
X38500Y17000D01*
X51500Y18500D02*
X40000D01*
X37000Y15500D02*
Y16500D01*
X39700Y19200D02*
X37000Y16500D01*
X52000Y19200D02*
X39700D01*
X54500Y16700D02*
X52000Y19200D01*
X54500Y14500D02*
Y16700D01*
X55500Y17000D02*
X52500Y20000D01*
X55500Y15500D02*
Y17000D01*
X53500Y16500D02*
X51500Y18500D01*
X53500Y13500D02*
Y16500D01*
X42500Y27000D02*
X40500Y25000D01*
X51000Y27000D02*
X42500D01*
X51500Y25500D02*
X43000D01*
X50750Y35500D02*
X48500D01*
X40500Y28500D02*
X39000Y30000D01*
X49500Y28500D02*
X40500D01*
X41100Y29400D02*
X40500Y30000D01*
X50500Y29400D02*
X41100D01*
X49403Y30597D02*
X41903D01*
X49500Y30500D02*
X49403Y30597D01*
X48500Y31500D02*
X42692D01*
X44248Y33500D02*
X41246Y36502D01*
X46500Y33500D02*
X44248D01*
X43425Y32545D02*
X39976Y35994D01*
X47545Y32545D02*
X43425D01*
X52100Y40000D02*
X51500D01*
X50750Y39250D01*
Y35500D02*
Y39250D01*
X56450Y33200D02*
X53500D01*
X56450Y35500D02*
X50750D01*
X55100Y40000D02*
X53500D01*
X56500D02*
X56500Y40000D01*
X56500Y37850D02*
X56450Y37800D01*
X56500Y37850D02*
Y40000D01*
X34352Y42852D02*
X29308D01*
X30987Y34887D02*
Y39387D01*
X28200Y34400D02*
X27200D01*
X28700Y33900D02*
X28200Y34400D01*
X18448Y30214D02*
X17370D01*
X18894Y30660D02*
X18448Y30214D01*
X18894Y30660D02*
Y31422D01*
X20356Y32376D02*
X19402Y31422D01*
X20356Y32376D02*
Y33200D01*
X19402Y31422D02*
X18894D01*
X18448Y25642D02*
X17370D01*
X18894Y26088D02*
X18448Y25642D01*
X18894Y26088D02*
Y26850D01*
X21180Y33200D02*
X20356D01*
X22196Y32184D02*
X21180Y33200D01*
X22196Y29390D02*
Y32184D01*
X22636Y28950D02*
X22196Y29390D01*
X23400Y28950D02*
X22636D01*
X50400Y14200D02*
X50400Y14200D01*
X48600D01*
X21434Y23300D02*
X17364D01*
X16200Y24464D01*
X24736Y41328D02*
X24228Y40820D01*
X26768Y40312D02*
X25498D01*
X29308Y42852D02*
X26768Y40312D01*
X35336Y41836D02*
X29562D01*
X35812Y40312D02*
X29562D01*
X22900Y27104D02*
X22766Y26970D01*
X22900Y27104D02*
Y27554D01*
X17370Y27230D02*
X16200Y28400D01*
X17370Y27042D02*
Y27230D01*
X24990Y27104D02*
X22900D01*
X22766Y24564D02*
Y26970D01*
X26006Y26026D02*
Y26596D01*
X25498Y27104D01*
X25752Y31422D02*
X24736D01*
X24544Y31614D01*
Y33200D01*
X26006Y31168D02*
X25752Y31422D01*
X26006Y29836D02*
Y31168D01*
X27022Y28436D02*
X26006D01*
X27058Y28400D02*
X27022Y28436D01*
X27200Y28400D02*
X27058D01*
X27200D02*
Y34400D01*
Y23432D02*
Y28400D01*
X17200Y31600D02*
Y31900D01*
X16200Y32900D01*
X18850Y33250D02*
X17700Y34400D01*
X19000Y33400D02*
X18850Y33250D01*
X21434Y23300D02*
Y27100D01*
X21500D02*
X21434D01*
X24200Y24530D02*
X24166Y24564D01*
X24200Y23300D02*
Y24530D01*
Y23300D02*
X21434D01*
X24300Y23400D02*
X24200Y23300D01*
X27200Y23400D02*
X24300D01*
X27200Y23432D02*
X26006Y24626D01*
X27200Y23400D02*
Y23432D01*
X21000Y28950D02*
Y30850D01*
Y28300D02*
Y28950D01*
X21500Y27800D02*
X21000Y28300D01*
X21500Y27100D02*
Y27800D01*
X23400Y28054D02*
Y28950D01*
Y28054D02*
X22900Y27554D01*
X27144Y34400D02*
X25944Y33200D01*
X23400Y32504D02*
X22450Y33454D01*
X23400Y30850D02*
Y32504D01*
X40400Y14150D02*
X40400Y14150D01*
X41900Y14150D02*
X40400D01*
X41950Y14200D02*
X41900Y14150D01*
X43600Y14200D02*
X41950D01*
X48900Y12700D02*
X43400D01*
X41950D02*
X41900Y12650D01*
X43400Y12700D02*
X41950D01*
X50400Y12800D02*
X50300Y12700D01*
X48900D01*
X51200Y14200D02*
X50700D01*
X51606Y14606D02*
X51200Y14200D01*
X51606Y14606D02*
Y16894D01*
X50700Y14200D02*
X50400D01*
X50700D02*
X50700Y14200D01*
X51606Y16894D02*
X51100Y17400D01*
X50400D01*
X43600Y17250D02*
X43450Y17400D01*
X41900D01*
X43750D02*
X43600Y17250D01*
X45400Y17400D02*
X43750D01*
X46900D02*
X45400D01*
X48750D02*
X48600Y17250D01*
X50400Y17400D02*
X48750D01*
X48850Y16000D02*
X48600Y15750D01*
X50400Y16000D02*
X48850D01*
X48600Y15750D02*
X48350Y16000D01*
X46900D01*
X43600Y15750D02*
X43350Y16000D01*
X41900D01*
X43600Y15750D02*
X43600Y15750D01*
X43600Y14200D02*
Y15750D01*
X45400Y16000D02*
X45400Y16000D01*
Y14200D02*
Y16000D01*
X46900Y16000D02*
X46900Y16000D01*
Y14200D02*
Y16000D01*
X27200Y34400D02*
X27144D01*
X17700D01*
X16200Y32900D01*
X42692Y31500D02*
X38706Y35486D01*
X33372Y31930D02*
X32610Y31168D01*
Y29898D02*
Y31168D01*
X16200Y24464D02*
Y28400D01*
X24020Y2930D02*
X24000Y2950D01*
X11930Y2930D02*
X11320D01*
X14000Y5000D02*
X11930Y2930D01*
X14000Y5000D02*
Y16000D01*
X15500Y17500D02*
X14000Y16000D01*
X36000Y17500D02*
X15500D01*
X12590Y5470D02*
Y16090D01*
X15000Y18500D02*
X12590Y16090D01*
X36000Y18500D02*
X15000D01*
X56500Y9500D02*
Y11500D01*
Y9500D02*
X53500Y6500D01*
X33000D01*
X30000Y3500D01*
X39500Y21000D02*
X36000Y17500D01*
X15090Y1700D02*
X13860Y2930D01*
X29700Y1700D02*
X15090D01*
X33500Y5500D02*
X29700Y1700D01*
X53500Y5500D02*
X33500D01*
X58000Y10000D02*
X53500Y5500D01*
X58000Y10000D02*
Y24000D01*
X52500Y24014D02*
X45514D01*
X56500Y11500D02*
Y24000D01*
X58500Y26000D02*
X56500Y24000D01*
X58500Y26000D02*
Y37500D01*
X34900Y20500D02*
X11000D01*
X38800Y21300D02*
X36000Y18500D01*
X36500Y20500D02*
X35500Y19500D01*
X36500Y21400D02*
Y21500D01*
X37500Y22500D02*
X36500Y21500D01*
X41903Y30597D02*
X38900Y33600D01*
X34388Y29898D02*
X33880Y29390D01*
X34134Y33708D02*
X33880D01*
X34388Y33200D02*
X33880Y33708D01*
X34388Y29898D02*
Y33200D01*
X38900Y33600D02*
X36100D01*
X35150Y28882D02*
Y34150D01*
X36500Y35500D02*
X35150Y34150D01*
X39500Y21000D02*
Y24100D01*
X37200Y26400D01*
X34100D01*
X31500Y29000D01*
X38800Y21300D02*
Y23700D01*
X36800Y25700D01*
X33800D01*
X31200Y33900D02*
X28700D01*
X48500Y35500D02*
Y37100D01*
X46400Y39200D01*
X36500D01*
X31200Y33900D01*
X31500Y29000D02*
Y32300D01*
X36700Y37500D02*
X31500Y32300D01*
X33800Y25700D02*
X30800Y28700D01*
Y32600D01*
X48800Y33200D02*
X46500Y35500D01*
X45500D01*
X49000Y33200D02*
X48800D01*
X45000Y37500D02*
X36700D01*
X47000Y37000D02*
X45500D01*
X45000Y37500D01*
X46000Y38000D02*
X36200D01*
X30800Y32600D01*
X24000Y2950D02*
Y14900D01*
X23400Y15500D01*
X19122D01*
X18178Y14556D01*
X22700Y7960D02*
X20210Y5470D01*
X22700Y7960D02*
Y14500D01*
X21500Y10000D02*
Y12504D01*
X20464Y13540D01*
X16400Y2930D02*
Y14100D01*
X16000Y14500D01*
X53500Y40000D02*
Y42500D01*
X53500Y40000D02*
X53500Y40000D01*
X56500D02*
Y41500D01*
X53000Y45000D01*
X50500D01*
X48000Y41500D02*
X48000D01*
X44500Y45000D01*
X47000Y40500D02*
X42500Y45000D01*
X33200Y43700D02*
X29000D01*
X26628Y41328D01*
X24736D01*
X10766Y29390D02*
Y30152D01*
X12291Y29391D02*
Y30291D01*
X11300Y35300D02*
Y42800D01*
X13500Y45000D02*
X11300Y42800D01*
X12000Y34260D02*
Y41500D01*
X15500Y45000D02*
X12000Y41500D01*
X12700Y34256D02*
Y40200D01*
X17500Y45000D02*
X12700Y40200D01*
X13400Y34252D02*
Y38900D01*
X19500Y45000D02*
X13400Y38900D01*
X14100Y34248D02*
X9242Y29390D01*
X14100Y34248D02*
Y37600D01*
X21500Y45000D02*
X14100Y37600D01*
X14800Y34186D02*
X10766Y30152D01*
X14800Y34186D02*
Y36300D01*
X23500Y45000D02*
X14800Y36300D01*
X15500Y33500D02*
X12291Y30291D01*
X15500Y33500D02*
Y35000D01*
X25500Y45000D02*
X15500Y35000D01*
X11300Y35300D02*
X10000Y34000D01*
X10500Y36000D02*
X10000Y35500D01*
X10500Y36000D02*
Y44000D01*
X11500Y45000D02*
X10500Y44000D01*
X9500Y41000D02*
Y45000D01*
X31500Y46000D02*
X7500D01*
X32500Y47000D02*
X31500Y46000D01*
X12000Y34260D02*
X10740Y33000D01*
X9000D01*
X13400Y34252D02*
X9648Y30500D01*
X8500D01*
X12700Y34256D02*
X10444Y32000D01*
X8000D01*
D11*
X1500Y39000D02*
D03*
X58500Y42000D02*
D03*
X33000Y1500D02*
D03*
X4000Y27800D02*
D03*
Y26550D02*
D03*
Y25300D02*
D03*
Y24050D02*
D03*
Y22800D02*
D03*
Y21550D02*
D03*
D14*
X17370Y30214D02*
D03*
Y31614D02*
D03*
Y25642D02*
D03*
Y27042D02*
D03*
X26006Y29836D02*
D03*
Y28436D02*
D03*
Y26026D02*
D03*
Y24626D02*
D03*
X50400Y14200D02*
D03*
Y12800D02*
D03*
X50400Y16000D02*
D03*
Y17400D02*
D03*
X46900Y16000D02*
D03*
Y17400D02*
D03*
X45400Y16000D02*
D03*
Y17400D02*
D03*
X41900Y16000D02*
D03*
Y17400D02*
D03*
D15*
X54800Y10100D02*
D03*
X53400D02*
D03*
X52100Y40000D02*
D03*
X53500D02*
D03*
X56500Y40000D02*
D03*
X55100D02*
D03*
X22766Y24564D02*
D03*
X24166D02*
D03*
X20356Y33200D02*
D03*
X18956D02*
D03*
X24544Y33200D02*
D03*
X25944D02*
D03*
X21496Y27104D02*
D03*
X22896D02*
D03*
X53400Y11500D02*
D03*
X54800D02*
D03*
D16*
X40400Y14150D02*
D03*
Y12650D02*
D03*
X41900Y12650D02*
D03*
Y14150D02*
D03*
D22*
X2383Y8575D02*
X3094D01*
Y9049D01*
X2383Y9286D02*
Y9523D01*
Y9404D01*
X3094D01*
Y9286D01*
Y9523D01*
X2501Y10352D02*
X2383Y10234D01*
Y9997D01*
X2501Y9878D01*
X2620D01*
X2738Y9997D01*
Y10234D01*
X2857Y10352D01*
X2975D01*
X3094Y10234D01*
Y9997D01*
X2975Y9878D01*
X2501Y11063D02*
X2383Y10944D01*
Y10708D01*
X2501Y10589D01*
X2975D01*
X3094Y10708D01*
Y10944D01*
X2975Y11063D01*
X3094Y12011D02*
X2383D01*
Y12366D01*
X2501Y12485D01*
X2738D01*
X2857Y12366D01*
Y12011D01*
Y12248D02*
X3094Y12485D01*
Y13077D02*
Y12840D01*
X2975Y12722D01*
X2738D01*
X2620Y12840D01*
Y13077D01*
X2738Y13196D01*
X2857D01*
Y12722D01*
X2620Y13433D02*
X3094Y13670D01*
X2620Y13907D01*
X3094Y14144D02*
X2975D01*
Y14262D01*
X3094D01*
Y14144D01*
Y15447D02*
X2620D01*
X2383Y15684D01*
X2620Y15921D01*
X3094D01*
X2738D01*
Y15447D01*
X3771Y8608D02*
X3737D01*
X3669Y8642D01*
X3636Y8676D01*
X3602Y8744D01*
Y8879D01*
X3636Y8947D01*
X3669Y8981D01*
X3737Y9015D01*
X3805D01*
X3873Y8981D01*
X3974Y8913D01*
X4313Y8575D01*
Y9049D01*
X3602Y9411D02*
X3636Y9309D01*
X3737Y9242D01*
X3906Y9208D01*
X4008D01*
X4177Y9242D01*
X4279Y9309D01*
X4313Y9411D01*
Y9479D01*
X4279Y9580D01*
X4177Y9648D01*
X4008Y9682D01*
X3906D01*
X3737Y9648D01*
X3636Y9580D01*
X3602Y9479D01*
Y9411D01*
Y10044D02*
X3636Y9943D01*
X3737Y9875D01*
X3906Y9841D01*
X4008D01*
X4177Y9875D01*
X4279Y9943D01*
X4313Y10044D01*
Y10112D01*
X4279Y10213D01*
X4177Y10281D01*
X4008Y10315D01*
X3906D01*
X3737Y10281D01*
X3636Y10213D01*
X3602Y10112D01*
Y10044D01*
Y10880D02*
Y10542D01*
X3906Y10508D01*
X3873Y10542D01*
X3839Y10643D01*
Y10745D01*
X3873Y10847D01*
X3940Y10914D01*
X4042Y10948D01*
X4110D01*
X4211Y10914D01*
X4279Y10847D01*
X4313Y10745D01*
Y10643D01*
X4279Y10542D01*
X4245Y10508D01*
X4177Y10474D01*
X3737Y11107D02*
X3703Y11175D01*
X3602Y11277D01*
X4313D01*
X3737Y11629D02*
X3703Y11696D01*
X3602Y11798D01*
X4313D01*
X4008Y12150D02*
Y12760D01*
X3602Y13173D02*
X3636Y13071D01*
X3737Y13003D01*
X3906Y12970D01*
X4008D01*
X4177Y13003D01*
X4279Y13071D01*
X4313Y13173D01*
Y13240D01*
X4279Y13342D01*
X4177Y13410D01*
X4008Y13444D01*
X3906D01*
X3737Y13410D01*
X3636Y13342D01*
X3602Y13240D01*
Y13173D01*
Y13806D02*
X3636Y13704D01*
X3737Y13637D01*
X3906Y13603D01*
X4008D01*
X4177Y13637D01*
X4279Y13704D01*
X4313Y13806D01*
Y13874D01*
X4279Y13975D01*
X4177Y14043D01*
X4008Y14077D01*
X3906D01*
X3737Y14043D01*
X3636Y13975D01*
X3602Y13874D01*
Y13806D01*
Y14439D02*
X3636Y14337D01*
X3737Y14270D01*
X3906Y14236D01*
X4008D01*
X4177Y14270D01*
X4279Y14337D01*
X4313Y14439D01*
Y14507D01*
X4279Y14608D01*
X4177Y14676D01*
X4008Y14710D01*
X3906D01*
X3737Y14676D01*
X3636Y14608D01*
X3602Y14507D01*
Y14439D01*
X5303Y8930D02*
Y8693D01*
X5185Y8575D01*
X4948D01*
X4829Y8693D01*
Y8930D01*
X4948Y9049D01*
X5066D01*
Y8575D01*
X5540Y9286D02*
X4829D01*
Y9641D01*
X4948Y9760D01*
X5185D01*
X5303Y9641D01*
Y9286D01*
X4711Y10115D02*
X4829D01*
Y9997D01*
Y10234D01*
Y10115D01*
X5185D01*
X5303Y10234D01*
Y10944D02*
Y10708D01*
X5185Y10589D01*
X4948D01*
X4829Y10708D01*
Y10944D01*
X4948Y11063D01*
X5066D01*
Y10589D01*
X4829Y11774D02*
Y11418D01*
X4948Y11300D01*
X5185D01*
X5303Y11418D01*
Y11774D01*
Y12129D02*
Y12366D01*
X5185Y12485D01*
X4948D01*
X4829Y12366D01*
Y12129D01*
X4948Y12011D01*
X5185D01*
X5303Y12129D01*
Y12722D02*
X4829D01*
Y13077D01*
X4948Y13196D01*
X5303D01*
D23*
X57000Y3000D02*
D03*
X3000Y3100D02*
D03*
X57000Y47000D02*
D03*
X3000D02*
D03*
D24*
X8250Y6950D02*
D03*
X25820D02*
D03*
D25*
X20210Y5470D02*
D03*
X22750D02*
D03*
X21480Y2930D02*
D03*
X18940D02*
D03*
X17670Y5470D02*
D03*
X16400Y2930D02*
D03*
X15130Y5470D02*
D03*
X13860Y2930D02*
D03*
X12590Y5470D02*
D03*
X11320Y2930D02*
D03*
X10050Y5470D02*
D03*
X32500Y47000D02*
D03*
Y45000D02*
D03*
X34500Y47000D02*
D03*
Y45000D02*
D03*
X36500Y47000D02*
D03*
Y45000D02*
D03*
X38500Y47000D02*
D03*
Y45000D02*
D03*
X40500Y47000D02*
D03*
Y45000D02*
D03*
X42500Y47000D02*
D03*
X42500Y45000D02*
D03*
X44500Y47000D02*
D03*
Y45000D02*
D03*
X46500Y47000D02*
D03*
Y45000D02*
D03*
X48500D02*
D03*
X50500Y47000D02*
D03*
X48500Y47000D02*
D03*
X9500D02*
D03*
Y45000D02*
D03*
X11500Y47000D02*
D03*
Y45000D02*
D03*
X13500Y47000D02*
D03*
Y45000D02*
D03*
X15500Y47000D02*
D03*
Y45000D02*
D03*
X17500Y47000D02*
D03*
Y45000D02*
D03*
X19500Y47000D02*
D03*
X19500Y45000D02*
D03*
X21500Y47000D02*
D03*
Y45000D02*
D03*
X23500Y47000D02*
D03*
Y45000D02*
D03*
X25500D02*
D03*
X27500Y47000D02*
D03*
X25500Y47000D02*
D03*
D26*
X24020Y2930D02*
D03*
X50500Y45000D02*
D03*
X27500D02*
D03*
D27*
X29500Y8000D02*
D03*
X45514Y24014D02*
D03*
X35500Y15000D02*
D03*
X51000Y27000D02*
D03*
X48500Y35500D02*
D03*
X50500Y29400D02*
D03*
X49500Y28500D02*
D03*
X43000Y25500D02*
D03*
X51500D02*
D03*
X49500Y30500D02*
D03*
X48500Y31500D02*
D03*
X47545Y32545D02*
D03*
X46500Y33500D02*
D03*
X48500Y7500D02*
D03*
X56500Y11500D02*
D03*
X53500Y22000D02*
D03*
X30987Y34887D02*
D03*
Y39387D02*
D03*
X45500Y35500D02*
D03*
X53500Y33200D02*
D03*
X49000D02*
D03*
X8500Y30500D02*
D03*
X10766Y29390D02*
D03*
X12291Y29391D02*
D03*
X8000Y32000D02*
D03*
X9242Y29390D02*
D03*
X18894Y26850D02*
D03*
X24990Y27104D02*
D03*
X29562Y40312D02*
D03*
Y41836D02*
D03*
X24228Y40820D02*
D03*
X25498Y40312D02*
D03*
X25752Y31422D02*
D03*
X22450Y33454D02*
D03*
X27200Y28400D02*
D03*
X16200Y32900D02*
D03*
Y28400D02*
D03*
X24200Y23300D02*
D03*
X27200Y23400D02*
D03*
X43600Y14200D02*
D03*
X48600D02*
D03*
X43400Y12700D02*
D03*
X39000Y12700D02*
D03*
X48900Y12700D02*
D03*
X46900Y14200D02*
D03*
X45400D02*
D03*
X27200Y34400D02*
D03*
X18894Y31422D02*
D03*
X17700Y34400D02*
D03*
X9000Y33000D02*
D03*
X10000Y34000D02*
D03*
Y35500D02*
D03*
X20464Y13540D02*
D03*
X18178Y14556D02*
D03*
X54500Y14500D02*
D03*
X55500Y15500D02*
D03*
X53500Y13500D02*
D03*
X38500Y16000D02*
D03*
X37000Y15500D02*
D03*
X36500Y20500D02*
D03*
X37500Y22500D02*
D03*
X40500Y25000D02*
D03*
Y30000D02*
D03*
X39000D02*
D03*
X41246Y36502D02*
D03*
X38706Y35486D02*
D03*
X39976Y35994D02*
D03*
X36100Y33600D02*
D03*
X33880Y29390D02*
D03*
X32610Y29898D02*
D03*
X35150Y28882D02*
D03*
X33372Y31930D02*
D03*
X34134Y33708D02*
D03*
X36700Y23800D02*
D03*
X16000Y14500D02*
D03*
X30000Y3500D02*
D03*
X52500Y24014D02*
D03*
X58000Y24000D02*
D03*
X34900Y20500D02*
D03*
X36200Y27900D02*
D03*
X36500Y35500D02*
D03*
X46000Y38000D02*
D03*
X48000Y41500D02*
D03*
X47000Y40500D02*
D03*
Y37000D02*
D03*
X22700Y14500D02*
D03*
X21500Y10000D02*
D03*
X56000Y29000D02*
D03*
X52600Y3000D02*
D03*
X48500D02*
D03*
X38900D02*
D03*
X27000Y12500D02*
D03*
X39000Y8000D02*
D03*
X34500D02*
D03*
X32000Y12500D02*
D03*
X7400D02*
D03*
X7500Y18000D02*
D03*
X4000Y35000D02*
D03*
Y41000D02*
D03*
X53500Y42500D02*
D03*
X9500Y41000D02*
D03*
X7500Y46000D02*
D03*
D28*
X43600Y15750D02*
D03*
Y17250D02*
D03*
X48600Y15750D02*
D03*
Y17250D02*
D03*
D29*
X21000Y30850D02*
D03*
X23400D02*
D03*
X21000Y28950D02*
D03*
X23400D02*
D03*
D30*
X56450Y33200D02*
D03*
Y35500D02*
D03*
Y37800D02*
D03*
D31*
X50750Y35500D02*
D03*
M02*
